<svg xmlns="http://www.w3.org/2000/svg" xmlns:xlink="http://www.w3.org/1999/xlink" width="1920" height="611" viewBox="0 0 1920 611"><defs><filter id="a" x="314" y="140" width="504" height="359" filterUnits="userSpaceOnUse"><feOffset dx="-5" dy="6" input="SourceAlpha"/><feGaussianBlur stdDeviation="6" result="b"/><feFlood flood-opacity="0.078"/><feComposite operator="in" in2="b"/><feComposite in="SourceGraphic"/></filter><linearGradient id="c" x1="0.837" y1="0.056" x2="0.181" y2="1.165" gradientUnits="objectBoundingBox"><stop offset="0" stop-color="#00ff6a"/><stop offset="1" stop-color="#48c91a"/></linearGradient><filter id="d" x="720" y="407" width="160" height="160" filterUnits="userSpaceOnUse"><feOffset dx="-5" dy="12" input="SourceAlpha"/><feGaussianBlur stdDeviation="6" result="e"/><feFlood flood-opacity="0.161"/><feComposite operator="in" in2="e"/><feComposite in="SourceGraphic"/></filter><clipPath id="f"><rect width="323" height="200" fill="none"/></clipPath><filter id="g" x="1030" y="140" width="504" height="359" filterUnits="userSpaceOnUse"><feOffset dx="-5" dy="6" input="SourceAlpha"/><feGaussianBlur stdDeviation="6" result="h"/><feFlood flood-opacity="0.161"/><feComposite operator="in" in2="h"/><feComposite in="SourceGraphic"/></filter><linearGradient id="i" x1="0.963" y1="0.039" x2="0" y2="1.173" gradientUnits="objectBoundingBox"><stop offset="0" stop-color="#ff5300"/><stop offset="1" stop-color="#b91503"/></linearGradient><filter id="j" x="1436" y="407" width="160" height="160" filterUnits="userSpaceOnUse"><feOffset dx="-5" dy="12" input="SourceAlpha"/><feGaussianBlur stdDeviation="6" result="k"/><feFlood flood-opacity="0.161"/><feComposite operator="in" in2="k"/><feComposite in="SourceGraphic"/></filter></defs><g transform="translate(0 -18027)"><path d="M0,0H1920V611H0Z" transform="translate(0 18027)" fill="#444" opacity="0.3"/><g transform="translate(80 17918)"><g transform="matrix(1, 0, 0, 1, -80, 109)" filter="url(#a)"><rect width="468" height="323" rx="20" transform="translate(337 152)" fill="#fafafa"/></g><g transform="matrix(1, 0, 0, 1, -80, 109)" filter="url(#d)"><circle cx="62" cy="62" r="62" transform="translate(743 413)" fill="url(#c)"/></g><path d="M20,0H60a0,0,0,0,1,0,0V323a0,0,0,0,1,0,0H20A20,20,0,0,1,0,303V20A20,20,0,0,1,20,0Z" transform="translate(256 261)" fill="#36332f"/><g transform="translate(358 356)" clip-path="url(#f)"><g transform="translate(-393 -318)"><g transform="translate(403 328)" fill="#e8e8e8" stroke="#969696" stroke-width="1"><rect width="72" height="72" rx="8" stroke="none"/><rect x="0.5" y="0.5" width="71" height="71" rx="7.5" fill="none"/></g></g><g transform="translate(-287 -318)"><g transform="translate(403 328)" fill="#e8e8e8" stroke="#969696" stroke-width="1"><rect width="72" height="72" rx="8" stroke="none"/><rect x="0.5" y="0.5" width="71" height="71" rx="7.5" fill="none"/></g></g><g transform="translate(-181 -318)"><g transform="translate(403 328)" fill="#e8e8e8" stroke="#969696" stroke-width="1"><rect width="72" height="72" rx="8" stroke="none"/><rect x="0.5" y="0.5" width="71" height="71" rx="7.5" fill="none"/></g></g><g transform="translate(-393 -223)"><g transform="translate(403 328)" fill="#e8e8e8" stroke="#969696" stroke-width="1"><rect width="72" height="72" rx="8" stroke="none"/><rect x="0.5" y="0.5" width="71" height="71" rx="7.5" fill="none"/></g></g><g transform="translate(-287 -223)"><g transform="translate(403 328)" fill="#e8e8e8" stroke="#969696" stroke-width="1"><rect width="72" height="72" rx="8" stroke="none"/><rect x="0.5" y="0.5" width="71" height="71" rx="7.5" fill="none"/></g></g><g transform="translate(-181 -223)"><g transform="translate(403 328)" fill="#e8e8e8" stroke="#969696" stroke-width="1"><rect width="72" height="72" rx="8" stroke="none"/><rect x="0.5" y="0.5" width="71" height="71" rx="7.5" fill="none"/></g></g></g><g transform="translate(368 288)" fill="#e8e8e8" stroke="#969696" stroke-width="1"><rect width="210" height="29" rx="14.5" stroke="none"/><rect x="0.5" y="0.5" width="209" height="28" rx="14" fill="none"/></g><path d="M-5821.454,3615.34l23.479,21.8,43.06-44.427" transform="translate(6518.423 -3030.715)" fill="none" stroke="#fff" stroke-linecap="round" stroke-width="10"/></g><g transform="translate(-20 17918)"><g transform="matrix(1, 0, 0, 1, 20, 109)" filter="url(#g)"><rect width="468" height="323" rx="20" transform="translate(1053 152)" fill="#fafafa"/></g><g transform="matrix(1, 0, 0, 1, 20, 109)" filter="url(#j)"><circle cx="62" cy="62" r="62" transform="translate(1459 413)" fill="url(#i)"/></g><path d="M20,0H91a0,0,0,0,1,0,0V323a0,0,0,0,1,0,0H20A20,20,0,0,1,0,303V20A20,20,0,0,1,20,0Z" transform="translate(1072 261)" fill="#36332f"/><g transform="translate(1174 288)" clip-path="url(#f)"><g transform="translate(-393 -318)"><g transform="translate(403 328)" fill="#e8e8e8" stroke="#969696" stroke-width="1"><rect width="72" height="72" rx="8" stroke="none"/><rect x="0.5" y="0.5" width="71" height="71" rx="7.5" fill="none"/></g></g><g transform="translate(-287 -318)"><g transform="translate(403 328)" fill="#e8e8e8" stroke="#969696" stroke-width="1"><rect width="72" height="72" rx="8" stroke="none"/><rect x="0.5" y="0.5" width="71" height="71" rx="7.5" fill="none"/></g></g><g transform="translate(-181 -318)"><g transform="translate(403 328)" fill="#e8e8e8" stroke="#969696" stroke-width="1"><rect width="72" height="72" rx="8" stroke="none"/><rect x="0.5" y="0.5" width="71" height="71" rx="7.5" fill="none"/></g></g><g transform="translate(-393 -223)"><g transform="translate(403 328)" fill="#e8e8e8" stroke="#969696" stroke-width="1"><rect width="72" height="72" rx="8" stroke="none"/><rect x="0.5" y="0.5" width="71" height="71" rx="7.5" fill="none"/></g></g><g transform="translate(-287 -223)"><g transform="translate(403 328)" fill="#e8e8e8" stroke="#969696" stroke-width="1"><rect width="72" height="72" rx="8" stroke="none"/><rect x="0.5" y="0.5" width="71" height="71" rx="7.5" fill="none"/></g></g><g transform="translate(-181 -223)"><g transform="translate(403 328)" fill="#e8e8e8" stroke="#969696" stroke-width="1"><rect width="72" height="72" rx="8" stroke="none"/><rect x="0.5" y="0.5" width="71" height="71" rx="7.5" fill="none"/></g></g></g><g transform="translate(1184 533)" fill="#e8e8e8" stroke="#969696" stroke-width="1"><rect width="210" height="29" rx="14.5" stroke="none"/><rect x="0.5" y="0.5" width="209" height="28" rx="14" fill="none"/></g><g transform="translate(9.267 9.295)"><path d="M-5023,3584l54.248,54.14" transform="translate(6528 -3036)" fill="none" stroke="#fff" stroke-linecap="round" stroke-width="10"/><path d="M-5023,3638.5l54.151-54.137" transform="translate(6528 -3036.093)" fill="none" stroke="#fff" stroke-linecap="round" stroke-width="10"/></g></g></g></svg>