<svg xmlns="http://www.w3.org/2000/svg" xmlns:xlink="http://www.w3.org/1999/xlink" width="950" height="564" viewBox="0 0 950 564"><defs><clipPath id="a"><rect width="950" height="564" transform="translate(416 25050)" fill="#fff" stroke="#707070" stroke-width="1"/></clipPath><filter id="b" x="689" y="142.002" width="195" height="107" filterUnits="userSpaceOnUse"><feOffset dy="12" input="SourceAlpha"/><feGaussianBlur stdDeviation="12" result="c"/><feFlood flood-opacity="0.349"/><feComposite operator="in" in2="c"/><feComposite in="SourceGraphic"/></filter><filter id="d" x="786.704" y="160.326" width="79.967" height="78.967" filterUnits="userSpaceOnUse"><feOffset dy="12" input="SourceAlpha"/><feGaussianBlur stdDeviation="12" result="e"/><feFlood flood-opacity="0.349"/><feComposite operator="in" in2="e"/><feComposite in="SourceGraphic"/></filter><filter id="f" x="786.699" y="151.359" width="79.967" height="78.967" filterUnits="userSpaceOnUse"><feOffset dy="12" input="SourceAlpha"/><feGaussianBlur stdDeviation="12" result="g"/><feFlood flood-opacity="0.349"/><feComposite operator="in" in2="g"/><feComposite in="SourceGraphic"/></filter><filter id="h" x="702.986" y="146.045" width="141" height="95" filterUnits="userSpaceOnUse"><feOffset dy="12" input="SourceAlpha"/><feGaussianBlur stdDeviation="12" result="i"/><feFlood flood-opacity="0.349"/><feComposite operator="in" in2="i"/><feComposite in="SourceGraphic"/></filter></defs><g transform="translate(-416 -25050)" clip-path="url(#a)"><g transform="translate(926.923 25052.918)"><g transform="translate(0.077 0.082)" fill="none" stroke="#36332f" stroke-width="1"><rect width="151" height="43" rx="21.5" stroke="none"/><rect x="0.5" y="0.5" width="150" height="42" rx="21" fill="none"/></g><path d="M591.2,170.339,583,156.005h16.391Z" transform="translate(-479.331 -141.7)" fill="#36332f"/><text transform="translate(30.634 25.752)" fill="#36332f" font-size="21" font-family="Lato-Medium, Lato" font-weight="500"><tspan x="0" y="0">List</tspan></text></g><g transform="translate(416 25052.918)"><g transform="translate(0 0)" opacity="0.502"><g transform="translate(0 0.082)" fill="none" stroke="#252320" stroke-width="0.95"><rect width="432" height="44" rx="16" stroke="none"/><rect x="0.475" y="0.475" width="431.05" height="43.05" rx="15.525" fill="none"/></g><text transform="translate(54.703 28.214)" fill="#252320" font-size="18.86" font-family="Montserrat-Regular, Montserrat"><tspan x="0" y="0">Buscar Items...</tspan></text><g transform="translate(16.615 12.462)"><path d="M14.036,12.913h-.876l-.31-.3a7.215,7.215,0,1,0-.776.776l.3.31v.876l5.542,5.531,1.651-1.651Zm-6.65,0a4.987,4.987,0,1,1,4.987-4.987A4.981,4.981,0,0,1,7.386,12.913Z" transform="translate(-0.182 -0.721)" fill="#252320"/></g></g><g transform="translate(333.692 0)" opacity="0.788"><path d="M529,22h76.154a22.154,22.154,0,1,1,0,44.308H529Z" transform="translate(-529 -22)" fill="#36332f"/><path d="M587.542,44.7,582,35.005h11.083Z" transform="translate(-508.615 -16.998)" fill="#fff"/><text transform="translate(13.308 28.008)" fill="#fff" font-size="14" font-family="Lato-Medium, Lato" font-weight="500"><tspan x="0" y="0">Código</tspan></text></g></g><g transform="translate(1181.692 25050.148)"><rect width="134" height="1" transform="translate(0.308 12.851)" fill="#b7815a"/><path d="M0,15.47H21L10.5,29Zm0,0V0H20.987V15.468Z" transform="translate(0.308 -0.149)" fill="#b7815a"/></g><text transform="translate(656 25241)" fill="#b7815a" font-size="19.955" font-family="Lato-Bold, Lato" font-weight="700"><tspan x="0" y="0">Placeholder:</tspan></text><text transform="translate(779 25241)" fill="#b7815a" font-size="19.955" font-family="Lato-Regular, Lato"><tspan x="0" y="0">Onfocus</tspan></text><text transform="translate(441 25476)" fill="#969696" font-size="19.955" font-family="Lato-Regular, Lato"><tspan x="0" y="0">Text</tspan></text><g transform="translate(0 1618)"><text transform="translate(416 23623)" fill="#211f1d" font-size="19.955" font-family="Lato-Bold, Lato" font-weight="700"><tspan x="0" y="0">Placeholder:</tspan></text><text transform="translate(539 23623)" fill="#969696" font-size="19.955" font-family="Lato-Regular, Lato"><tspan x="0" y="0">Text</tspan></text><line x2="56" transform="translate(533.5 23628.5)" fill="none" stroke="#969696" stroke-width="1"/></g><text transform="translate(924.5 25241)" fill="#211f1d" font-size="19.955" font-family="Lato-Bold, Lato" font-weight="700"><tspan x="0" y="0">Placeholder:</tspan></text><text transform="translate(415 25408)" fill="#211f1d" font-size="19.955" font-family="Lato-Bold, Lato" font-weight="700"><tspan x="0" y="0">Placeholder:</tspan></text><text transform="translate(1047.5 25241)" fill="#211f1d" font-size="19.955" font-family="Lato-Regular, Lato"><tspan x="0" y="0">Data</tspan></text><line x2="56" transform="translate(1042 25246.5)" fill="none" stroke="#211f1d" stroke-width="1"/><line x2="87" transform="translate(773.5 25246.5)" fill="none" stroke="#b7815a" stroke-width="2"/><g transform="translate(617 24935.836)"><g transform="matrix(1, 0, 0, 1, -201, 114.16)" filter="url(#b)"><g transform="translate(725 166)" fill="none" stroke="#36332f" stroke-width="1"><rect width="123" height="35" rx="17.5" stroke="none"/><rect x="0.5" y="0.5" width="122" height="34" rx="17" fill="none"/></g></g><g transform="translate(621.7 289.523)"><g transform="matrix(1, 0, 0, 1, -822.7, -175.36)" filter="url(#d)"><path d="M656.984,299.846,653,292.879h7.967Z" transform="translate(169.7 -108.55)" fill="#36332f"/></g><g transform="matrix(1, 0, 0, 1, -822.7, -175.36)" filter="url(#f)"><path d="M656.979,285l3.984,6.967H653Z" transform="translate(169.7 -109.64)" fill="#36332f"/></g></g><g transform="matrix(1, 0, 0, 1, -201, 114.16)" filter="url(#h)"><text transform="translate(738.99 189.05)" fill="#36332f" font-size="19" font-family="Lato-Medium, Lato" font-weight="500"><tspan x="0" y="0">Number</tspan></text></g></g><g transform="translate(-321.698 25248.313)"><g transform="translate(737.698 184.69)" fill="none" stroke="#36332f" stroke-width="1.5"><rect width="508" height="181" rx="10" stroke="none"/><rect x="0.75" y="0.75" width="506.5" height="179.5" rx="9.25" fill="none"/></g><path d="M935,277.209l-1.007-1.006L966.2,243.993,967.208,245Z" transform="translate(268.63 82.139)" fill="#252320" stroke="#707070" stroke-width="1.5"/><path d="M939.642,270.348,939,269.7,959.7,249l.647.647Z" transform="translate(275.484 88.993)" fill="#252320" stroke="#707070" stroke-width="1.5"/><path d="M943.357,264.86,943,264.5,954.5,253l.36.36Z" transform="translate(280.968 94.476)" fill="#252320" stroke="#707070" stroke-width="1.5"/></g></g></svg>