<svg xmlns="http://www.w3.org/2000/svg" xmlns:xlink="http://www.w3.org/1999/xlink" width="1088" height="1755" viewBox="0 0 1088 1755"><defs><clipPath id="a"><rect width="1088" height="1755" transform="translate(416 28219)" fill="#fff" stroke="#707070" stroke-width="1"/></clipPath><clipPath id="b"><path d="M19.089,25.3V44.533H11.315V30.319a2.159,2.159,0,0,1,1.067-1.843l6.149-3.553a.376.376,0,0,1,.558.376ZM29.506,18.64l-6.064,3.5a2.353,2.353,0,0,0-1.213,2.013V44.533H30V18.956a.364.364,0,0,0-.5-.315Zm10.115-5.846-5.179,2.971a2.426,2.426,0,0,0-1.213,2.11V44.557h7.762V13.6a.922.922,0,0,0-1.37-.8ZM47.953,0H37.038a.7.7,0,0,0-.606,1.055l1.213,2.2-27.6,15.96a.97.97,0,0,1-.958,0l-4.693-2.7a2.926,2.926,0,0,0-2.923,5.069L9.132,26a.91.91,0,0,0,.861,0L40.615,8.32l1.213,2.2a.691.691,0,0,0,1.213,0l5.47-9.46A.7.7,0,0,0,47.953,0ZM1.406,25.468A.667.667,0,0,0,.4,26.05V44.533H8.137V29.567a.461.461,0,0,0-.206-.376Z" transform="translate(-0.002)"/></clipPath><clipPath id="c"><path d="M54.625,37.509H5.4a5.4,5.4,0,0,1-5.4-5.4V5.4A5.4,5.4,0,0,1,5.4,0h49.23a5.4,5.4,0,0,1,5.4,5.4V32.114A5.4,5.4,0,0,1,54.625,37.509Zm5.4-32.721H0V11.33H60.02ZM11.748,31.021V28.9a1.686,1.686,0,0,0-1.686-1.686H5.53A1.686,1.686,0,0,0,3.844,28.9v2.118a1.686,1.686,0,0,0,1.686,1.7h4.532a1.686,1.686,0,0,0,1.686-1.7Z"/></clipPath><clipPath id="d"><path d="M47.341,19.215a2.228,2.228,0,0,0,2.228-2.228V2.228A2.228,2.228,0,0,0,47.341,0H32.582a2.228,2.228,0,0,0-2.228,2.228V8.176H19.215V2.228A2.228,2.228,0,0,0,16.987,0H2.228A2.228,2.228,0,0,0,0,2.228V16.987a2.228,2.228,0,0,0,2.228,2.228H8.176V30.354H2.228A2.228,2.228,0,0,0,0,32.582V47.341a2.228,2.228,0,0,0,2.228,2.228H16.987a2.228,2.228,0,0,0,2.228-2.228V41.393H30.354v5.948a2.228,2.228,0,0,0,2.228,2.228H47.341a2.228,2.228,0,0,0,2.228-2.228V32.582a2.228,2.228,0,0,0-2.228-2.228H41.393V19.215Zm0,15.595v10.3a2.228,2.228,0,0,1-2.228,2.228H34.81a2.228,2.228,0,0,1-2.228-2.228V34.81a2.228,2.228,0,0,1,2.228-2.228h10.3A2.228,2.228,0,0,1,47.341,34.81ZM38.53,30.354H32.582a2.228,2.228,0,0,0-2.228,2.228V38.53H19.215V32.582a2.228,2.228,0,0,0-2.228-2.228H11.039V19.215h5.948a2.228,2.228,0,0,0,2.228-2.228V11.039H30.354v5.948a2.228,2.228,0,0,0,2.228,2.228H38.53Z"/></clipPath><clipPath id="e"><path d="M47.528,33.024V24.373A2.157,2.157,0,0,0,45.371,22.2H27.212V11.419a5.768,5.768,0,1,0-2.274,0V22.2H6.779a2.157,2.157,0,0,0-2.1,2.169v8.652a5.768,5.768,0,1,0,2.274,0V24.49H24.938v8.534a5.768,5.768,0,1,0,2.274,0V24.49H45.254v8.534a5.768,5.768,0,1,0,2.274,0Z" transform="translate(-0.05 0.003)"/></clipPath><clipPath id="f"><path d="M27.2,0A27.211,27.211,0,1,0,54.411,27.2,27.211,27.211,0,0,0,27.2,0Zm0,48.674A21.475,21.475,0,1,1,48.675,27.2,21.475,21.475,0,0,1,27.2,48.674ZM46.437,27.2a19.225,19.225,0,1,1-5.631-13.606A19.236,19.236,0,0,1,46.437,27.2Z" transform="translate(0.01)"/></clipPath><clipPath id="g"><path d="M1,17.938A.909.909,0,0,1,1,16.5L22.185.189a.909.909,0,0,1,1.111,0L44.478,16.5a.909.909,0,0,1,0,1.439L23.3,34.26a.909.909,0,0,1-1.111,0ZM22.185,41.784a.909.909,0,0,0,1.111,0L44.478,25.462a.909.909,0,0,0,0-1.439l-1.553-1.174a.9.9,0,0,0-1.1,0L23.3,37.138a.909.909,0,0,1-1.111,0L3.641,22.849a.909.909,0,0,0-1.111,0L1,23.985a.909.909,0,0,0,0,1.439ZM45.122,31.205l-1.1-.846a.934.934,0,0,0-1.1,0L23.3,45.445a.909.909,0,0,1-1.111,0L2.53,30.36a.947.947,0,0,0-1.111,0l-1.086.846a.909.909,0,0,0,0,1.439L22.185,49.459a.909.909,0,0,0,1.111,0L45.122,32.644a.909.909,0,0,0,0-1.439Z" transform="translate(0.02 0)"/></clipPath><clipPath id="h"><path d="M19.014,20.031a10.486,10.486,0,1,0-8.663,0A14.683,14.683,0,0,0,0,34.053V53.96a1.468,1.468,0,0,0,1.468,1.468H27.9a1.468,1.468,0,0,0,1.468-1.468V34.053A14.683,14.683,0,0,0,19.014,20.031Zm3.793,9.629a.759.759,0,0,1-1.138.661L17.13,27.7a2.814,2.814,0,0,1-4.894,0L7.708,30.321a.759.759,0,0,1-1.138-.661V22.992a.759.759,0,0,1,1.138-.661l4.527,2.618a2.814,2.814,0,0,1,4.894,0l4.527-2.618a.759.759,0,0,1,1.138.661Z" transform="translate(0 0.005)"/></clipPath></defs><g transform="translate(-416 -28219)" clip-path="url(#a)"><g transform="translate(468.996 28218.57)"><g transform="translate(0 0)"><circle cx="7.562" cy="7.562" r="7.562"/><circle cx="7.562" cy="7.562" r="7.562" transform="translate(0 19.866)"/><circle cx="7.562" cy="7.562" r="7.562" transform="translate(0 39.732)"/></g></g><g transform="translate(581.557 28226.523)"><g transform="translate(0.002 0)"><path d="M49.305,2.9l4.942,4.942L37.563,24.488,26.415,13.341a3.381,3.381,0,0,0-4.794,0L1,33.815a3.381,3.381,0,0,0,0,4.794H1a3.419,3.419,0,0,0,4.831,0l18.059-18.1L35.036,31.66a3.381,3.381,0,0,0,4.794,0L58.929,12.6l4.942,4.942a1.709,1.709,0,0,0,3.01-1.152V1.71A1.635,1.635,0,0,0,65.209,0H50.346a1.709,1.709,0,0,0-1.04,2.9Z" transform="translate(-0.002 0)"/></g></g><g transform="translate(722.999 28233.563)"><g transform="translate(0.001 0.001)"><path d="M44.266,32.966,48.7,28.532,33.732,13.565l-10,10a3.067,3.067,0,0,1-4.334,0L.9,5.231A3.067,3.067,0,0,1,.9.9h0A3.067,3.067,0,0,1,5.231.9L21.465,17.165l10-10a3.067,3.067,0,0,1,4.334,0L52.966,24.3l4.4-4.434A1.533,1.533,0,0,1,60,20.932V34a1.533,1.533,0,0,1-1.567,1.533H45.366a1.5,1.5,0,0,1-1.1-2.567Z" transform="translate(-0.001 -0.001)"/></g></g><g transform="translate(871 28238.203)"><rect width="45.08" height="5.471" rx="0.92" transform="translate(0 14.947)"/><rect width="45.08" height="5.471" rx="0.92"/></g><g transform="translate(1009.18 28221.047)"><path d="M37.758,59.909H5.062A5.062,5.062,0,0,1,0,54.847V5.062A5.062,5.062,0,0,1,5.062,0H32.269L42.82,9.735V54.847a5.062,5.062,0,0,1-5.062,5.062ZM5.062,3.744A1.318,1.318,0,0,0,3.744,5.062V54.847a1.318,1.318,0,0,0,1.318,1.318h32.7a1.311,1.311,0,0,0,1.311-1.311v-43.5l-8.26-7.608Z"/><path d="M50.9,13.037H44.672A5.062,5.062,0,0,1,39.61,7.974V2.5h3.744V7.974a1.311,1.311,0,0,0,1.311,1.311h6.223Z" transform="translate(-9.948 -0.628)"/><path d="M33.785,25.342a14.079,14.079,0,1,0,2.741,16,1.767,1.767,0,0,0-1.58-2.539h0a1.715,1.715,0,0,0-1.55.974A10.544,10.544,0,1,1,23.84,24.8a10.424,10.424,0,0,1,7.429,3.13L28.61,30.584a1.752,1.752,0,0,0,1.228,3h6.305a1.76,1.76,0,0,0,1.76-1.76V25.447a1.767,1.767,0,0,0-3-1.251Z" transform="translate(-2.445 -5.325)"/></g><g transform="translate(1146.078 28222.297)"><path d="M36.173,57.395H4.85A4.85,4.85,0,0,1,0,52.545V4.85A4.85,4.85,0,0,1,4.85,0H30.914L41.023,9.327V52.545a4.85,4.85,0,0,1-4.85,4.85ZM4.85,3.587A1.263,1.263,0,0,0,3.587,4.85V52.545A1.263,1.263,0,0,0,4.85,53.808H36.173a1.256,1.256,0,0,0,1.256-1.256V10.876L29.515,3.587Z"/><path d="M50.422,12.594H44.46a4.85,4.85,0,0,1-4.85-4.85V2.5H43.2V7.744A1.256,1.256,0,0,0,44.453,9h5.962Z" transform="translate(-11.192 -0.706)"/><path d="M35.772,44.346l-9.018-9.011,9.018-9.011L32.946,23.49l-9.018,9.018L14.917,23.49,12.09,26.324,21.1,35.335,12.09,44.346l2.827,2.834,9.011-9.018,9.018,9.018Z" transform="translate(-3.416 -6.637)"/></g><g transform="translate(1281.434 28222.414)"><g transform="translate(0 -0.01)"><path d="M27.344,39.54h8.344A7.614,7.614,0,0,1,43.3,47.147V67.7a.765.765,0,0,1-.765.765H20.5a.765.765,0,0,1-.765-.765V47.147a7.614,7.614,0,0,1,7.614-7.607Z" transform="translate(-5.624 -11.264)"/><circle cx="8.415" cy="8.415" r="8.415" transform="translate(17.481 12.726)"/><path d="M56.849,16.069a8.415,8.415,0,1,0-6.949,0,11.7,11.7,0,0,0-1.759.715,11.775,11.775,0,0,1,.579,9.638,11.768,11.768,0,0,1,4.9,9.538v8.515H63.97a1.18,1.18,0,0,0,1.187-1.18V27.33a11.783,11.783,0,0,0-8.31-11.261Z" transform="translate(-12.815 0.01)"/><path d="M10.989,35.96a11.762,11.762,0,0,1,4.9-9.553,11.689,11.689,0,0,1-.766-4.167,11.861,11.861,0,0,1,1.43-5.677,11.875,11.875,0,0,0-1.3-.493,8.415,8.415,0,1,0-6.949,0A11.783,11.783,0,0,0,0,27.33V43.3a1.18,1.18,0,0,0,1.18,1.18h9.809Z" transform="translate(0 0.01)"/></g></g><g transform="translate(1408.828 28226.379)"><path d="M67.014,31.07H3.33A3.33,3.33,0,0,0,0,34.388v6.2a3.33,3.33,0,0,0,3.33,3.294H67.014a3.33,3.33,0,0,0,3.33-3.295v-6.2A3.33,3.33,0,0,0,67.014,31.07ZM44.152,40.813H26.191a2.462,2.462,0,1,1,0-4.912H44.152a2.462,2.462,0,1,1,0,4.912Z" transform="translate(0 5.356)"/><path d="M61.877,31.983H7.385a3.763,3.763,0,0,1-2.825-1.348,6.6,6.6,0,0,1-1.348-5.076l2.755-21.1C6.318,1.852,8.029,0,10.14,0H59.122c2.11,0,3.822,1.852,4.174,4.5l2.755,21.1A6.6,6.6,0,0,1,64.7,30.681,3.763,3.763,0,0,1,61.877,31.983Zm-53.93-4.69H61.291a2.638,2.638,0,0,0,.094-1.172L58.63,5.018a2.344,2.344,0,0,0-.082-.328H10.714a2.345,2.345,0,0,0-.094.422l-2.755,21.1a2.638,2.638,0,0,0,.094,1.079Z" transform="translate(0.541)"/><rect width="53.836" height="1.172" transform="translate(8.254 9.825)"/><rect width="56.802" height="1.172" transform="translate(6.776 19.989)"/><rect width="27.399" height="1.172" transform="translate(23.144 29.593) rotate(-84.96)"/><rect width="1.172" height="27.41" transform="translate(42.467 2.395) rotate(-5.23)"/></g><g transform="translate(447.1 28363.973)"><rect width="8.99" height="8.84" rx="3.82" transform="translate(18.46 13.99)"/><path d="M51.12,8.82A30,30,0,1,0,57,42.9a3.76,3.76,0,0,0-3.38-5.4h0a3.64,3.64,0,0,0-3.3,2,22.48,22.48,0,1,1-20.36-32,22.21,22.21,0,0,1,15.83,6.67l-5.67,5.66a3.76,3.76,0,0,0,2.63,6.42H56.18a3.76,3.76,0,0,0,3.75-3.75V9.05a3.76,3.76,0,0,0-6.41-2.67Z"/><rect width="14.23" height="8.84" rx="3.82" transform="translate(18.46 24.87)"/><rect width="25.17" height="8.84" rx="3.82" transform="translate(18.46 36.66)"/></g><g transform="translate(593 28364)"><path d="M40.56,0H3.23A3.23,3.23,0,0,0,0,3.23V56.77A3.23,3.23,0,0,0,3.23,60H40.56a3.23,3.23,0,0,0,3.23-3.23V3.23A3.23,3.23,0,0,0,40.56,0ZM2.9,7.5A2.26,2.26,0,0,1,5.16,5.24H38A2.26,2.26,0,0,1,40.24,7.5V16A2.26,2.26,0,0,1,38,18.25H5.16A2.26,2.26,0,0,1,2.9,16ZM40.08,25v3.81a1.72,1.72,0,0,1-1.72,1.72H33.19a1.72,1.72,0,0,1-1.72-1.72V25a1.73,1.73,0,0,1,1.72-1.73h5.17A1.73,1.73,0,0,1,40.08,25Zm-9.43,0v3.81a1.73,1.73,0,0,1-1.73,1.72H23.76A1.72,1.72,0,0,1,22,28.77V25a1.73,1.73,0,0,1,1.72-1.73h5.16A1.74,1.74,0,0,1,30.65,25Zm-9.44,0v3.81a1.72,1.72,0,0,1-1.72,1.72H14.33a1.72,1.72,0,0,1-1.72-1.72V25a1.73,1.73,0,0,1,1.72-1.73h5.16A1.73,1.73,0,0,1,21.21,25Zm-9.43,0v3.81a1.72,1.72,0,0,1-1.72,1.72H4.9a1.72,1.72,0,0,1-1.73-1.72V25A1.73,1.73,0,0,1,4.9,23.23h5.16A1.73,1.73,0,0,1,11.78,25ZM3.17,37.38V33.56A1.72,1.72,0,0,1,4.9,31.84h5.16a1.72,1.72,0,0,1,1.72,1.72v3.82a1.72,1.72,0,0,1-1.72,1.72H4.9a1.72,1.72,0,0,1-1.73-1.72Zm8.88,17.21a1.72,1.72,0,0,1-1.72,1.72H5.16a1.72,1.72,0,0,1-1.72-1.72V50.78a1.72,1.72,0,0,1,1.72-1.72h5.17a1.72,1.72,0,0,1,1.72,1.72Zm0-8.61a1.72,1.72,0,0,1-1.72,1.72H5.16A1.72,1.72,0,0,1,3.44,46V42.17a1.72,1.72,0,0,1,1.72-1.72h5.17a1.72,1.72,0,0,1,1.72,1.72Zm.56-12.42a1.72,1.72,0,0,1,1.72-1.72h5.16a1.72,1.72,0,0,1,1.72,1.72v3.82a1.72,1.72,0,0,1-1.72,1.72H14.33a1.72,1.72,0,0,1-1.72-1.72Zm8.87,21a1.72,1.72,0,0,1-1.72,1.72H14.6a1.72,1.72,0,0,1-1.72-1.72V50.78a1.72,1.72,0,0,1,1.72-1.72h5.16a1.72,1.72,0,0,1,1.72,1.72Zm0-8.61a1.72,1.72,0,0,1-1.72,1.72H14.6A1.72,1.72,0,0,1,12.88,46V42.17a1.72,1.72,0,0,1,1.72-1.72h5.16a1.72,1.72,0,0,1,1.72,1.72ZM22,33.56a1.72,1.72,0,0,1,1.72-1.72h5.16a1.73,1.73,0,0,1,1.73,1.72v3.82a1.73,1.73,0,0,1-1.73,1.72H23.76A1.72,1.72,0,0,1,22,37.38Zm8.87,21a1.72,1.72,0,0,1-1.72,1.72H24a1.72,1.72,0,0,1-1.72-1.72V50.78A1.72,1.72,0,0,1,24,49.06h5.16a1.72,1.72,0,0,1,1.72,1.72Zm0-8.61a1.72,1.72,0,0,1-1.72,1.72H24A1.72,1.72,0,0,1,22.31,46V42.17A1.72,1.72,0,0,1,24,40.45h5.16a1.72,1.72,0,0,1,1.72,1.72Zm.56-12.42a1.72,1.72,0,0,1,1.72-1.72h5.17a1.72,1.72,0,0,1,1.72,1.72v3.82a1.72,1.72,0,0,1-1.72,1.72H33.19a1.72,1.72,0,0,1-1.72-1.72Zm8.88,21a1.72,1.72,0,0,1-1.72,1.72H33.46a1.72,1.72,0,0,1-1.72-1.72V50.78a1.72,1.72,0,0,1,1.72-1.72h5.17a1.72,1.72,0,0,1,1.72,1.72Zm0-8.61a1.72,1.72,0,0,1-1.72,1.72H33.46A1.72,1.72,0,0,1,31.74,46V42.17a1.72,1.72,0,0,1,1.72-1.72h5.17a1.72,1.72,0,0,1,1.72,1.72Z"/></g><g transform="translate(723 28364.137)"><path d="M22.86,34.29A5.71,5.71,0,1,0,28.57,40,5.71,5.71,0,0,0,22.86,34.29Z"/><path d="M40,20H37.14V14.29A14.28,14.28,0,0,0,9,10.71a2.861,2.861,0,0,0,5.54,1.43A8.57,8.57,0,0,1,31.4,14.29V20H5.71A5.73,5.73,0,0,0,0,25.71V54.29A5.73,5.73,0,0,0,5.71,60H40a5.73,5.73,0,0,0,5.71-5.71V25.71A5.73,5.73,0,0,0,40,20Zm0,31.43a2.87,2.87,0,0,1-2.86,2.86H8.57a2.87,2.87,0,0,1-2.86-2.86V28.57a2.87,2.87,0,0,1,2.86-2.86H37.14A2.87,2.87,0,0,1,40,28.57Z"/></g><g transform="translate(871 28364.379)"><path d="M40,20H37.14V14.29a14.29,14.29,0,1,0-28.57,0V20H5.71A5.73,5.73,0,0,0,0,25.71V54.29A5.73,5.73,0,0,0,5.71,60H40a5.73,5.73,0,0,0,5.71-5.71V25.71A5.73,5.73,0,0,0,40,20ZM22.86,45.71A5.71,5.71,0,1,1,28.57,40a5.71,5.71,0,0,1-5.71,5.71ZM14.29,20V14.29a8.57,8.57,0,0,1,17.14,0V20Z"/></g><g transform="translate(1006.443 28365.273)"><g transform="translate(0 0)"><rect width="48.107" height="22.025" transform="translate(0 35.425)"/><path d="M29.8,0a9.429,9.429,0,1,0,9.429,9.429A9.429,9.429,0,0,0,29.8,0Zm0,17.486a8.057,8.057,0,1,1,8.057-8.057A8.057,8.057,0,0,1,29.8,17.486Z" transform="translate(-5.742 0)"/><path d="M30.588,2.82a7.411,7.411,0,1,0,7.4,7.4,7.411,7.411,0,0,0-7.4-7.4Z" transform="translate(-6.531 -0.795)"/><path d="M46.47,23.2H33.4a11.8,11.8,0,0,1-18.671,0H1.637L0,38.051H48.115ZM34.535,31.444H13.573a1.35,1.35,0,1,1,0-2.693H34.535a1.35,1.35,0,1,1,0,2.693Z" transform="translate(0 -6.539)"/></g></g><g transform="translate(1134.197 28369.715)"><path d="M6.532,41.826h37.8a2.083,2.083,0,0,0,2.075-2.263A121.443,121.443,0,0,0,44.5,25.7,115.333,115.333,0,0,0,41.54,13.92a2.083,2.083,0,0,0-2-1.46H11.321a2.075,2.075,0,0,0-1.993,1.451A115.272,115.272,0,0,0,4.409,39.57a2.091,2.091,0,0,0,2.124,2.255Zm29.046-24.2a2.017,2.017,0,1,1-1.984,2.017,2.017,2.017,0,0,1,1.984-2.017Zm0,6.322a2.017,2.017,0,1,1-1.984,2.017,2.017,2.017,0,0,1,1.984-2.017Zm0,6.322a2.017,2.017,0,1,1-1.984,2.009A2.017,2.017,0,0,1,35.578,30.271ZM25.393,17.626a2.017,2.017,0,1,1-2.009,2.017,2.017,2.017,0,0,1,2.009-2.017Zm0,6.322a2.017,2.017,0,1,1-2.009,2.017,2.017,2.017,0,0,1,2.009-2.017Zm0,6.322a2.017,2.017,0,1,1-2.009,2.009A2.017,2.017,0,0,1,25.393,30.271ZM15.274,17.626a2.017,2.017,0,1,1-2.009,2.017,2.017,2.017,0,0,1,2.009-2.017Zm0,6.322a2.017,2.017,0,1,1-2.009,2.017,2.017,2.017,0,0,1,2.009-2.017Zm0,6.322a2.017,2.017,0,1,1-2.009,2.009A2.017,2.017,0,0,1,15.274,30.271Z" transform="translate(-0.792 -2.242)"/><path d="M15.31,7.659H38.583a2.46,2.46,0,0,0,2.46-2.46V2.46A2.46,2.46,0,0,0,38.583,0H15.31a2.46,2.46,0,0,0-2.46,2.46V5.174a2.46,2.46,0,0,0,2.46,2.485Zm-.82-4.576a1.55,1.55,0,0,1,1.55-1.55H37.886a1.55,1.55,0,0,1,1.55,1.55v1.5a1.55,1.55,0,0,1-1.55,1.542H16.015a1.55,1.55,0,0,1-1.55-1.542Z" transform="translate(-2.312)"/><path d="M46.947,52.56H2.329A2.329,2.329,0,0,0,0,54.889v4.338a2.329,2.329,0,0,0,2.329,2.329H46.947a2.329,2.329,0,0,0,2.329-2.329V54.889A2.329,2.329,0,0,0,46.947,52.56ZM30.924,59.391H18.352a1.73,1.73,0,1,1,0-3.452H30.924a1.73,1.73,0,1,1,0,3.452Z" transform="translate(0 -9.459)"/><path d="M75.8,24.606a1.312,1.312,0,0,0-.918-2.239H70.13V6.532a2.632,2.632,0,0,0-5.265,0V22.367H60.15a1.3,1.3,0,0,0-.927,2.239l7.38,7.323a1.353,1.353,0,0,0,1.87,0Z" transform="translate(-10.587 -0.702)"/></g><g transform="translate(1281.434 28367.109)"><path d="M6.582,42.509H45.266a2.131,2.131,0,0,0,2.123-2.316,124.272,124.272,0,0,0-1.955-14.181A118.019,118.019,0,0,0,42.4,13.954a2.131,2.131,0,0,0-2.047-1.494H11.483a2.123,2.123,0,0,0-2.039,1.485A117.956,117.956,0,0,0,4.409,40.2a2.14,2.14,0,0,0,2.173,2.308ZM36.3,17.747a2.064,2.064,0,1,1-2.031,2.064A2.064,2.064,0,0,1,36.3,17.747Zm0,6.47a2.064,2.064,0,1,1-2.031,2.064A2.064,2.064,0,0,1,36.3,24.216Zm0,6.47a2.064,2.064,0,1,1-2.031,2.056A2.064,2.064,0,0,1,36.3,30.686ZM25.882,17.747a2.064,2.064,0,1,1-2.056,2.064,2.064,2.064,0,0,1,2.056-2.064Zm0,6.47a2.064,2.064,0,1,1-2.056,2.064,2.064,2.064,0,0,1,2.056-2.064Zm0,6.47a2.064,2.064,0,1,1-2.056,2.056A2.064,2.064,0,0,1,25.882,30.686ZM15.527,17.747a2.064,2.064,0,1,1-2.056,2.064,2.064,2.064,0,0,1,2.056-2.064Zm0,6.47a2.064,2.064,0,1,1-2.056,2.064,2.064,2.064,0,0,1,2.056-2.064Zm0,6.47a2.064,2.064,0,1,1-2.056,2.056A2.064,2.064,0,0,1,15.527,30.686Z" transform="translate(-0.708 -2.004)"/><path d="M15.367,7.838H39.182A2.517,2.517,0,0,0,41.7,5.32v-2.8A2.517,2.517,0,0,0,39.182,0H15.367A2.517,2.517,0,0,0,12.85,2.517V5.295a2.517,2.517,0,0,0,2.517,2.543Zm-.839-4.682a1.586,1.586,0,0,1,1.586-1.586H38.469a1.586,1.586,0,0,1,1.586,1.586V4.691a1.586,1.586,0,0,1-1.586,1.578H16.089A1.586,1.586,0,0,1,14.5,4.691Z" transform="translate(-2.067)"/><path d="M48.041,52.56H2.383A2.383,2.383,0,0,0,0,54.943v4.439a2.383,2.383,0,0,0,2.383,2.383H48.041a2.383,2.383,0,0,0,2.383-2.383V54.943A2.383,2.383,0,0,0,48.041,52.56Zm-16.4,6.99H18.78a1.771,1.771,0,1,1,0-3.533H31.644a1.771,1.771,0,1,1,0,3.533Z" transform="translate(0 -8.455)"/><path d="M59.238,11.775a1.343,1.343,0,0,0,.94,2.274h4.85V30.27a2.7,2.7,0,0,0,5.4,0V14.05h4.825a1.334,1.334,0,0,0,.94-2.291L68.636,4.265a1.368,1.368,0,0,0-1.913,0Z" transform="translate(-9.469 -0.623)"/></g><g transform="translate(1418.789 28360.699)"><g transform="translate(0 0)"><path d="M41.7,65.6H7.725A7.734,7.734,0,0,1,0,57.875V7.725A7.734,7.734,0,0,1,7.725,0H41.7a7.734,7.734,0,0,1,7.725,7.725v50.15A7.734,7.734,0,0,1,41.7,65.6ZM7.725,4.449A3.28,3.28,0,0,0,4.449,7.725v50.15a3.28,3.28,0,0,0,3.276,3.276H41.7a3.28,3.28,0,0,0,3.276-3.276V7.725A3.28,3.28,0,0,0,41.7,4.449Z" transform="translate(0 0)"/><rect width="4.449" height="31.423" transform="translate(8.99 16.244) rotate(-89.78)"/><rect width="4.449" height="31.423" transform="translate(8.99 28.286) rotate(-89.78)"/><rect width="4.449" height="31.423" transform="translate(8.99 40.666) rotate(-89.78)"/><rect width="4.449" height="19.356" transform="translate(15.024 53.729) rotate(-89.78)"/></g></g><g transform="translate(449.989 28501)"><path d="M29.79,17.22a5.12,5.12,0,0,0-3.27,1,3.34,3.34,0,0,0-1.23,2.85v.06h2.75a1.61,1.61,0,0,1,.51-1.25,1.85,1.85,0,0,1,1.22-.43,1.76,1.76,0,0,1,1.35.51,2,2,0,0,1,.47,1.4,2.62,2.62,0,0,1-.42,1.45A5,5,0,0,1,30.09,24a6.8,6.8,0,0,0-1.56,1.54,3.87,3.87,0,0,0-.41,2H31a3.6,3.6,0,0,1,.18-1.27,2.37,2.37,0,0,1,.78-.92,6.42,6.42,0,0,0,1.81-1.75,4,4,0,0,0,.72-2.28,3.8,3.8,0,0,0-1.24-3,5,5,0,0,0-3.46-1.1Z"/><rect width="2.85" height="2.43" transform="translate(28.11 29.13)"/><path d="M30,0A30,30,0,0,0,12.31,54.22V47.94A13.23,13.23,0,0,1,23.559,34.86a12.59,12.59,0,1,1,12.751,0A13.24,13.24,0,0,1,47.56,47.94v6.38A30,30,0,0,0,30,0Z"/></g><g transform="translate(593 28497.656)"><rect width="12.707" height="3.732" transform="translate(16.136 3.611)"/><rect width="12.707" height="1.707" transform="translate(16.136 11.349)"/><rect width="12.707" height="1.563" transform="translate(16.136 16.386)"/><rect width="12.707" height="1.699" transform="translate(16.136 21.439)"/><path d="M34.062,23.881h-.9V0H10.818V23.881h-.9A9.915,9.915,0,0,0,0,33.8V60.69H44V33.8a9.915,9.915,0,0,0-9.938-9.915ZM6.9,56.616a3.3,3.3,0,1,1,3.3-3.3,3.3,3.3,0,0,1-3.3,3.3Zm5.417-55.1H31.665V31.27H12.312ZM27.007,35.8v2.42a1.206,1.206,0,0,1-1.214,1.229h0a1.206,1.206,0,0,1-1.206-1.2V35.8a1.206,1.206,0,0,1,1.206-1.206h0A1.206,1.206,0,0,1,27.007,35.8Zm-8.565,0v2.42a1.206,1.206,0,0,1-2.412,0V35.8a1.206,1.206,0,1,1,2.412,0ZM14.649,54.006a1.388,1.388,0,0,1-1.4-1.388V38.841a1.4,1.4,0,0,1,1.4-1.4h1.1v1.328a1.206,1.206,0,0,0,1.206,1.206h.561a1.206,1.206,0,0,0,1.206-1.206V37.446h5.591v1.328a1.206,1.206,0,0,0,1.206,1.206h.561a1.206,1.206,0,0,0,1.229-1.206V37.446h1.1a1.4,1.4,0,0,1,1.4,1.4V44.22a6.646,6.646,0,0,0-1.4-.334V42.627a.933.933,0,0,0-.956-.9H15.59a.933.933,0,0,0-.933.933v8.929a.926.926,0,0,0,.933.926h5.348a6.547,6.547,0,0,0,.607,1.464ZM26.931,42.794v1.062a6.524,6.524,0,0,0-1.851.425h-.1a.235.235,0,0,1-.235-.235V42.794a.235.235,0,0,1,.235-.235H26.7A.235.235,0,0,1,26.931,42.794Zm-3.74,1.517h-.432a.865.865,0,0,1,0-1.722h.463a.865.865,0,0,1,0,1.722Zm.478.759a6.829,6.829,0,0,0-.592.455h0l-.1.091h0L22.9,45.7h0l-.083.076h0l-.083.083h0l-.076.083h0l-.083.083h0l-.083.1h0c-.129.152-.25.3-.372.463h0a.22.22,0,0,1-.083-.182V45.252a.228.228,0,0,1,.228-.235Zm-2.913,6.638H19.239A.235.235,0,0,1,19,51.472v-1.3a.235.235,0,0,1,.235-.235h1.517a5.773,5.773,0,0,0-.046.759,7.214,7.214,0,0,0,.046.963ZM19.239,49.25A.235.235,0,0,1,19,49.014v-1.3a.235.235,0,0,1,.235-.235h1.7a.228.228,0,0,1,.228.235v.417a7,7,0,0,0-.326,1.07Zm1.085-2.458h-.463a.865.865,0,0,1,0-1.722h.463a.865.865,0,0,1,0,1.722Zm0-2.458h-.463a.865.865,0,0,1,0-1.722h.463a.865.865,0,0,1,0,1.722ZM17.448,49.2h-.463a.865.865,0,0,1,0-1.722h.463a.865.865,0,0,1,0,1.722Zm.842,1.631a.865.865,0,0,1-.842.827h-.463a.865.865,0,0,1,0-1.722h.463a.865.865,0,0,1,.842.9Zm-.842-4.089h-.463a.865.865,0,0,1,0-1.722h.463a.865.865,0,0,1,0,1.722Zm0-2.458h-.463a.865.865,0,0,1,0-1.722h.463a.865.865,0,0,1,0,1.722ZM27.508,56.3A5.637,5.637,0,1,1,31.5,54.649,5.644,5.644,0,0,1,27.508,56.3Z"/><path d="M34.853,61a4.423,4.423,0,1,0,4.423,4.423A4.423,4.423,0,0,0,34.853,61Zm2.329,5.31H34.853a.607.607,0,0,1-.607-.614V62.32a.614.614,0,0,1,1.221,0v2.716h1.714a.614.614,0,0,1,0,1.221Z" transform="translate(-7.345 -14.724)"/></g><g transform="translate(734 28503.535)"><circle cx="10.371" cy="10.371" r="10.371" transform="translate(4.063)"/><path d="M22.279,290.468a32.86,32.86,0,0,1-3.88-13.381l9.435-4.7a14.44,14.44,0,0,0-13.4-9.059h0A14.435,14.435,0,0,0,0,277.765v19.772a1.456,1.456,0,0,0,1.456,1.456H27.414a1.451,1.451,0,0,0,1.058-.458A32.555,32.555,0,0,1,22.279,290.468Z" transform="translate(0 -244.165)"/><path d="M299.49,366.945c-2.092-1.079-4.036-2.183-5.834-3.275-2.138,1.3-4.512,2.635-7.121,3.93-2.523,1.252-4.939,2.309-7.205,3.2a28.96,28.96,0,0,0,3.421,11.791A29.253,29.253,0,0,0,293.656,393.8a28.564,28.564,0,0,0,14.324-23C305.317,369.748,302.466,368.479,299.49,366.945Zm2.491,14.329a22.324,22.324,0,0,1-8.322,8.424A22.238,22.238,0,0,1,282.6,371.952c1.747-.69,3.613-1.505,5.56-2.475,2.013-1,3.845-2.025,5.5-3.033,1.387.844,2.888,1.7,4.5,2.528,2.3,1.183,4.5,2.163,6.55,2.977A22.153,22.153,0,0,1,301.981,381.274Z" transform="translate(-259 -337.202)"/></g><g transform="translate(860.329 28509.82)"><g transform="translate(0 0)"><path d="M62.459,0H36.5a4.158,4.158,0,0,0-3.191,1.492A4.16,4.16,0,0,0,30.122,0H4.167A4.171,4.171,0,0,0,0,4.167V39.6a4.172,4.172,0,0,0,4.167,4.167H25.738a6.786,6.786,0,0,0,6.443,4.669h2.263a6.787,6.787,0,0,0,6.44-4.669H62.459A4.172,4.172,0,0,0,66.626,39.6V4.167A4.171,4.171,0,0,0,62.459,0ZM30.074,43.119a2.536,2.536,0,0,1-.456-1.454l-.006-2.114H4.214V4.214H30.074Zm32.338-3.568h-25.4v2.107a2.546,2.546,0,0,1-.456,1.456V4.214H62.412Z" transform="translate(0 0)"/><rect width="17.042" height="3.277" transform="translate(8.623 10.45)"/><rect width="17.042" height="3.277" transform="translate(8.623 17.064)"/><rect width="17.042" height="3.277" transform="translate(8.623 23.679)"/><rect width="17.042" height="3.277" transform="translate(8.623 30.294)"/></g></g><g transform="translate(1016.276 28501.77)"><g transform="translate(0 0.035)"><path d="M26.092,24.679a15.277,15.277,0,0,0-6.284-3.8,10.914,10.914,0,1,0-9.047,0A15.291,15.291,0,0,0,0,35.486V56.2a1.532,1.532,0,0,0,1.532,1.532h8.908L12.7,30.444a4.031,4.031,0,1,1,5.178,0L20.13,57.731h8.908A1.532,1.532,0,0,0,30.569,56.2V35.486a15.237,15.237,0,0,0-4.477-10.808ZM27,32.324a.718.718,0,0,1-.506.209H22.2a.715.715,0,1,1,0-1.43h4.289A.715.715,0,0,1,27,32.324Z" transform="translate(0 -0.035)"/></g></g><g transform="translate(1134.197 28518.797)"><path d="M55.605,15.446H11.831l11.06-11.09L18.535,0,0,18.535,18.535,37.07l4.356-4.356-11.06-11.09H55.605Z"/></g><g transform="translate(869.522 28644.523)"><path d="M24.478,0A24.478,24.478,0,1,0,48.956,24.478,24.478,24.478,0,0,0,24.478,0Zm0,36.717h0a2.448,2.448,0,0,1-2.448-2.448V24.478a2.448,2.448,0,0,1,2.448-2.448h0a2.448,2.448,0,0,1,2.448,2.448v9.791A2.448,2.448,0,0,1,24.478,36.717Zm2.448-19.582h-4.9v-4.9h4.9Z"/></g><g transform="translate(1012.89 28662.992)"><g transform="translate(-8.064 -17.481)"><path d="M35.448,5.762C31.792,3.868,28.348,1.921,25.169,0c-3.762,2.292-7.948,4.636-12.531,6.915S3.974,10.968,0,12.545A50.814,50.814,0,0,0,6.014,33.276,51.344,51.344,0,0,0,25.169,52.987,50.933,50.933,0,0,0,44.151,33.792,50.47,50.47,0,0,0,50.377,12.6C45.7,10.69,40.68,8.451,35.448,5.762Zm4.385,25.169A39.25,39.25,0,0,1,25.169,45.78,39.74,39.74,0,0,1,10.4,30.56a39.316,39.316,0,0,1-4.65-15.989c3.073-1.205,6.358-2.649,9.776-4.345s6.769-3.6,9.644-5.352q3.683,2.239,7.948,4.4c4.04,2.08,7.948,3.8,11.525,5.3a39.2,39.2,0,0,1-4.809,16.386Z"/><path d="M20.26,17.639a5.14,5.14,0,1,0-5.14-5.14,5.14,5.14,0,0,0,5.14,5.14Z" transform="translate(4.909 2.39)"/><path d="M20.087,18.615l.2-.2-.159-1.947a1.219,1.219,0,0,0,.45-.954.57.57,0,0,0,0-.146,5.3,5.3,0,0,1-2.477,0v.146a1.325,1.325,0,0,0,.45.954l-.159,1.947.2.2a1.1,1.1,0,0,0,1.5,0Z" transform="translate(5.876 4.99)"/><path d="M24.734,15.42l-2.98,2.98.57,6.782L20.76,27.355l-1.537-2.172L19.78,18.4l-2.994-2.98a7.193,7.193,0,0,0-3.206,6.067V31.25a.729.729,0,0,0,.729.715H27.264a.715.715,0,0,0,.715-.715V21.487a7.219,7.219,0,0,0-3.245-6.067Zm1.974,4.08v1.6a.344.344,0,0,1-.331.344H23.727A.344.344,0,0,1,23.4,21.1V19.5a.344.344,0,0,1,.331-.344h2.649A.344.344,0,0,1,26.708,19.5Z" transform="translate(4.409 5.006)"/></g></g><g transform="translate(1147.657 28642.406)"><g transform="translate(0 0)"><path d="M4.769,35.566H40.434a1.98,1.98,0,0,0,1.968-2.14,113.94,113.94,0,0,0-1.783-13.1Q39.5,14.728,37.827,9.26a1.968,1.968,0,0,0-1.894-1.39H9.295A1.968,1.968,0,0,0,7.413,9.26,109.221,109.221,0,0,0,2.8,33.438a1.98,1.98,0,0,0,1.968,2.128Zm27.438-22.85a1.906,1.906,0,1,1-1.894,1.906,1.906,1.906,0,0,1,1.894-1.906Zm0,5.977a1.894,1.894,0,1,1-1.894,1.894,1.894,1.894,0,0,1,1.894-1.894Zm0,5.965a1.906,1.906,0,1,1-1.894,1.894,1.906,1.906,0,0,1,1.894-1.894Zm-9.58-11.942a1.906,1.906,0,1,1-1.906,1.906,1.906,1.906,0,0,1,1.906-1.906Zm0,5.977a1.894,1.894,0,1,1-1.347.55,1.894,1.894,0,0,1,1.347-.55Zm0,5.965a1.894,1.894,0,1,1-1.347.55,1.906,1.906,0,0,1,1.347-.55ZM13.033,12.716a1.906,1.906,0,1,1-1.753,1.9,1.906,1.906,0,0,1,1.753-1.9Zm0,5.977a1.894,1.894,0,1,1-1.894,1.894,1.894,1.894,0,0,1,1.894-1.894Zm0,5.965a1.906,1.906,0,1,1-1.894,1.894,1.906,1.906,0,0,1,1.894-1.894Z" transform="translate(0.642 1.809)"/><path d="M10.444,7.231H32.4a2.337,2.337,0,0,0,2.349-2.312V2.349A2.349,2.349,0,0,0,32.4,0H10.444A2.361,2.361,0,0,0,8.07,2.349v2.57a2.349,2.349,0,0,0,2.374,2.312ZM9.62,2.915a1.463,1.463,0,0,1,1.464-1.463H31.732A1.464,1.464,0,0,1,33.2,2.915V4.329a1.463,1.463,0,0,1-1.463,1.463H11.083A1.463,1.463,0,0,1,9.62,4.329Z" transform="translate(1.855 0)"/><path d="M44.274,33.09H2.2a2.2,2.2,0,0,0-2.2,2.2v4.1a2.2,2.2,0,0,0,2.2,2.2H44.274a2.2,2.2,0,0,0,2.2-2.2v-4.1a2.2,2.2,0,0,0-2.2-2.2ZM29.147,39.534H17.328a1.623,1.623,0,0,1,0-3.247H29.2a1.623,1.623,0,1,1,0,3.247Z" transform="translate(0 7.605)"/></g></g><g transform="translate(1280.628 28646.008)"><g transform="translate(0)"><path d="M43.071,0a1.318,1.318,0,0,0-1.226,1.318v17.7H27.821a1.186,1.186,0,0,0-1.12,1.239V40.03a1.318,1.318,0,0,0,1.226,1.318h0a1.318,1.318,0,0,0,1.239-1.318V28.536h12.68V40.03a1.239,1.239,0,1,0,2.465,0V1.318A1.318,1.318,0,0,0,43.071,0Z" transform="translate(8.492)"/><path d="M1.226,0A1.318,1.318,0,0,1,2.465,1.318v17.7H16.489a1.186,1.186,0,0,1,1.12,1.239V40.03a1.318,1.318,0,0,1-1.226,1.318h0a1.318,1.318,0,0,1-1.239-1.318V28.536H2.465V40.03a1.318,1.318,0,0,1-1.239,1.318A1.318,1.318,0,0,1,0,40.03V1.318A1.318,1.318,0,0,1,1.226,0Z" transform="translate(0)"/><path d="M39.816,4.39H8.539A1.99,1.99,0,0,0,6.772,6.512,1.99,1.99,0,0,0,8.539,8.687H22.326V36.722H19.254a1.674,1.674,0,0,0,0,3.282H29.1a1.674,1.674,0,0,0,0-3.282H26.016V8.687h13.8a1.99,1.99,0,0,0,1.766-2.175A1.99,1.99,0,0,0,39.816,4.39Z" transform="translate(2.151 1.396)"/></g></g><g transform="translate(1419.456 28644.07)"><g transform="translate(-0.003)"><path d="M43.851,24.825a9.248,9.248,0,0,1,6.91,3.219,8.188,8.188,0,0,0-5.722-7.153,7.663,7.663,0,0,0-.894-.217l-.294-.92c-.192-1.1-.434-2.286-.779-3.525a37.808,37.808,0,0,0-2.2-6.106.69.69,0,0,0,.46-.83L40.99,7.913a1.724,1.724,0,0,0,1.086.409V4.286A1.865,1.865,0,0,0,40.4,5.423l-.281-1.2a.639.639,0,0,0-1.047-.358L36.6,6.138H33.032a.307.307,0,0,0-.294-.268h-4.5a.294.294,0,0,0-.294.307V7.747a.294.294,0,0,0,.294.307h4.5a.319.319,0,0,0,.294-.268h2.312l.307,2.682a.651.651,0,0,0,.766.588h.2L32.7,32.962H24.9v-4.33a8.571,8.571,0,0,0-8.226-8.877H5.825A6.08,6.08,0,0,0,0,26.026v6.387a9.669,9.669,0,0,1,9.171-7.664c5.263,0,9.529,4.6,9.529,10.219a10.589,10.589,0,0,1-.179,1.916.817.817,0,0,0,.23.077H34.488a11.5,11.5,0,0,1-.192-1.993,9.925,9.925,0,0,1,9.554-10.142Z" transform="translate(0.003 1.028)"/><path d="M8.753,23.35a7.536,7.536,0,0,0-7.242,7.792,7.536,7.536,0,0,0,7.242,7.8A7.536,7.536,0,0,0,16,31.142,7.536,7.536,0,0,0,8.753,23.35Zm0,11.5a3.743,3.743,0,0,1,0-7.472,3.743,3.743,0,0,1,0,7.472Z" transform="translate(0.421 6.475)"/><path d="M35.9,23.35a7.536,7.536,0,0,0-7.242,7.792,7.536,7.536,0,0,0,7.242,7.8,7.536,7.536,0,0,0,7.242-7.8A7.536,7.536,0,0,0,35.9,23.35Zm0,11.5a3.743,3.743,0,1,1,3.41-3.7,3.615,3.615,0,0,1-3.41,3.743Z" transform="translate(7.95 6.475)"/><path d="M2.159,18.112H18.406a2.159,2.159,0,0,0,2.159-2.159V2.159A2.159,2.159,0,0,0,18.406,0H2.159A2.159,2.159,0,0,0,0,2.159V15.954a2.159,2.159,0,0,0,2.159,2.159ZM5.991,7.472l2.184-.307a.69.69,0,0,0,.5-.358l.971-1.993a.651.651,0,0,1,1.175,0L11.8,6.808a.664.664,0,0,0,.485.358l2.2.307A.664.664,0,0,1,14.842,8.6L13.31,10.142a.639.639,0,0,0-.192.575L13.5,12.9a.664.664,0,0,1-.958.69l-1.954-1.035a.651.651,0,0,0-.613,0L8.022,13.591a.651.651,0,0,1-.945-.69l.37-2.184a.639.639,0,0,0-.192-.575L5.671,8.6a.664.664,0,0,1,.37-1.124Z" transform="translate(0.003)"/></g></g><g transform="translate(454 28787.824)"><g transform="translate(0 0.006)"><path d="M44.712,12.7a3.021,3.021,0,0,0-3.227-2.538H35.722a12.809,12.809,0,0,0-25.063,0H4.943A3.021,3.021,0,0,0,1.716,12.7L0,45.569a2.961,2.961,0,0,0,3.227,2.767H13.45V36.469h-.532a2.695,2.695,0,0,1-2.659-2.743V21.521a.689.689,0,1,1,1.366,0v9.208a.611.611,0,1,0,1.221,0V21.521a.689.689,0,1,1,1.378,0v9.426a.628.628,0,0,0,.58.411.653.653,0,0,0,.64-.653V21.521a.689.689,0,1,1,1.366,0v9.172a.653.653,0,1,0,1.293,0V21.521a.689.689,0,1,1,1.366,0V33.726a2.695,2.695,0,0,1-2.659,2.743h-.532V48.336H29.232V37.11c-2.344-.725-4.06-3.251-4.06-6.924,0-4.387,2.417-9.365,5.474-9.365s5.486,4.979,5.486,9.39c0,3.625-1.728,6.2-4.06,6.924v11.2H43.153a2.949,2.949,0,0,0,3.227-2.755ZM14.38,10.162a9.245,9.245,0,0,1,17.728,0Z" transform="translate(0 -0.006)"/></g></g><g transform="translate(1283.85 28505.008)"><path d="M38.009,30.044l-5.423-5.423L18.11,39.083V44.52h5.451Zm4.2-4.274a1.4,1.4,0,0,0,0-2.046l-3.237-3.377a1.4,1.4,0,0,0-2.046,0l-2.8,2.8,5.423,5.423Z" transform="translate(7.269 7.988)"/><path d="M30.23,11.06H24.443A4.723,4.723,0,0,1,19.72,6.337V1.25h3.489V6.337A1.233,1.233,0,0,0,24.443,7.57H30.23Z" transform="translate(7.915 0.502)"/><rect width="24.58" height="2.677" transform="translate(7.651 15.331)"/><rect width="24.58" height="2.677" transform="translate(7.651 22.716)"/><rect width="24.58" height="2.677" transform="translate(7.651 30.115)"/><path d="M19.857,52.313H4.723a1.219,1.219,0,0,1-1.233-1.219V4.723A1.219,1.219,0,0,1,4.723,3.489H28.7l7.736,7.091V30.2l3.5-3.293V9.053L30.059,0H4.723A4.723,4.723,0,0,0,0,4.723V51.094a4.723,4.723,0,0,0,4.723,4.723H19.857Z"/><path d="M22.84,41.957h3.167a4.723,4.723,0,0,0,4.723-4.723v-2.7Z" transform="translate(9.167 13.859)"/><path d="M26.172,26.98H5.46v2.677H23.327Z" transform="translate(2.191 10.829)"/></g><g transform="translate(450 28645)"><rect width="23.1" height="23.1" rx="1.96"/><rect width="23.1" height="23.1" rx="1.96" transform="translate(24.9 24.9)"/><path d="M15.336,32.934a6.708,6.708,0,0,1-6.708-6.708h3.348L7.512,21.75,3,26.226H6.384a8.971,8.971,0,0,0,13.752,7.56L18.5,32.154a6.552,6.552,0,0,1-3.168.78Z" transform="translate(0.6 4.35)"/><path d="M27.52,9.3a6.708,6.708,0,0,1,6.708,6.708H30.88l4.464,4.476,4.512-4.476H36.472A8.971,8.971,0,0,0,22.72,8.45l1.632,1.632A6.552,6.552,0,0,1,27.52,9.3Z" transform="translate(4.544 1.414)"/></g><g transform="translate(587.292 28639.164)"><g transform="translate(0.005 0)"><path d="M48.191,20c-3.159-1.545-14.07,1.392-14.07,1.392-2.853.752-4.634,1.28-6.541,1.934s-3.451,1.253-4.634,1.74A3.618,3.618,0,0,1,20.4,23.892a3.577,3.577,0,0,1-.515-1,6.36,6.36,0,0,0-3.131-3.284c-1.127-.473-2.644-.529-2.895,0s.306.988.738,1.392a7.793,7.793,0,0,1,1.934,1.392,1.754,1.754,0,0,1,.473.7,2.1,2.1,0,0,1-.111,1.545,2.394,2.394,0,0,1-1.016,1.086l-2.435,1.7,4.885,8.127a26.707,26.707,0,0,0,5.567-2.491,26.442,26.442,0,0,0,6.958-6.04A15.156,15.156,0,0,1,33.522,25.1a15.851,15.851,0,0,1,3.187-1.392,41.263,41.263,0,0,1,8.239-2.088,32.483,32.483,0,0,1,3.3-.348c.237,0,.765-.209.793-.473S48.455,20.121,48.191,20Z" transform="translate(5.258 7.532)"/><rect width="13.917" height="13.291" transform="translate(0 44.158) rotate(-30)"/><path d="M10.37,26.782l5.678,9.867,1.921-1.141L12.235,25.78Z" transform="translate(4.056 10.098)"/><path d="M50.629,21.293H49.376A19.275,19.275,0,0,0,32.023,2.116a.793.793,0,0,0,0-.181,1.934,1.934,0,1,0-3.869,0v.181A19.275,19.275,0,0,0,10.812,21.293H9.574a.863.863,0,1,0,0,1.712H50.629a.863.863,0,0,0,0-1.712Z" transform="translate(3.363 0)"/></g></g><g transform="translate(725.319 28639.32)"><g transform="translate(0)"><rect width="15.045" height="4.263" rx="1.05" transform="translate(20.152 48.552)"/><path d="M15.41,38.15h2.062V40a.706.706,0,0,1-.706.706h-.651A.706.706,0,0,1,15.41,40V38.15Z" transform="translate(5.918 14.651)"/><path d="M23.1,38.15h2.062V40a.706.706,0,0,1-.706.706h-.651A.706.706,0,0,1,23.1,40Z" transform="translate(8.872 14.651)"/><path d="M29.124,39.435a56.566,56.566,0,0,1-7.072.443,55.365,55.365,0,0,1-6.92-.443.5.5,0,1,1,0-.983c2.159.194,4.512.332,7.059.332s4.858-.138,7-.332a.5.5,0,1,1,0,.983Z" transform="translate(5.588 14.765)"/><rect width="15.045" height="4.263" rx="1.05" transform="translate(52.815 20.152) rotate(90)"/><path d="M.706,0h.651a.706.706,0,0,1,.706.706V2.56H0V.706A.706.706,0,0,1,.706,0Z" transform="translate(55.362 21.328) rotate(90)"/><path d="M.706,0h.651a.706.706,0,0,1,.706.706V2.56H0V.706A.706.706,0,0,1,.706,0Z" transform="translate(55.362 31.972) rotate(90)"/><path d="M39.435,29.112a56.566,56.566,0,0,0,.443-7.031,55.365,55.365,0,0,0-.443-6.92.5.5,0,1,0-.983,0c.194,2.159.332,4.512.332,7.059s-.138,4.858-.332,7a.5.5,0,1,0,.983,0Z" transform="translate(14.765 5.6)"/><rect width="15.045" height="4.263" rx="1.05" transform="translate(2.547 35.196) rotate(-90)"/><path d="M.706,0h.651a.706.706,0,0,1,.706.706V2.56H0V.706A.706.706,0,0,1,.706,0Z" transform="translate(0 34.034) rotate(-90)"/><path d="M.706,0h.651a.706.706,0,0,1,.706.706V2.56H0V.706A.706.706,0,0,1,.706,0Z" transform="translate(0 23.39) rotate(-90)"/><path d="M.963,15.089A56.566,56.566,0,0,0,.52,22.12a55.362,55.362,0,0,0,.443,6.92.491.491,0,1,0,.983,0c-.194-2.159-.332-4.512-.332-7.059s.138-4.858.332-7a.5.5,0,1,0-.983.111Z" transform="translate(0.2 5.561)"/><rect width="15.045" height="4.263" rx="1.05" transform="translate(20.152 2.56)"/><path d="M16.116,0h.651a.706.706,0,0,1,.706.706V2.56H15.41V.706A.706.706,0,0,1,16.116,0Z" transform="translate(5.918)"/><path d="M23.806,0h.651a.706.706,0,0,1,.706.706V2.56H23.1V.706A.706.706,0,0,1,23.806,0Z" transform="translate(8.872)"/><path d="M29.089.963A56.566,56.566,0,0,0,22.059.52a55.362,55.362,0,0,0-6.92.443.491.491,0,1,0,0,.983c2.159-.194,4.512-.332,7.059-.332s4.858.138,7,.332a.5.5,0,1,0-.111-.983Z" transform="translate(5.622 0.2)"/><path d="M41.023,34.171V11.722A4.872,4.872,0,0,0,36.165,6.85H13.716a1.066,1.066,0,0,0-.761,1.813l26.3,26.3a1.052,1.052,0,0,0,1.772-.789Z" transform="translate(4.858 2.631)"/><path d="M6.86,13.714V36.149a4.886,4.886,0,0,0,4.872,4.872H34.153a1.066,1.066,0,0,0,.761-1.813l-26.3-26.3a1.066,1.066,0,0,0-1.758.8Z" transform="translate(2.635 4.86)"/></g></g><g transform="translate(1426.897 28515.152)"><path d="M38.4,33.809,23.783,19.2,38.4,4.586,33.809,0,19.2,14.612,4.586,0,0,4.586,14.612,19.2,0,33.809,4.586,38.4,19.2,23.783,33.809,38.4Z"/></g><g transform="translate(600.495 28787.688)"><g transform="translate(-0.001)"><path d="M113.375,144.268c-5.076-1.319-6.709-2.684-6.709-4.808,0-2.438,2.259-4.137,6.038-4.137,3.981,0,5.457,1.9,5.591,4.7h4.942a8.916,8.916,0,0,0-7.179-8.52v-4.9H109.35v4.831c-4.338.939-7.827,3.757-7.827,8.073,0,5.166,4.272,7.738,10.511,9.236,5.591,1.342,6.709,3.31,6.709,5.39,0,1.543-1.1,4-6.038,4-4.6,0-6.418-2.058-6.664-4.7h-4.92c.269,4.9,3.936,7.648,8.23,8.565v4.853h6.709v-4.807c4.361-.826,7.827-3.355,7.827-7.939C123.886,147.757,118.452,145.588,113.375,144.268Z" transform="translate(-95.151 -119.127)"/><path d="M396.759,3.164,398.586,0,389.85,2.34l2.34,8.736,1.872-3.242c3.955,2.283,5.992,5.146,6.371,9.056C401.929,12.475,401.841,7.151,396.759,3.164Z" transform="translate(-366.839)"/><path d="M3.076,638.151l-2.349,2.8,9.007-.788-.788-9.007-2.407,2.868c-3.5-2.935-5-6.109-4.7-10.023C-.4,628.083-1.235,633.342,3.076,638.151Z" transform="translate(0.001 -587.169)"/></g></g><g transform="translate(732.333 28788.516)"><g transform="translate(0)"><path d="M32.334,51.3h-28A4.341,4.341,0,0,1,0,46.966V4.336A4.341,4.341,0,0,1,4.336,0h23.3L36.67,8.316V19.548H33.458V9.725L26.381,3.212H4.336A1.124,1.124,0,0,0,3.212,4.336v42.63A1.124,1.124,0,0,0,4.336,48.09h28a1.124,1.124,0,0,0,1.124-1.124H36.67A4.341,4.341,0,0,1,32.334,51.3Z" transform="translate(0)"/><path d="M484.163,39.02h-5.327a4.341,4.341,0,0,1-4.336-4.336V30h3.212v4.684a1.124,1.124,0,0,0,1.124,1.124h5.327Z" transform="translate(-449.099 -28.394)"/><path d="M291.232,395.293h-1.374l-.487-.469a11.33,11.33,0,1,0-1.217,1.216l.469.487V397.9l8.693,8.676,2.59-2.59Zm-10.431,0a7.813,7.813,0,1,1,5.535-2.288A7.823,7.823,0,0,1,280.8,395.293Z" transform="translate(-255.073 -356.033)"/><path d="M138.655,390.17H131.5v2.462h5.309A15.7,15.7,0,0,1,138.655,390.17Z" transform="translate(-124.46 -369.283)"/><path d="M135.011,517.17H131.5v2.463h3.11A15.6,15.6,0,0,1,135.011,517.17Z" transform="translate(-124.46 -489.485)"/><path d="M134.909,649.17H131.5v2.463h4.159A15.506,15.506,0,0,1,134.909,649.17Z" transform="translate(-124.46 -614.418)"/><path d="M150.188,264.888a15.657,15.657,0,0,1,3.9.491V263.17H131.5v2.463h13.911A15.618,15.618,0,0,1,150.188,264.888Z" transform="translate(-124.46 -249.082)"/></g></g><g transform="translate(873.776 28793.777)"><g transform="translate(0)"><path d="M34.547,0H5.9A5.9,5.9,0,0,0,0,5.9V34.547a5.9,5.9,0,0,0,5.9,5.9H34.547a5.9,5.9,0,0,0,5.9-5.9V5.9A5.9,5.9,0,0,0,34.547,0Zm1.516,31.47a4.592,4.592,0,0,1-4.592,4.592H8.977A4.592,4.592,0,0,1,4.385,31.47V8.977A4.592,4.592,0,0,1,8.977,4.385H31.47a4.592,4.592,0,0,1,4.592,4.592Z"/><path d="M152,214.43c3.488-4.883,8.372-7.116,15.348-7.116v5.721l9.767-9.767-9.767-9.767v5.581C157.581,200.476,153.4,207.453,152,214.43Z" transform="translate(-144.334 -183.741)"/></g></g><g transform="translate(1286.338 28792.777)"><g transform="translate(0 0)"><path d="M2.262,40.724h36.2a2.262,2.262,0,0,0,2.262-2.262h0A2.262,2.262,0,0,0,38.462,36.2H2.262A2.262,2.262,0,0,0,0,38.462H0A2.262,2.262,0,0,0,2.262,40.724Zm13.575-9.05H38.462a2.262,2.262,0,0,0,2.262-2.262h0a2.262,2.262,0,0,0-2.262-2.262H15.837a2.262,2.262,0,0,0-2.262,2.262h0A2.262,2.262,0,0,0,15.837,31.675ZM2.262,22.625h36.2a2.262,2.262,0,0,0,2.262-2.262h0A2.262,2.262,0,0,0,38.462,18.1H2.262A2.262,2.262,0,0,0,0,20.362H0A2.262,2.262,0,0,0,2.262,22.625Zm13.575-9.05H38.462a2.262,2.262,0,0,0,2.262-2.262h0A2.262,2.262,0,0,0,38.462,9.05H15.837a2.262,2.262,0,0,0-2.262,2.262h0A2.262,2.262,0,0,0,15.837,13.575ZM0,2.262H0A2.262,2.262,0,0,0,2.262,4.525h36.2a2.262,2.262,0,0,0,2.262-2.262h0A2.262,2.262,0,0,0,38.462,0H2.262A2.262,2.262,0,0,0,0,2.262Z" transform="translate(0)"/></g></g><g transform="translate(1150.305 28792.777)"><g transform="translate(0)"><path d="M9.05,29.412h0a2.262,2.262,0,0,0,2.262,2.262h18.1a2.262,2.262,0,0,0,2.262-2.262h0a2.262,2.262,0,0,0-2.262-2.262h-18.1A2.262,2.262,0,0,0,9.05,29.412ZM2.262,40.724h36.2a2.262,2.262,0,0,0,2.262-2.262h0A2.262,2.262,0,0,0,38.462,36.2H2.262A2.262,2.262,0,0,0,0,38.462H0A2.262,2.262,0,0,0,2.262,40.724Zm0-18.1h36.2a2.262,2.262,0,0,0,2.262-2.262h0A2.262,2.262,0,0,0,38.462,18.1H2.262A2.262,2.262,0,0,0,0,20.362H0A2.262,2.262,0,0,0,2.262,22.625ZM9.05,11.312h0a2.262,2.262,0,0,0,2.262,2.262h18.1a2.262,2.262,0,0,0,2.262-2.262h0A2.262,2.262,0,0,0,29.412,9.05h-18.1A2.262,2.262,0,0,0,9.05,11.312ZM0,2.262H0A2.262,2.262,0,0,0,2.262,4.525h36.2a2.262,2.262,0,0,0,2.262-2.262h0A2.262,2.262,0,0,0,38.462,0H2.262A2.262,2.262,0,0,0,0,2.262Z" transform="translate(0)"/></g></g><g transform="translate(1006.937 28792.777)"><g transform="translate(0)"><path d="M24.887,27.15H2.262A2.262,2.262,0,0,0,0,29.412H0a2.262,2.262,0,0,0,2.262,2.262H24.887a2.262,2.262,0,0,0,2.262-2.262h0A2.262,2.262,0,0,0,24.887,27.15Zm0-18.1H2.262A2.262,2.262,0,0,0,0,11.312H0a2.262,2.262,0,0,0,2.262,2.262H24.887a2.262,2.262,0,0,0,2.262-2.262h0A2.262,2.262,0,0,0,24.887,9.05ZM2.262,22.625h36.2a2.262,2.262,0,0,0,2.262-2.262h0A2.262,2.262,0,0,0,38.462,18.1H2.262A2.262,2.262,0,0,0,0,20.362H0A2.262,2.262,0,0,0,2.262,22.625Zm0,18.1h36.2a2.262,2.262,0,0,0,2.262-2.262h0A2.262,2.262,0,0,0,38.462,36.2H2.262A2.262,2.262,0,0,0,0,38.462H0A2.262,2.262,0,0,0,2.262,40.724ZM0,2.262H0A2.262,2.262,0,0,0,2.262,4.525h36.2a2.262,2.262,0,0,0,2.262-2.262h0A2.262,2.262,0,0,0,38.462,0H2.262A2.262,2.262,0,0,0,0,2.262Z" transform="translate(0)"/></g></g><g transform="translate(1417.203 28793.371)"><g transform="translate(0)"><path d="M37.556,59.589H5.037A5.042,5.042,0,0,1,0,54.552V5.037A5.043,5.043,0,0,1,5.037,0H32.1l10.5,9.659V54.553a5.042,5.042,0,0,1-5.037,5.036ZM5.037,3.731A1.306,1.306,0,0,0,3.731,5.037V54.552a1.306,1.306,0,0,0,1.306,1.306h32.52a1.306,1.306,0,0,0,1.306-1.306V11.3l-8.22-7.565Z" transform="translate(0)"/><path d="M485.723,40.477h-6.187a5.043,5.043,0,0,1-5.036-5.037V30h3.731v5.441a1.306,1.306,0,0,0,1.306,1.306h6.187Z" transform="translate(-444.996 -28.135)"/><rect width="26.24" height="2.86" transform="translate(8.177 16.364)"/><rect width="26.24" height="2.86" transform="translate(8.177 24.261)"/><rect width="26.24" height="2.86" transform="translate(8.177 32.157)"/><rect width="26.24" height="2.86" transform="translate(8.177 40.365)"/></g></g><g transform="translate(452.288 28930.625)"><g transform="translate(0 0)"><path d="M55.467,25.159a.978.978,0,0,0-1.381,0L52.263,26.99V16.7a.978.978,0,0,0-.978-.978h0a.978.978,0,0,0-.965.978V26.99l-1.848-1.84a.975.975,0,1,0-1.381,1.377L50.6,30.044a.982.982,0,0,0,1.381,0l3.482-3.508a.969.969,0,0,0,0-1.377Z" transform="translate(-26.734 -8.978)"/><path d="M51.341,28.09h-15.1a2.573,2.573,0,0,1-2.547-2.543v-23A2.573,2.573,0,0,1,36.237,0H48.884l5,4.6V25.547A2.547,2.547,0,0,1,51.341,28.09ZM36.237,2.144a.4.4,0,0,0-.4.4v23a.4.4,0,0,0,.4.4h15.1a.4.4,0,0,0,.4-.4V5.541l-3.692-3.4Z" transform="translate(-19.242 0)"/><path d="M71.066,7.573H68.193A2.547,2.547,0,0,1,65.65,5.026V2.5h2.144V5.026a.4.4,0,0,0,.4.4h2.873Z" transform="translate(-37.496 -1.428)"/><path d="M46.951,80.25H2.144A2.144,2.144,0,0,0,0,82.394v8.791A2.144,2.144,0,0,0,2.144,93.33H46.951a2.144,2.144,0,0,0,2.144-2.144V82.394a2.144,2.144,0,0,0-2.144-2.144Zm-22.4,9.113A2.573,2.573,0,1,1,27.12,86.79,2.573,2.573,0,0,1,24.547,89.363Z" transform="translate(0 -45.835)"/><path d="M48.1,54.76H38.546v3.354A4.289,4.289,0,0,1,34.257,62.4H16.284A4.289,4.289,0,0,1,12,58.114V54.76H2.441L1.27,63.689H49.275Z" transform="translate(-0.725 -31.276)"/></g></g><g transform="translate(590.972 28934.641)"><g transform="translate(-0.068 -0.021)"><path d="M32.034,21.713a4.829,4.829,0,1,0-4.825,4.829A4.829,4.829,0,0,0,32.034,21.713ZM27.833-.013A21.742,21.742,0,0,0,5.49,21.713H1.172a1.178,1.178,0,0,0-.848,2.053L7.057,30.5a1.178,1.178,0,0,0,1.716,0l6.733-6.733a1.209,1.209,0,0,0-.872-2.053H10.315A16.882,16.882,0,0,1,27.441,4.824a17.1,17.1,0,0,1,16.654,16.65A16.882,16.882,0,0,1,18.905,36.412a2.356,2.356,0,0,0-2.85.436h0a2.411,2.411,0,0,0,.483,3.789A21.726,21.726,0,0,0,48.923,21.089,21.983,21.983,0,0,0,27.833-.013Z" transform="translate(0.068 0.021)"/></g></g><g transform="translate(727.496 28938.336)"><g transform="translate(0.053 0.007)"><path d="M42.732,13.333A16.536,16.536,0,0,0,11.838,8.919a13.236,13.236,0,0,0,1.433,26.393H41.959a11,11,0,0,0,.773-21.979ZM30.925,19.865v8.827H22.1V19.865h-6.62L25.738,9.6a1.093,1.093,0,0,1,1.568,0l10.239,10.26Z" transform="translate(-0.053 -0.007)"/></g></g><g transform="translate(873.776 28934.777)"><path d="M36.91,39.917H3.007A3.007,3.007,0,0,1,0,36.91V3.007A3.007,3.007,0,0,1,3.007,0h33.9a3.007,3.007,0,0,1,3.007,3.007v33.9A3.007,3.007,0,0,1,36.91,39.917ZM3.007,2.673a.334.334,0,0,0-.334.334v33.9a.334.334,0,0,0,.334.334h33.9a.334.334,0,0,0,.334-.334V3.007a.334.334,0,0,0-.334-.334Z"/><rect width="20.943" height="20.943" rx="5" transform="translate(0.929 18.046)"/><path d="M74.771,28.319A1.069,1.069,0,0,0,73.7,27.25H70.845l4.811-4.811,1.774-1.774,1.413-1.417a1.069,1.069,0,0,0,0-1.517h0a1.069,1.069,0,0,0-1.517,0l-1.417,1.417-1.768,1.774L69.328,25.73V22.866a1.069,1.069,0,1,0-2.138,0v5.453a1.069,1.069,0,0,0,1.069,1.069H73.7A1.069,1.069,0,0,0,74.771,28.319Z" transform="translate(-44.74 -11.597)"/></g><g transform="translate(1007.089 28932.727)"><g transform="translate(0 0)"><rect width="24.279" height="7.327" rx="3" transform="translate(16.294 18.101)"/><rect width="24.279" height="7.327" rx="3" transform="translate(16.294 4.376)"/><path d="M11.263,0H1.313A1.31,1.31,0,0,0,0,1.313v40.9a1.313,1.313,0,0,0,1.313,1.328h9.95a1.313,1.313,0,0,0,1.331-1.328V1.313A1.31,1.31,0,0,0,11.263,0ZM9.953,38.058a1.317,1.317,0,0,1-1.317,1.313h-4.7a1.317,1.317,0,0,1-1.313-1.313v-4.7a1.313,1.313,0,0,1,1.313-1.31h4.7a1.313,1.313,0,0,1,1.313,1.31Zm0-13.944a1.313,1.313,0,0,1-1.317,1.313h-4.7A1.313,1.313,0,0,1,2.623,24.11v-4.7A1.313,1.313,0,0,1,3.937,18.1h4.7A1.313,1.313,0,0,1,9.95,19.41Zm0-13.725A1.313,1.313,0,0,1,8.636,11.7h-4.7a1.313,1.313,0,0,1-1.313-1.313v-4.7a1.313,1.313,0,0,1,1.313-1.31h4.7A1.313,1.313,0,0,1,9.95,5.685Z" transform="translate(0 0)"/><rect width="24.279" height="7.327" rx="3" transform="translate(16.294 32.045)"/></g></g><g transform="translate(1146.824 28931.035)"><path d="M23.966,0A23.966,23.966,0,1,0,47.932,23.966,23.966,23.966,0,0,0,23.966,0Zm0,44.156a20.19,20.19,0,1,1,20.19-20.19A20.19,20.19,0,0,1,23.966,44.156Z"/><path d="M158.595,142.08a16.515,16.515,0,1,0,16.515,16.515A16.515,16.515,0,0,0,158.595,142.08Zm4.642,24.683a5.859,5.859,0,0,1-3.623,1.543v2.458H157.6v-2.446a5.861,5.861,0,0,1-3.611-1.606,5.251,5.251,0,0,1-1.357-4.038l.026-.064h2.432a3.5,3.5,0,0,0,.993,2.81,3.649,3.649,0,0,0,2.439.839,3.87,3.87,0,0,0,2.58-.787,2.707,2.707,0,0,0,.928-2.183,2.673,2.673,0,0,0-.82-1.959,7.066,7.066,0,0,0-2.689-1.459,9.283,9.283,0,0,1-3.9-2.087A4.68,4.68,0,0,1,153.3,154.3a4.924,4.924,0,0,1,1.21-3.444,5.207,5.207,0,0,1,3.335-1.6v-2.832h2.023v2.842A4.911,4.911,0,0,1,163.2,151.1a6.516,6.516,0,0,1,1.184,4.1H161.88a4.577,4.577,0,0,0-.807-2.817,2.64,2.64,0,0,0-2.241-1.075,2.683,2.683,0,0,0-3.009,2.944,2.706,2.706,0,0,0,.775,2.01,7.572,7.572,0,0,0,2.8,1.459,9.7,9.7,0,0,1,3.892,2.106,4.607,4.607,0,0,1,1.268,3.427A4.691,4.691,0,0,1,163.237,166.763Z" transform="translate(-134.629 -134.629)"/></g><g transform="translate(1287.824 28930.984)"><g transform="translate(0 2)"><path d="M14.892,41.251H3.716a.96.96,0,0,1-.96-.969V3.716a.96.96,0,0,1,.96-.96H21.788V5.4a3.725,3.725,0,0,0,3.752,3.716h3.2v4.1a16.856,16.856,0,0,1,2.757.352V7.133L23.7,0H3.716A3.716,3.716,0,0,0,0,3.716V40.282a3.725,3.725,0,0,0,3.716,3.752H17.9a17.182,17.182,0,0,1-3-2.783ZM24.58,4.518l2,1.841H25.539a.96.96,0,0,1-.96-.96Z" transform="translate(0)"/><path d="M29.733,18.55A13.853,13.853,0,1,0,43.586,32.394,13.853,13.853,0,0,0,29.733,18.55Zm0,24.7a10.85,10.85,0,1,1,7.681-3.178A10.859,10.859,0,0,1,29.733,43.253Z" transform="translate(-1.895 -2.214)"/><path d="M37.123,32.2H32.9V25.547a1.5,1.5,0,1,0-2.994,0v8.146a1.5,1.5,0,0,0,1.5,1.5h5.716a1.5,1.5,0,1,0,0-2.994Z" transform="translate(-3.569 -2.87)"/><path d="M11.616,34.22v-.37H6.86v2.114H11.7a16.284,16.284,0,0,1-.088-1.744Z" transform="translate(-0.818 -4.039)"/><path d="M12.884,27H6.86v2.1h5.328a16.83,16.83,0,0,1,.7-2.1Z" transform="translate(-0.818 -3.222)"/><path d="M16.847,20.34H6.86v2.114h8.129a17.613,17.613,0,0,1,1.858-2.114Z" transform="translate(-0.818 -2.427)"/><path d="M26.235,14.971V13.72H6.86v2.114H22.835a16.5,16.5,0,0,1,3.4-.863Z" transform="translate(-0.818 -1.637)"/></g></g><g transform="translate(1422.738 28924.949)"><g transform="translate(0)"><path d="M33.181,47.914a3.343,3.343,0,0,0,3.343-3.343V3.343A3.343,3.343,0,0,0,33.181,0H3.343A3.343,3.343,0,0,0,0,3.343V50.761A3.343,3.343,0,0,0,3.343,54.1H33.181a3.343,3.343,0,0,0,3.285-2.723H6.438A3.343,3.343,0,0,1,3.1,48.038v-.124ZM13.22,6.136a3.732,3.732,0,0,1,1.474.3,3.808,3.808,0,0,1,7.135,0,3.732,3.732,0,0,1,1.474-.3A3.906,3.906,0,0,1,27.151,10.1a3.968,3.968,0,0,1-2.342,3.648v9.843H11.715V13.746A3.968,3.968,0,0,1,9.372,10.1,3.907,3.907,0,0,1,13.22,6.136ZM24.668,25.392c0,3.886-2.5,7.578-6.042,7.578s-6.771-3.689-6.771-7.578v-.124H24.667C24.668,25.31,24.668,25.35,24.668,25.392ZM8.4,39.433a9.371,9.371,0,0,1,4.422-8.009,8.747,8.747,0,0,0,5.93,2.542,7.311,7.311,0,0,0,5.291-2.323,9.375,9.375,0,0,1,4.083,7.79v5.924H23.338v-1.61A3.077,3.077,0,0,0,25.2,40.566c0-2.016-1.127-4.3-2.517-4.3s-2.516,2.286-2.516,4.3a3.077,3.077,0,0,0,1.866,3.181v1.61H14.087V43.449h.245a1.239,1.239,0,0,0,1.221-1.257V36.585a.317.317,0,0,0-.633,0v4.209a.3.3,0,1,1-.59,0V36.585a.316.316,0,1,0-.631,0V40.8a.3.3,0,0,1-.29.3.29.29,0,0,1-.269-.189V36.585a.316.316,0,1,0-.631,0v4.227a.28.28,0,1,1-.557,0V36.585a.316.316,0,1,0-.631,0v5.6a1.239,1.239,0,0,0,1.221,1.257h.245v1.91H8.4Z"/></g></g><g transform="translate(3139.012 30978.188)"><g transform="translate(-2680.563 -1906.118)"><path d="M44.368,0H.735A.735.735,0,0,0,0,.735V32.8a.735.735,0,0,0,.735.735H16.711v5.95H3.232a.735.735,0,0,0-.735.735v8.154a.735.735,0,0,0,.735.735h.294v4.811H41.576V49.11h.294a.735.735,0,0,0,.735-.735V40.222a.735.735,0,0,0-.735-.735H28.391v-5.95H44.368A.735.735,0,0,0,45.1,32.8V.735A.735.735,0,0,0,44.368,0ZM6.05,42.812A1.487,1.487,0,1,1,4.562,44.3,1.487,1.487,0,0,1,6.05,42.812ZM43.173,30.329H1.929V1.739H43.173Z"/><rect width="12.149" height="25.01" rx="6.074" transform="translate(4.562 3.355)"/><rect width="9.622" height="7.162" rx="3.581" transform="translate(19.216 3.355)"/><rect width="9.622" height="7.162" rx="3.581" transform="translate(19.216 12.279)"/><rect width="9.622" height="7.162" rx="3.581" transform="translate(19.216 21.204)"/><rect width="9.622" height="7.162" rx="3.581" transform="translate(31.446 21.204)"/><rect width="9.622" height="7.162" rx="3.581" transform="translate(31.446 12.279)"/><rect width="9.622" height="7.162" rx="3.581" transform="translate(31.446 3.355)"/></g></g><g transform="translate(596.036 29075.422)"><g transform="translate(0)"><path d="M19.328,12.08v7.248l9.665-9.664L19.328,0V7.248A19.294,19.294,0,0,0,3,36.869l3.527-3.527a14.189,14.189,0,0,1-1.691-6.765A14.508,14.508,0,0,1,19.328,12.08Zm16.333,4.2-3.528,3.527A14.472,14.472,0,0,1,19.328,41.073V33.825L9.664,43.489l9.664,9.664V45.9a19.294,19.294,0,0,0,16.333-29.62Z" transform="translate(0)"/></g></g><g transform="translate(738.856 29069.914)"><circle cx="10.5" cy="10.5" r="10.5" transform="translate(4.204)"/><path d="M14.7,263.33h0a14.7,14.7,0,0,1,14.7,14.7V297.96a1.474,1.474,0,0,1-1.474,1.474H1.474A1.474,1.474,0,0,1,0,297.96V278.034a14.7,14.7,0,0,1,14.7-14.7Z" transform="translate(0 -243.928)"/></g><g transform="translate(872.092 29072.82)"><g transform="translate(0 -0.016)"><path d="M37.168,3.244H28.513V2.836a2.031,2.031,0,0,0-.6-1.44,2.079,2.079,0,0,0-1.44-.6A25.643,25.643,0,0,0,13.645.8a2.037,2.037,0,0,0-2.037,2.037v.407H2.648A2.648,2.648,0,0,0,0,5.891V47.744a2.648,2.648,0,0,0,2.648,2.648H37.168a2.648,2.648,0,0,0,2.648-2.648V5.891a2.648,2.648,0,0,0-2.648-2.648ZM34.742,43.925A1.171,1.171,0,0,1,33.571,45.1H6.772A1.171,1.171,0,0,1,5.6,43.925V9.71A1.171,1.171,0,0,1,6.772,8.539h4.837v.305a2.037,2.037,0,0,0,2.037,2.037H26.476a2.037,2.037,0,0,0,2.037-2.037V8.539h5.058A1.171,1.171,0,0,1,34.742,9.71Z" transform="translate(0 0.016)"/><rect width="14.765" height="3.666" rx="1.833" transform="translate(15.987 17.16)"/><rect width="3.666" height="3.666" rx="1.833" transform="translate(9.267 17.16)"/><rect width="3.666" height="3.666" rx="1.833" transform="translate(9.267 23.932)"/><rect width="3.666" height="3.666" rx="1.833" transform="translate(9.267 30.704)"/><rect width="14.765" height="3.666" rx="1.833" transform="translate(15.987 23.932)"/><rect width="14.765" height="3.666" rx="1.833" transform="translate(15.987 30.704)"/></g></g><g transform="translate(1426.597 29078.496)"><g transform="translate(0 0)"><path d="M27.3,0H3.9A3.912,3.912,0,0,0,0,3.9V35.106a3.912,3.912,0,0,0,3.9,3.9H27.3a3.912,3.912,0,0,0,3.9-3.9V3.9A3.912,3.912,0,0,0,27.3,0ZM3.9,3.9h9.752V19.5L8.776,16.578,3.9,19.5Z" transform="translate(0 0)"/></g></g><g transform="translate(458.459 29218.449)"><g transform="translate(-0.01 0)"><path d="M21.269,0A21.271,21.271,0,1,0,42.532,21.268,21.271,21.271,0,0,0,21.269,0Zm0,37.938A16.675,16.675,0,1,1,37.936,21.268,16.675,16.675,0,0,1,21.269,37.938Z" transform="translate(0.01 0)"/><rect width="13.367" height="4.596" rx="2.298" transform="translate(18.977 19.959)"/><rect width="17.12" height="4.596" rx="2.298" transform="translate(18.977 24.555) rotate(-90)"/></g></g><g transform="translate(1285.172 29075.223)"><g transform="translate(0.011)"><path d="M43.9,28.7,39,24.833a17.218,17.218,0,0,0,0-4.478l4.684-3.687A1.037,1.037,0,0,0,44,15.33L39.364,7.3a1.031,1.031,0,0,0-1.315-.38l-5.534,2.2a17.045,17.045,0,0,0-3.937-2.279L27.73.951a1.041,1.041,0,0,0-1-.951H17.454a1.028,1.028,0,0,0-.986.949l-.86,5.89a17.021,17.021,0,0,0-3.931,2.275L6.1,6.885a1.036,1.036,0,0,0-1.319.388L.142,15.306a1.028,1.028,0,0,0,.33,1.329l4.72,3.731a17.244,17.244,0,0,0,0,4.528L.456,28.624a1.04,1.04,0,0,0-.324,1.338L4.77,38a1.028,1.028,0,0,0,1.315.379l5.628-2.238a17.042,17.042,0,0,0,3.922,2.256l.86,5.951a1.038,1.038,0,0,0,1,.95h9.278a1.029,1.029,0,0,0,.986-.95l.874-5.981a17.053,17.053,0,0,0,3.845-2.225l5.793,2.317a1.035,1.035,0,0,0,1.319-.388l4.639-8.035A1.029,1.029,0,0,0,43.9,28.7ZM22.091,33.019A10.408,10.408,0,1,1,32.5,22.611,10.408,10.408,0,0,1,22.091,33.019Z" transform="translate(-0.011)"/></g></g><g transform="translate(1005.182 29068.766)"><g transform="translate(-0.001 -0.068)"><path d="M13.94.031a1.126,1.126,0,0,0-1.112,1.156V16.121a1.053,1.053,0,1,1-2.106,0V1.187a1.126,1.126,0,1,0-2.238,0V16.208a1.038,1.038,0,0,1-2,.38V1.187a1.126,1.126,0,1,0-2.238,0V16.238a.995.995,0,1,1-1.989,0V1.187A1.141,1.141,0,0,0,1.127.031,1.126,1.126,0,0,0,0,1.187V21.138a4.388,4.388,0,0,0,4.388,4.476h.878v7.021h0a1.17,1.17,0,0,0,0,.219v23.4a2.326,2.326,0,1,0,4.637,0V32.634h0V25.613h.863a4.388,4.388,0,0,0,4.388-4.476V1.187A1.126,1.126,0,0,0,13.94.031Z" transform="translate(0.001 0.068)"/><path d="M30.506,0C25.562,0,21.54,8.147,21.54,15.314c0,6.012,2.823,10.151,6.655,11.336V32.6h0a1.17,1.17,0,0,0,0,.219v23.4a2.326,2.326,0,0,0,2.311,2.282h0a2.326,2.326,0,0,0,2.326-2.326V32.559h0V26.65c3.818-1.185,6.641-5.324,6.641-11.336C39.472,8.147,35.45,0,30.506,0Z" transform="translate(9.967 0.099)"/></g></g><g transform="translate(1143.895 29075.75)"><g transform="translate(-0.131 -0.011)"><path d="M33.2,29.261H31.1l-.744-.715a17.232,17.232,0,0,0,3.49-6.531,1.263,1.263,0,0,0,.041-.14c.052-.192.1-.384.145-.582a1.291,1.291,0,0,1,.058-.238c.017-.081.076-.343.1-.512s.041-.215.058-.32.052-.308.076-.465l.052-.4a1.236,1.236,0,0,1,.047-.407c.047-.14,0-.332.035-.506a.962.962,0,0,0,0-.32V17.28a17.3,17.3,0,1,0-17.227,17.3H18.4l.506-.035.407-.047.4-.052.465-.076.32-.058.512-.1.238-.058.582-.145.14-.041a17.232,17.232,0,0,0,6.531-3.49l.715.744v2.1l13.3,13.2,3.961-3.961Zm-11.155-3.49a6.066,6.066,0,0,1-3.763,1.605V29.93H16.23V27.388a6.083,6.083,0,0,1-3.751-1.669,5.428,5.428,0,0,1-1.431-4.2l.029-.07H13.6a3.6,3.6,0,0,0,1.029,2.908,3.792,3.792,0,0,0,2.536.872,4.013,4.013,0,0,0,2.681-.8,2.815,2.815,0,0,0,.96-2.268,2.757,2.757,0,0,0-.849-2.03,7.276,7.276,0,0,0-2.792-1.518,9.631,9.631,0,0,1-4.071-2.169,4.856,4.856,0,0,1-1.367-3.617,5.124,5.124,0,0,1,1.256-3.577,5.4,5.4,0,0,1,3.49-1.663V4.648h2.082V7.6a5.1,5.1,0,0,1,3.49,1.913,6.77,6.77,0,0,1,1.227,4.257H20.65a4.757,4.757,0,0,0-.837-2.908,2.739,2.739,0,0,0-2.326-1.117,3.094,3.094,0,0,0-2.326.82,3.123,3.123,0,0,0-.8,2.227,2.815,2.815,0,0,0,.808,2.088A7.8,7.8,0,0,0,18.073,16.4a10.108,10.108,0,0,1,4.071,2.187,4.816,4.816,0,0,1,1.314,3.559,4.874,4.874,0,0,1-1.413,3.629Z" transform="translate(0.131 0.011)"/></g></g><g transform="translate(599.78 29218.125)"><path d="M2.246,35.929A4.5,4.5,0,0,0,6.737,40.42H24.7a4.5,4.5,0,0,0,4.489-4.491V8.982H2.246ZM31.44,2.246H23.578L21.333,0H10.105L7.859,2.246H0V6.737H31.44Z"/></g><g transform="translate(729.63 29213.93)"><g transform="translate(0.001 -0.003)"><path d="M47.693,16.234,40.79,2.067A3.681,3.681,0,0,0,37.221.006L21.5,1.112a3.681,3.681,0,0,0-2.932,1.833L.6,34.062a4.489,4.489,0,0,0,1.642,6.132L23.473,52.45a4.489,4.489,0,0,0,6.132-1.643L47.572,19.689a3.681,3.681,0,0,0,.121-3.455ZM37.127,4.29a3.564,3.564,0,1,1-4.867,1.3,3.564,3.564,0,0,1,4.867-1.3ZM26.286,46.972,5.584,35.02,20.13,9.834l20.7,11.952Z" transform="translate(-0.001 0.003)"/><path d="M164.372,182.878a4.209,4.209,0,0,1,2.492-2.021,4.477,4.477,0,0,1,5.313,3.06,4.2,4.2,0,0,1-.506,3.174l-.539.934a4.169,4.169,0,0,1-2.478,2.011,4,4,0,0,1-3.239-.479,4.07,4.07,0,0,1-2.071-2.586,4.149,4.149,0,0,1,.49-3.16Zm1.231,1.955a2.749,2.749,0,0,0-.388,1.8,1.947,1.947,0,0,0,1.052,1.437,1.9,1.9,0,0,0,1.727.172A2.763,2.763,0,0,0,169.36,187l.539-.934a2.808,2.808,0,0,0,.4-1.816,2.123,2.123,0,0,0-2.782-1.6,2.839,2.839,0,0,0-1.37,1.257Zm-4.4,13.445-.853-1.576,16.584-8.823.852,1.575Zm5.983-.539a4.183,4.183,0,0,1,2.488-2.015,4.479,4.479,0,0,1,5.3,3.063,4.171,4.171,0,0,1-.494,3.165l-.546.946a4.179,4.179,0,0,1-2.492,2.02,4,4,0,0,1-3.232-.477,4.074,4.074,0,0,1-2.07-2.586,4.177,4.177,0,0,1,.5-3.176Zm1.224,1.967a2.774,2.774,0,0,0-.394,1.817,1.945,1.945,0,0,0,1.051,1.437,1.893,1.893,0,0,0,1.731.167,2.78,2.78,0,0,0,1.37-1.257l.545-.945a2.764,2.764,0,0,0,.384-1.814,2.121,2.121,0,0,0-2.769-1.6,2.792,2.792,0,0,0-1.373,1.244Z" transform="translate(-145.953 -164.471)"/></g></g><g transform="translate(876.628 29209.664)"><g transform="translate(-1 3)"><circle cx="10.726" cy="10.726" r="10.726" transform="translate(4.293)"/><path d="M14.424,38.431A16.479,16.479,0,0,1,28.34,22.151,15,15,0,0,0,0,28.981V49.412a1.417,1.417,0,0,0,1.417,1.417H20.063a16.407,16.407,0,0,1-5.639-12.4Z" transform="translate(0 5.846)"/><path d="M25.468,22.5a12.4,12.4,0,1,0,12.4,12.4A12.4,12.4,0,0,0,25.468,22.5ZM16.5,34.9a8.983,8.983,0,0,1,6.475-8.615,1.148,1.148,0,0,1,1.417,1.105v5.738a2.069,2.069,0,0,0-.992,1.714l-4.973,2.834a1.162,1.162,0,0,1-1.686-.694A8.842,8.842,0,0,1,16.5,34.9Zm8.969,8.969a8.912,8.912,0,0,1-6.206-2.508,1.119,1.119,0,0,1,.241-1.785l4.973-2.834a2.026,2.026,0,0,0,1.969,0l4.987,2.834a1.133,1.133,0,0,1,.241,1.785A8.955,8.955,0,0,1,25.468,43.866Zm7.084-6.135L27.579,34.9a2.069,2.069,0,0,0-.992-1.714V27.459A1.133,1.133,0,0,1,28,26.354a8.983,8.983,0,0,1,6.475,8.615,8.841,8.841,0,0,1-.255,2.069,1.133,1.133,0,0,1-1.729.694Z" transform="translate(5.449 9.38)"/></g></g><g transform="translate(1005.181 29218.281)"><g transform="translate(0)"><path d="M19.089,25.3V44.533H11.315V30.319a2.159,2.159,0,0,1,1.067-1.843l6.149-3.553a.376.376,0,0,1,.558.376ZM29.506,18.64l-6.064,3.5a2.353,2.353,0,0,0-1.213,2.013V44.533H30V18.956a.364.364,0,0,0-.5-.315Zm10.115-5.846-5.179,2.971a2.426,2.426,0,0,0-1.213,2.11V44.557h7.762V13.6a.922.922,0,0,0-1.37-.8ZM47.953,0H37.038a.7.7,0,0,0-.606,1.055l1.213,2.2-27.6,15.96a.97.97,0,0,1-.958,0l-4.693-2.7a2.926,2.926,0,0,0-2.923,5.069L9.132,26a.91.91,0,0,0,.861,0L40.615,8.32l1.213,2.2a.691.691,0,0,0,1.213,0l5.47-9.46A.7.7,0,0,0,47.953,0ZM1.406,25.468A.667.667,0,0,0,.4,26.05V44.533H8.137V29.567a.461.461,0,0,0-.206-.376Z" transform="translate(-0.002)"/><g clip-path="url(#b)"><rect width="7.738" height="19.368" transform="translate(0.398 25.177)"/><path d="M.33,36.72Z" transform="translate(0.068 7.813)"/><path d="M40.27,0Z" transform="translate(8.566)"/><rect width="49.251" height="26.147" transform="translate(-0.415)"/><rect width="7.774" height="32.09" transform="translate(33.215 12.455)"/><path d="M27.39,36.72Z" transform="translate(5.825 7.813)"/><rect width="7.774" height="26.026" transform="translate(22.264 18.507)"/><path d="M18.36,36.72Z" transform="translate(3.904 7.813)"/><rect width="7.774" height="19.708" transform="translate(11.325 24.838)"/><path d="M9.33,36.72Z" transform="translate(1.983 7.813)"/></g></g></g><g transform="translate(1135.611 29224.836)"><path d="M54.625,37.509H5.4a5.4,5.4,0,0,1-5.4-5.4V5.4A5.4,5.4,0,0,1,5.4,0h49.23a5.4,5.4,0,0,1,5.4,5.4V32.114A5.4,5.4,0,0,1,54.625,37.509Zm5.4-32.721H0V11.33H60.02ZM11.748,31.021V28.9a1.686,1.686,0,0,0-1.686-1.686H5.53A1.686,1.686,0,0,0,3.844,28.9v2.118a1.686,1.686,0,0,0,1.686,1.7h4.532a1.686,1.686,0,0,0,1.686-1.7Z"/><g clip-path="url(#c)"><rect width="7.89" height="5.503" transform="translate(3.844 27.218)"/><rect width="60.02" height="6.541" transform="translate(0 4.788)"/><path d="M44.5,0Z" transform="translate(15.52)"/><rect width="60.02" height="37.509"/><path d="M0,27.81Z" transform="translate(0 9.699)"/></g></g><g transform="translate(1280.558 29218.961)"><path d="M47.341,19.215a2.228,2.228,0,0,0,2.228-2.228V2.228A2.228,2.228,0,0,0,47.341,0H32.582a2.228,2.228,0,0,0-2.228,2.228V8.176H19.215V2.228A2.228,2.228,0,0,0,16.987,0H2.228A2.228,2.228,0,0,0,0,2.228V16.987a2.228,2.228,0,0,0,2.228,2.228H8.176V30.354H2.228A2.228,2.228,0,0,0,0,32.582V47.341a2.228,2.228,0,0,0,2.228,2.228H16.987a2.228,2.228,0,0,0,2.228-2.228V41.393H30.354v5.948a2.228,2.228,0,0,0,2.228,2.228H47.341a2.228,2.228,0,0,0,2.228-2.228V32.582a2.228,2.228,0,0,0-2.228-2.228H41.393V19.215Zm0,15.595v10.3a2.228,2.228,0,0,1-2.228,2.228H34.81a2.228,2.228,0,0,1-2.228-2.228V34.81a2.228,2.228,0,0,1,2.228-2.228h10.3A2.228,2.228,0,0,1,47.341,34.81ZM38.53,30.354H32.582a2.228,2.228,0,0,0-2.228,2.228V38.53H19.215V32.582a2.228,2.228,0,0,0-2.228-2.228H11.039V19.215h5.948a2.228,2.228,0,0,0,2.228-2.228V11.039H30.354v5.948a2.228,2.228,0,0,0,2.228,2.228H38.53Z"/><g clip-path="url(#d)"><rect width="27.502" height="27.502" transform="translate(11.039 11.039)"/><rect width="14.759" height="14.759" transform="translate(32.582 32.582)"/><path d="M0,44.5Z" transform="translate(0 5.069)"/><rect width="49.569" height="49.569"/></g></g><g transform="translate(447.784 29361.258)"><g transform="translate(0 0)"><path d="M47.528,33.024V24.373A2.157,2.157,0,0,0,45.371,22.2H27.212V11.419a5.768,5.768,0,1,0-2.274,0V22.2H6.779a2.157,2.157,0,0,0-2.1,2.169v8.652a5.768,5.768,0,1,0,2.274,0V24.49H24.938v8.534a5.768,5.768,0,1,0,2.274,0V24.49H45.254v8.534a5.768,5.768,0,1,0,2.274,0Z" transform="translate(-0.05 0.003)"/><g clip-path="url(#e)"><path d="M0,37.91Z" transform="translate(-0.058 6.536)"/><rect width="52.167" height="44.442" transform="translate(-0.058 0.004)"/></g></g></g><g transform="translate(590.647 29355.129)"><g transform="translate(0 0)"><path d="M27.2,0A27.211,27.211,0,1,0,54.411,27.2,27.211,27.211,0,0,0,27.2,0Zm0,48.674A21.475,21.475,0,1,1,48.675,27.2,21.475,21.475,0,0,1,27.2,48.674ZM46.437,27.2a19.225,19.225,0,1,1-5.631-13.606A19.236,19.236,0,0,1,46.437,27.2Z" transform="translate(0.01)"/><g clip-path="url(#f)"><rect width="38.473" height="38.473" transform="translate(7.974 7.963)"/><rect width="42.938" height="42.938" transform="translate(5.748 5.736)"/><path d="M46.67,0Z" transform="translate(7.751 0)"/><rect width="54.41" height="54.41" transform="translate(0.012 0)"/><path d="M0,46.67Z" transform="translate(0.012 7.74)"/></g></g></g><g transform="translate(727.857 29362.137)"><g transform="translate(4.343 -1.534)"><path d="M1,17.938A.909.909,0,0,1,1,16.5L22.185.189a.909.909,0,0,1,1.111,0L44.478,16.5a.909.909,0,0,1,0,1.439L23.3,34.26a.909.909,0,0,1-1.111,0ZM22.185,41.784a.909.909,0,0,0,1.111,0L44.478,25.462a.909.909,0,0,0,0-1.439l-1.553-1.174a.9.9,0,0,0-1.1,0L23.3,37.138a.909.909,0,0,1-1.111,0L3.641,22.849a.909.909,0,0,0-1.111,0L1,23.985a.909.909,0,0,0,0,1.439ZM45.122,31.205l-1.1-.846a.934.934,0,0,0-1.1,0L23.3,45.445a.909.909,0,0,1-1.111,0L2.53,30.36a.947.947,0,0,0-1.111,0l-1.086.846a.909.909,0,0,0,0,1.439L22.185,49.459a.909.909,0,0,0,1.111,0L45.122,32.644a.909.909,0,0,0,0-1.439Z" transform="translate(0.02 0)"/><g clip-path="url(#g)"><rect width="45.697" height="19.541" transform="translate(-0.088 30.12)"/><rect width="45.697" height="0.063" transform="translate(-0.088 49.648)"/><rect width="44.41" height="19.44" transform="translate(0.556 22.596)"/><rect width="44.41" height="0.063" transform="translate(0.556 -0.063)"/><rect width="44.41" height="34.513" transform="translate(0.556 0)"/></g></g></g><g transform="translate(1014.581 29352.703)"><g transform="translate(0 0)"><path d="M19.014,20.031a10.486,10.486,0,1,0-8.663,0A14.683,14.683,0,0,0,0,34.053V53.96a1.468,1.468,0,0,0,1.468,1.468H27.9a1.468,1.468,0,0,0,1.468-1.468V34.053A14.683,14.683,0,0,0,19.014,20.031Zm3.793,9.629a.759.759,0,0,1-1.138.661L17.13,27.7a2.814,2.814,0,0,1-4.894,0L7.708,30.321a.759.759,0,0,1-1.138-.661V22.992a.759.759,0,0,1,1.138-.661l4.527,2.618a2.814,2.814,0,0,1,4.894,0l4.527-2.618a.759.759,0,0,1,1.138.661Z" transform="translate(0 0.005)"/><g clip-path="url(#h)"><rect width="16.237" height="8.565" transform="translate(6.558 22.042)"/><path d="M24,0Z" transform="translate(5.365 0.006)"/><rect width="29.365" height="55.427" transform="translate(0 0.006)"/><path d="M0,45.3Z" transform="translate(0 10.133)"/></g></g></g><g transform="translate(1424.63 29930.59)"><g transform="translate(0 0)"><path d="M32.2,16.4,23.417,7.619,0,31.037v8.781H8.781ZM39.13,9.469a2.333,2.333,0,0,0,0-3.3L33.65.688a2.332,2.332,0,0,0-3.3,0l-4.59,4.591,8.78,8.78Z" transform="translate(0 -0.003)"/></g></g><g transform="translate(451.239 29933.32)"><g transform="translate(0 0)"><path d="M46.554.041H13.506a.836.836,0,0,0-.513,0h-.1V.08a.821.821,0,0,0-.313.271L.152,18.053a.821.821,0,0,0,0,.943L12.583,36.7a.821.821,0,0,0,.313.27v.089h33.66a2.836,2.836,0,0,0,2.836-2.836V2.877A2.836,2.836,0,0,0,46.554.041Zm-7.2,25.3a.522.522,0,0,1,0,.739L36.55,28.887a.522.522,0,0,1-.739,0L29,22.084,22.19,28.9a.522.522,0,0,1-.738,0l-2.807-2.806a.522.522,0,0,1,0-.739l6.815-6.814-6.822-6.822a.522.522,0,0,1,0-.739l2.806-2.806a.522.522,0,0,1,.739,0L29,14.995l6.814-6.814a.522.522,0,0,1,.738,0l2.807,2.806a.522.522,0,0,1,0,.739L32.55,18.54Z" transform="translate(-0.003 0)"/></g></g><g transform="translate(1010.467 29923.824)"><g transform="translate(0 0)"><path d="M163.454,10.871a2.045,2.045,0,0,0,2.9,0l3.861-3.86V28.644a2.053,2.053,0,0,0,2.053,2.054h0a2.056,2.056,0,0,0,2.054-2.054V7.01l3.884,3.86a2.047,2.047,0,1,0,2.9-2.9L173.722.6a2.045,2.045,0,0,0-2.9,0l-7.372,7.372a2.045,2.045,0,0,0,0,2.895Z" transform="translate(-153.803 -0.003)"/><path d="M34.653,277.1H24.736v3.94h6a2.309,2.309,0,0,1,2.309,2.309v20.674a2.309,2.309,0,0,1-2.308,2.309H6.224a2.309,2.309,0,0,1-2.309-2.309V283.35a2.309,2.309,0,0,1,2.31-2.31h6V277.1H2.309A2.309,2.309,0,0,0,0,279.409v28.555a2.309,2.309,0,0,0,2.309,2.309H34.654a2.309,2.309,0,0,0,2.309-2.309V279.409a2.309,2.309,0,0,0-2.31-2.309Z" transform="translate(0 -261.7)"/></g></g><g transform="translate(1427.742 29645.961)"><g transform="translate(0 -0.001)"><rect width="13.205" height="3.217" rx="1.608" transform="translate(13.798 15.068)"/><rect width="13.205" height="3.217" rx="1.608" transform="translate(13.798 21.013)"/><rect width="13.205" height="3.217" rx="1.608" transform="translate(13.798 26.957)"/><path d="M16.2,23.18l-2.058,2.051-.84-.84-.443.436h0l-.091.1,1.439,1.439,2.585-2.591Z" transform="translate(-4.455 -8.086)"/><path d="M16.2,32.28l-2.058,2.058-.84-.846-.443.443h0l-.091.091,1.439,1.439,2.585-2.585Z" transform="translate(-4.455 -11.261)"/><path d="M16.2,41.41l-2.058,2.058-.84-.846-.443.443h0l-.091.091,1.439,1.439,2.585-2.585Z" transform="translate(-4.455 -14.446)"/><path d="M17.528,42.492a12.762,12.762,0,0,1,.326-2.884H5.945a1.029,1.029,0,0,1-1.029-1.029V8.536A1.029,1.029,0,0,1,5.945,7.507H10.19v.306A1.791,1.791,0,0,0,11.981,9.6H23.245a1.784,1.784,0,0,0,1.784-1.784V7.54h4.447A1.022,1.022,0,0,1,30.5,8.568V29.522a12.977,12.977,0,0,1,4.46.781V5.209a2.325,2.325,0,0,0-2.325-2.325H25.029V2.506a1.784,1.784,0,0,0-.521-1.27A1.843,1.843,0,0,0,23.245.716,22.744,22.744,0,0,0,17.789,0a22.438,22.438,0,0,0-5.808.716A1.791,1.791,0,0,0,10.19,2.506v.352H2.324A2.325,2.325,0,0,0,0,5.209V41.932a2.325,2.325,0,0,0,2.325,2.344H17.645a13.166,13.166,0,0,1-.117-1.784Z" transform="translate(0 0.001)"/><path d="M41.7,50.53a9.6,9.6,0,1,0,9.6,9.591,9.6,9.6,0,0,0-9.6-9.591ZM40.252,64.139l-3.627-3.627.234-.241h0l1.107-1.107L40.1,61.293,45.3,56.084l1.5,1.5Z" transform="translate(-11.199 -17.628)"/></g></g><g transform="translate(868.85 29791.238)"><g transform="translate(0.003 0.315)"><ellipse cx="6" cy="5.5" rx="6" ry="5.5" transform="translate(20.147 0.446)"/><circle cx="5.5" cy="5.5" r="5.5" transform="translate(0.147 32.446)"/><ellipse cx="6" cy="5.5" rx="6" ry="5.5" transform="translate(20.147 32.446)"/><ellipse cx="6" cy="5.5" rx="6" ry="5.5" transform="translate(40.147 32.446)"/><rect width="2.282" height="12.28" transform="translate(24.768 9.503)"/><path d="M773,379.3h.41a1.874,1.874,0,0,1,1.874,1.874v9.738H773Z" transform="translate(-727.912 -357.518)"/><rect width="2.282" height="11.612" transform="translate(24.768 22.23)"/><path d="M80.874,379.3h.41v11.612H79v-9.738A1.874,1.874,0,0,1,80.874,379.3Z" transform="translate(-74.554 -357.518)"/><path d="M1.874,0h.41V42.874h-.41A1.874,1.874,0,0,1,0,41V1.874A1.874,1.874,0,0,1,1.874,0Z" transform="translate(47.322 21.782) rotate(90)"/></g></g><g transform="translate(727.857 29782.188)"><g transform="translate(4.176 2.401)"><path d="M186.046,25.244a2.6,2.6,0,0,0-3.687,0l-4.916,4.915V2.618A2.618,2.618,0,0,0,174.829,0h0a2.618,2.618,0,0,0-2.618,2.618V30.159l-4.941-4.915a2.607,2.607,0,1,0-3.687,3.687l9.39,9.386a2.6,2.6,0,0,0,3.687,0l9.386-9.386a2.6,2.6,0,0,0,0-3.687Z" transform="translate(-151.299)"/><path d="M44.122,137.1H31.494v5.017h7.642a2.939,2.939,0,0,1,2.939,2.94V171.38a2.94,2.94,0,0,1-2.939,2.94H7.925a2.94,2.94,0,0,1-2.94-2.94V145.058a2.94,2.94,0,0,1,2.941-2.941h7.641V137.1H2.94A2.94,2.94,0,0,0,0,140.04V176.4a2.94,2.94,0,0,0,2.94,2.94H44.123a2.94,2.94,0,0,0,2.94-2.94V140.04A2.94,2.94,0,0,0,44.122,137.1Z" transform="translate(0 -127.399)"/></g></g><g transform="translate(602.751 29785.449)"><path d="M0,43.253,18.707,24.506,0,5.76,5.76,0,30.267,24.506,5.76,49.013Z"/></g><g transform="translate(1004.753 29794.512)"><rect width="33.422" height="8.298" rx="4.149" transform="translate(15.213)"/><rect width="8.298" height="8.298" rx="4.149"/><rect width="8.298" height="8.298" rx="4.149" transform="translate(0 15.328)"/><rect width="8.298" height="8.298" rx="4.149" transform="translate(0 30.656)"/><rect width="33.422" height="8.298" rx="4.149" transform="translate(15.213 15.328)"/><rect width="33.422" height="8.298" rx="4.149" transform="translate(15.213 30.656)"/></g><g transform="translate(1149.958 29793.906)"><rect width="7.56" height="40.158" transform="translate(16.299)"/><rect width="7.56" height="40.158" transform="translate(0 23.859) rotate(-90)"/></g><g transform="translate(1130.516 29605.949)"><g transform="translate(293 -243)"><rect width="11.777" height="11.777" rx="5.888"/><rect width="11.777" height="11.777" rx="5.888" transform="translate(17.213)"/><rect width="11.777" height="11.777" rx="5.888" transform="translate(34.425)"/><rect width="11.777" height="11.777" rx="5.888" transform="translate(0 17.213)"/><rect width="11.777" height="11.777" rx="5.888" transform="translate(17.213 17.213)"/><rect width="11.777" height="11.777" rx="5.888" transform="translate(34.425 17.213)"/><rect width="11.777" height="11.777" rx="5.888" transform="translate(0 34.425)"/><rect width="11.777" height="11.777" rx="5.888" transform="translate(17.213 34.425)"/><rect width="11.777" height="11.777" rx="5.888" transform="translate(34.425 34.425)"/></g></g><g transform="translate(455.584 29786.367)"><path d="M38.213,48.1H9.566A9.576,9.576,0,0,1,0,38.529V9.566A9.576,9.576,0,0,1,9.566,0H38.213a9.576,9.576,0,0,1,9.566,9.566V38.529A9.574,9.574,0,0,1,38.213,48.1ZM9.566,4.291A5.281,5.281,0,0,0,4.291,9.566V38.529A5.281,5.281,0,0,0,9.566,43.8H38.213a5.281,5.281,0,0,0,5.275-5.275V9.566a5.281,5.281,0,0,0-5.275-5.275Z"/><rect width="28.696" height="7.647" rx="3.824" transform="translate(9.518 29.019)"/></g><g transform="translate(1284.641 29790.789)"><path d="M21.283,0,17.532,3.751,32.377,18.623H0v5.321H32.377L17.532,38.815l3.751,3.751L42.566,21.283Z"/></g><g transform="translate(1419.589 29795.969)"><path d="M16.036,30.354,4.009,18.327,0,22.336,16.036,38.373,50.4,4.009,46.392,0Z"/></g><g transform="translate(594.333 29928.914)"><g transform="translate(0)"><path d="M17.793,0H1.364A1.364,1.364,0,0,0,0,1.364V17.793a1.364,1.364,0,0,0,1.364,1.364H17.793a1.364,1.364,0,0,0,1.364-1.364V1.364A1.364,1.364,0,0,0,17.793,0Zm-1.5,11.9H11.9v4.39H7.255V11.9H2.865V7.255h4.39V2.865H11.9v4.39h4.39Z" transform="translate(0)"/><path d="M496.793,0H480.364A1.364,1.364,0,0,0,479,1.364V17.793a1.364,1.364,0,0,0,1.364,1.364h16.428a1.364,1.364,0,0,0,1.364-1.364V1.364A1.364,1.364,0,0,0,496.793,0Zm-1.5,11.9H481.865V7.255h13.426Z" transform="translate(-452.857)"/><path d="M496.793,479H480.364A1.364,1.364,0,0,0,479,480.364v16.428a1.364,1.364,0,0,0,1.364,1.364h16.428a1.364,1.364,0,0,0,1.364-1.364V480.364A1.364,1.364,0,0,0,496.793,479Zm-1.5,16.35H481.865V490.7h13.426Zm0-8.9H481.865v-4.647h13.426Z" transform="translate(-452.857 -452.857)"/><path d="M17.793,479H1.364A1.364,1.364,0,0,0,0,480.364v16.428a1.364,1.364,0,0,0,1.364,1.364H17.793a1.364,1.364,0,0,0,1.364-1.364V480.364A1.364,1.364,0,0,0,17.793,479ZM1.66,483.062a2.4,2.4,0,1,1,2.4,2.4A2.4,2.4,0,0,1,1.66,483.062Zm1.528,8.623,9.5-9.5,3.286,3.286-9.494,9.5ZM15.1,496.5a2.4,2.4,0,1,1,2.4-2.4,2.4,2.4,0,0,1-2.4,2.4Z" transform="translate(0 -452.857)"/></g></g><g transform="translate(735.882 29930.785)"><g transform="translate(0)"><path d="M30.276,0H2.336A2.336,2.336,0,0,0,0,2.336v27.94a2.335,2.335,0,0,0,3.987,1.651L31.927,3.987A2.335,2.335,0,0,0,30.276,0ZM18.555,12.706H12.986v5.839H7.474V12.706H1.905V8.128H7.474V1.9h5.512V8.128h5.569Z" transform="translate(0)"/><path d="M236.405,208.466l-27.939,27.939a2.335,2.335,0,0,0,1.651,3.988h27.94a2.336,2.336,0,0,0,2.336-2.336v-27.94A2.335,2.335,0,0,0,236.405,208.466Zm1.008,24.453h-16.65v-4.578h16.65Z" transform="translate(-198.07 -198.07)"/></g></g><g transform="translate(458.298 29636.445)"><g transform="translate(0)"><rect width="11.957" height="3.512" transform="translate(15.184 3.398)"/><rect width="11.957" height="1.606" transform="translate(15.184 10.679)"/><rect width="11.957" height="1.471" transform="translate(15.184 15.419)"/><rect width="11.957" height="1.599" transform="translate(15.184 20.174)"/><path d="M32.052,22.472H31.2V0H10.18V22.472H9.337A9.33,9.33,0,0,0,0,31.8V57.109H41.4V31.8a9.33,9.33,0,0,0-9.352-9.33ZM6.489,53.275A3.105,3.105,0,1,1,9.594,50.17a3.105,3.105,0,0,1-3.105,3.105Zm22.03-2.855a1.72,1.72,0,0,1-1.178.35H16.454a2.484,2.484,0,0,1-1.67-.493,1.706,1.706,0,0,1-.557-1.335,1.428,1.428,0,0,1,.093-.528,1.963,1.963,0,0,1,.243-.45q.15-.214.428-.535l.478-.564,8.609-10.33h-7.4a1.749,1.749,0,0,1-1.171-.343,1.142,1.142,0,0,1-.393-.907,1.221,1.221,0,0,1,.393-.942,1.678,1.678,0,0,1,1.171-.364H26.22c1.235,0,1.849.578,1.849,1.728a2.42,2.42,0,0,1-.307,1.313,16.14,16.14,0,0,1-1.242,1.592l-8.052,9.58h8.873a1.8,1.8,0,0,1,1.214.35,1.121,1.121,0,0,1,.385.907,1.242,1.242,0,0,1-.385.942ZM29.8,29.454H11.586V1.428H29.8Z" transform="translate(0)"/></g></g><g transform="translate(869.115 29925.578)"><g transform="translate(0.005 0.001)"><path d="M19.426,42.315V28.761h10.8V42.315a2.7,2.7,0,0,0,2.7,2.7h8.139a2.7,2.7,0,0,0,2.651-2.7V23.36h4.592a1.332,1.332,0,0,0,.9-2.34L26.632.684a2.726,2.726,0,0,0-3.609,0L.447,21.02a1.344,1.344,0,0,0,.9,2.34H5.935V42.315a2.7,2.7,0,0,0,2.7,2.7h8.09a2.7,2.7,0,0,0,2.7-2.7Z" transform="translate(-0.005 -0.001)"/></g></g><g transform="translate(1012.985 29491.016)"><g transform="translate(0)"><rect width="12.138" height="3.565" transform="translate(15.413 3.449)"/><rect width="12.138" height="1.63" transform="translate(15.413 10.841)"/><rect width="12.138" height="1.493" transform="translate(15.413 15.652)"/><rect width="12.138" height="1.623" transform="translate(15.413 20.478)"/><rect width="2.319" height="2.319" transform="translate(19.848 42.319)"/><path d="M31.428,52H22.152A1.159,1.159,0,0,0,21,53.159v9.275a1.159,1.159,0,0,0,1.159,1.159h9.275a1.159,1.159,0,0,0,1.159-1.159V53.159A1.159,1.159,0,0,0,31.428,52Zm-1.159,8.116a1.159,1.159,0,0,1-1.159,1.159H24.471a1.159,1.159,0,0,1-1.159-1.159V55.478a1.159,1.159,0,0,1,1.159-1.159h4.638a1.159,1.159,0,0,1,1.159,1.159Z" transform="translate(-5.782 -14.318)"/><path d="M32.537,22.812h-.862V0H10.333V22.812H9.478A9.471,9.471,0,0,0,0,32.283V57.972H42.029V32.283a9.471,9.471,0,0,0-9.493-9.471ZM6.587,54.08a3.152,3.152,0,1,1,3.152-3.152A3.152,3.152,0,0,1,6.587,54.08ZM11.761,1.449H30.247V29.87H11.761ZM30.283,44.638a1.159,1.159,0,0,1,0,2.319H29.124v2.319a2.326,2.326,0,0,1-2.312,2.319H24.493v1.159a1.159,1.159,0,0,1-2.319,0V51.595H19.855v1.159a1.159,1.159,0,0,1-2.319,0V51.595H15.218A2.326,2.326,0,0,1,12.9,49.276V46.957H11.739a1.159,1.159,0,1,1,0-2.319H12.9V42.319H11.739a1.159,1.159,0,1,1,0-2.319H12.9V37.682a2.326,2.326,0,0,1,2.319-2.319h2.319V34.2a1.159,1.159,0,1,1,2.319,0v1.159h2.319V34.2a1.159,1.159,0,1,1,2.319,0v1.159h2.319a2.326,2.326,0,0,1,2.319,2.319V40H30.29a1.159,1.159,0,1,1,0,2.319H29.131v2.319Z"/></g></g><g transform="translate(1284.641 29642.844)"><g transform="translate(0)"><path d="M43.912,7.129H29V5.469a1.9,1.9,0,0,0-1.9-1.9H24.69V0H21.126V3.565H18.718a1.9,1.9,0,0,0-1.9,1.9v1.66H1.9A1.9,1.9,0,0,0,0,9.034v28.6a1.9,1.9,0,0,0,1.9,1.9H16.813v3.186H14.468a2.381,2.381,0,0,0-2.217,1.511,1.9,1.9,0,0,0-.164.771v4.152a2.381,2.381,0,0,0,2.381,2.381H31.349a2.381,2.381,0,0,0,2.381-2.381V45.01a1.9,1.9,0,0,0-.164-.771,2.381,2.381,0,0,0-2.217-1.511H29V39.542H43.912a1.9,1.9,0,0,0,1.9-1.9V9.034A1.9,1.9,0,0,0,43.912,7.129ZM16.961,50.23H14.58V47.849h2.381Zm0-3.809H14.58V44.039h2.381Zm4.762,3.809H19.342V47.849h2.381Zm0-3.809H19.342V44.039h2.381Zm4.762,3.809H24.1V47.849h2.381Zm0-3.809H24.1V44.039h2.381Zm4.762,3.809H28.865V47.849h2.381Zm0-6.19V46.42H28.865V44.039Zm9.761-7.9H4.819v-25.6H41.007Z"/></g></g><g transform="translate(1285.607 29934.352)"><path d="M0,32.853,23.271,16.427,0,0Z"/><rect width="5.475" height="32.853" transform="translate(27.378)"/></g><g transform="translate(1146.684 29358.484)"><path d="M36.191,0H5.168A5.168,5.168,0,0,0,0,5.168V41.362A5.168,5.168,0,0,0,5.168,46.53H41.362a5.183,5.183,0,0,0,5.168-5.168V10.34ZM23.266,41.362a7.745,7.745,0,1,1,5.487-2.269,7.756,7.756,0,0,1-5.487,2.269Zm7.755-25.851H5.168V5.168H31.021Z"/></g><g transform="translate(1287.184 29366.891)"><path d="M29.989,26.39h-1.9l-.672-.647a15.569,15.569,0,1,0-1.678,1.682l.647.672v1.9l12,11.97,3.575-3.575Zm-14.395,0a10.781,10.781,0,1,1,7.639-3.158,10.8,10.8,0,0,1-7.639,3.158Z"/></g><g transform="translate(1417.92 29218.723)"><g transform="translate(0 0)"><path d="M23.05,2.573V47.752a2.556,2.556,0,0,1-3.1,2.51,25.762,25.762,0,0,1,0-50.2A2.555,2.555,0,0,1,23.05,2.573Zm5.2,0V20.017a2.57,2.57,0,0,0,2.561,2.561H48.2a2.57,2.57,0,0,0,2.51-3.125A25.727,25.727,0,0,0,31.375.066a2.566,2.566,0,0,0-3.126,2.507Zm0,27.737V47.752a2.566,2.566,0,0,0,3.126,2.51A25.753,25.753,0,0,0,50.737,30.849a2.589,2.589,0,0,0-2.51-3.124H30.837a2.615,2.615,0,0,0-2.588,2.588Z" transform="translate(0 -0.003)"/></g></g><g transform="translate(726.568 29493.063)"><g transform="translate(-0.327 0.129)"><rect width="40.681" height="40.681" rx="20.341" transform="translate(9.362 8.459)"/><rect width="4.662" height="16.104" transform="translate(54.281 20.748)"/><rect width="4" height="16" transform="translate(37.759 -0.191) rotate(90)"/><rect width="5" height="15" transform="translate(-0.241 20.809)"/><rect width="4.662" height="16.104" transform="translate(37.754 53.378) rotate(90)"/></g></g><g transform="translate(874.741 29499.723)"><g transform="translate(0 0)"><path d="M42.843.025a1.117,1.117,0,0,0-.833.357l-1.88,1.881a1.179,1.179,0,0,1-1.69,0L36.559.382a1.179,1.179,0,0,0-1.69,0l-1.88,1.881a1.179,1.179,0,0,1-1.69,0L29.418.382a1.179,1.179,0,0,0-1.69,0l-1.88,1.881a1.179,1.179,0,0,1-1.69,0L22.278.382a1.179,1.179,0,0,0-1.69,0l-1.88,1.881a1.179,1.179,0,0,1-1.69,0l-1.9-1.9a1.179,1.179,0,0,0-1.69,0l-1.88,1.9a1.179,1.179,0,0,1-1.69,0L7.973.358a1.179,1.179,0,0,0-1.69,0L4.4,2.262a1.179,1.179,0,0,1-1.69,0L.833.358A1.189,1.189,0,0,0,0,.025V46.652a1.116,1.116,0,0,0,.833-.357l1.881-1.881a1.179,1.179,0,0,1,1.69,0l1.88,1.881a1.179,1.179,0,0,0,1.69,0l1.881-1.881a1.179,1.179,0,0,1,1.69,0l1.88,1.881a1.179,1.179,0,0,0,1.69,0l1.881-1.881a1.179,1.179,0,0,1,1.69,0l1.88,1.881a1.179,1.179,0,0,0,1.69,0l1.881-1.881a1.179,1.179,0,0,1,1.69,0l1.882,1.881a1.179,1.179,0,0,0,1.69,0l1.881-1.881a1.179,1.179,0,0,1,1.69,0l1.88,1.881a1.179,1.179,0,0,0,1.69,0l1.881-1.881a1.179,1.179,0,0,1,1.69,0l1.88,1.881a1.2,1.2,0,0,0,.833.357V.025Zm-9.521,35.2H9.521a2.38,2.38,0,1,1,0-4.76h23.8a2.38,2.38,0,1,1,0,4.76Zm0-9.521H9.521a2.38,2.38,0,1,1,0-4.76h23.8a2.38,2.38,0,0,1,0,4.76Zm0-9.521H9.521a2.38,2.38,0,1,1,0-4.76h23.8a2.38,2.38,0,1,1,0,4.76Z" transform="translate(0 -0.001)"/></g></g><g transform="translate(1147.097 29928.883)"><g transform="translate(0 0)"><path d="M36.983,8.215H32.5A6.149,6.149,0,0,0,21.574,2.771L20.546,4.147l-1.027-1.4A6.188,6.188,0,0,0,14.382,0,6.122,6.122,0,0,0,8.588,8.215H4.109A4.078,4.078,0,0,0,.02,12.325L0,34.926a4.1,4.1,0,0,0,4.109,4.109H36.983a4.1,4.1,0,0,0,4.109-4.109v-22.6a4.1,4.1,0,0,0-4.109-4.109ZM26.71,4.106a2.055,2.055,0,1,1-2.055,2.055A2.055,2.055,0,0,1,26.71,4.106Zm-12.328,0a2.055,2.055,0,1,1-2.055,2.055,2.055,2.055,0,0,1,2.055-2.055Zm20.546,30.82H6.164a2.061,2.061,0,0,1-2.055-2.055V30.817H36.983v2.054a2.061,2.061,0,0,1-2.055,2.055Zm2.055-10.273H4.111V14.38a2.061,2.061,0,0,1,2.055-2.055h8.381l-3.041,4.15a2.044,2.044,0,0,0,.452,2.877h0a2.059,2.059,0,0,0,2.856-.452l5.732-7.808L26.279,18.9a2.059,2.059,0,0,0,2.856.452h0a2.044,2.044,0,0,0,.452-2.877l-3.041-4.15h8.383a2.061,2.061,0,0,1,2.055,2.055Z" transform="translate(0 0.003)"/></g></g><g transform="translate(1145.075 29499.164)"><g transform="translate(0 0)"><path d="M.842,41.728,5.815,46.7a2.089,2.089,0,0,0,3.027,0L28.517,27.026a13.875,13.875,0,0,0,14.918-3.243,13.934,13.934,0,0,0,2.811-16l-9.513,9.3-6.488-6.486,9.3-9.3a14.29,14.29,0,0,0-16,2.81A13.875,13.875,0,0,0,20.3,19.025L.625,38.7A1.948,1.948,0,0,0,.842,41.728Z" transform="translate(-0.002 0.001)"/></g></g><g transform="translate(1277.955 29507.289)"><path d="M465.41,8.652H445.258V0L433.48,11.555,445.258,23.11v-8.7H465.41Z" transform="translate(-407.793)"/><path d="M0,305.949H20.152V314.6L31.93,303.045,20.152,291.49v8.7H0Z" transform="translate(0 -274.217)"/></g><g transform="translate(1426.798 29507.117)"><g transform="translate(0 0)"><rect width="18.052" height="18.052" rx="9.026" transform="translate(22.987 21.407)"/><ellipse cx="9.026" cy="9.026" rx="9.026" ry="9.026" transform="translate(22.987)"/><path d="M18.52,362.938,11.059,377.86a.968.968,0,0,0,.866,1.4H26.846a.967.967,0,0,0,.865-1.4l-7.459-14.922a.967.967,0,0,0-1.732,0Z" transform="translate(-10.276 -339.801)"/><path d="M9.438,6.836,12,12.022a.331.331,0,0,0,.249.181l5.722.83a.33.33,0,0,1,.183.561l-4.142,4.041a.329.329,0,0,0-.095.292l.977,5.7a.331.331,0,0,1-.479.349L9.3,21.285a.331.331,0,0,0-.307,0L3.869,23.977a.331.331,0,0,1-.48-.349l.978-5.7a.332.332,0,0,0-.1-.292L.131,13.6a.33.33,0,0,1,.183-.561L6.037,12.2a.332.332,0,0,0,.249-.181L8.844,6.836a.331.331,0,0,1,.594,0Z" transform="translate(-0.033 -6.236)"/></g></g><g transform="translate(456.999 29498.008)"><path d="M19.041,0A19.027,19.027,0,0,0,0,19.041C0,33.322,19.041,54.4,19.041,54.4S38.082,33.322,38.082,19.041A19.027,19.027,0,0,0,19.041,0Zm0,25.842a6.8,6.8,0,1,1,6.8-6.8,6.8,6.8,0,0,1-6.8,6.8Z"/></g><g transform="translate(583.181 29506.563)"><g transform="translate(0 0)"><path d="M5.508,36.323,21.8,20.03l9.99,9.992a3.05,3.05,0,0,0,4.458-.123L58.289,5.092A3.089,3.089,0,0,0,58.166.88h0A3.074,3.074,0,0,0,53.708,1L34.066,23.074,23.952,12.961a3.06,3.06,0,0,0-4.334,0L.9,31.713a3.06,3.06,0,0,0,0,4.334l.276.276A3.06,3.06,0,0,0,5.508,36.323Z" transform="translate(0.002 0.017)"/></g></g><g transform="translate(736.846 29642.641)"><g transform="translate(0 0)"><rect width="3.399" height="3.399" rx="1.699" transform="translate(8.591 15.909)"/><rect width="3.399" height="3.399" rx="1.699" transform="translate(8.591 22.187)"/><rect width="3.399" height="3.399" rx="1.699" transform="translate(8.591 28.464)"/><path d="M410.039,313.5H392.278a3.152,3.152,0,0,1-3.148-3.148V283.308a3.152,3.152,0,0,1,3.148-3.148h14.934l5.975,5.5v24.693A3.152,3.152,0,0,1,410.039,313.5Zm-17.761-30.508a.317.317,0,0,0-.316.316v27.043a.317.317,0,0,0,.316.316h17.761a.316.316,0,0,0,.316-.316V286.9l-4.248-3.909Z" transform="translate(-370.762 -266.935)"/><path d="M737.047,316.242h-3.379a3.152,3.152,0,0,1-3.148-3.148V310.12h2.832v2.974a.316.316,0,0,0,.316.316h3.379Z" transform="translate(-696.038 -295.481)"/><rect width="14.331" height="1.562" transform="translate(23.231 22.559)"/><rect width="14.331" height="1.562" transform="translate(23.231 26.872)"/><rect width="14.331" height="1.562" transform="translate(23.231 31.185)"/><rect width="14.331" height="1.562" transform="translate(23.231 35.668)"/><path d="M316.16,337h-1.452a.708.708,0,0,0-.708.708v1.982a.708.708,0,0,0,.708.708h1.452Z" transform="translate(-299.179 -321.092)"/><path d="M16.981,41.806H6.278A1.086,1.086,0,0,1,5.192,40.72V9A1.086,1.086,0,0,1,6.278,7.915h4.484V8.2a1.888,1.888,0,0,0,1.888,1.888H24.545A1.888,1.888,0,0,0,26.433,8.2V7.915h4.69A1.086,1.086,0,0,1,32.208,9v1.794h4.7V5.46a2.455,2.455,0,0,0-2.455-2.454H26.433V2.628a1.882,1.882,0,0,0-.553-1.335A1.928,1.928,0,0,0,24.545.74,23.773,23.773,0,0,0,12.65.74a1.888,1.888,0,0,0-1.888,1.888v.378H2.454A2.454,2.454,0,0,0,0,5.46v38.8a2.454,2.454,0,0,0,2.454,2.454H16.981Z" transform="translate(0 0.016)"/><path d="M316.16,470h-1.452a.708.708,0,0,0-.708.708v1.982a.708.708,0,0,0,.708.708h1.452Z" transform="translate(-299.179 -447.814)"/><path d="M316.16,603h-1.452a.708.708,0,0,0-.708.708v1.982a.708.708,0,0,0,.708.708h1.452Z" transform="translate(-299.179 -574.536)"/></g></g><g transform="translate(868.662 29652.395)"><path d="M128.363,435.359l-.01-.009c-.121.241-.22.461-.3.652a5.65,5.65,0,0,0-.557,2.19,2.6,2.6,0,0,0,.321,1.579,1.83,1.83,0,0,0,1.26.881c.561.051.983-.289,1.549-.744a5.4,5.4,0,0,0,1.169-1.31l.231-.414a2.659,2.659,0,0,0,.4-.484Z" transform="translate(-118.136 -403.399)"/><rect width="3.38" height="4.795" rx="1.69" transform="translate(27.843 36.523) rotate(46.16)"/><path d="M271.563,173.1a18.434,18.434,0,0,0-1.293-1.965,18.628,18.628,0,0,0-1.321-1.568,2.623,2.623,0,0,0-1.388-.892l-.227,0a21.089,21.089,0,0,1-8.841-1.68,3.152,3.152,0,0,0-1.658.035q-1.814.372-3.788.68-1.268.2-2.481.343a4.06,4.06,0,0,0-1.317,1.182,7.867,7.867,0,0,0-.627,1.234,7.257,7.257,0,0,1-1.312,1.824l-1.327,1.288a1.335,1.335,0,0,0-.073,1.008c.382.954,2.283,1.06,3.407.843a5.3,5.3,0,0,0,3.22-2.262c.064-.024.136-.049.212-.073.1-.132.2-.261.284-.383.2-.073.44-.157.725-.235a9.673,9.673,0,0,1,2.708-.514c.253.043.5.1.728.161a7.805,7.805,0,0,1,3.811,1.943l7.039,6.059a23.185,23.185,0,0,1,2.894,2.715c.42.468.8.935,1.154,1.394.047.073.092.139.134.206.54-.343,1.1-.724,1.64-1.129a8.714,8.714,0,0,0,1.7-1.607,8.135,8.135,0,0,0,.784-1.2Z" transform="translate(-227.798 -154.649)"/><path d="M371.449,476.674h0a3.069,3.069,0,0,1,.287.752,2.334,2.334,0,0,1,1.668.719h0a2.348,2.348,0,0,1,.343,2.789,3.4,3.4,0,0,0,1.922-.964,3.17,3.17,0,0,0,.5-.687l-5.231-3.3A3.1,3.1,0,0,1,371.449,476.674Z" transform="translate(-343.716 -441.047)"/><path d="M157.634,176.073a5.886,5.886,0,0,0-.69-1.341c-.31-.406-.648-.818-1.019-1.23a20.484,20.484,0,0,0-2.554-2.4l-6.211-5.348a6.881,6.881,0,0,0-3.492-1.738,8.359,8.359,0,0,0-2.348.445c-.244.068-.456.139-.628.2a7.552,7.552,0,0,1-1.816,1.844,7,7,0,0,1-2.921,1.338c-1.727.332-4.649.175-5.236-1.3a2.077,2.077,0,0,1,.117-1.55l.7-.679c0-.007.006-.014.008-.021l1.489-1.448a11.3,11.3,0,0,0,1.591-2.137c.022-.043.044-.085.064-.126.252-.5.353-.841.6-1.252a5.605,5.605,0,0,1,.562-1.018,6.164,6.164,0,0,1,1.816-1.692l-2.3.419-3.649.866L124,173.543A9.247,9.247,0,0,0,126.618,177l5.969,2.885a2.662,2.662,0,0,1,.908-.807l1.215-.661a2.671,2.671,0,0,1,3.62,1.078h0l.034.068.091-.049a3.071,3.071,0,0,1,2.394-.226.608.608,0,0,1,.924-.633l6.849,4.37a2.908,2.908,0,0,0,2.263-.622,2.334,2.334,0,0,0,.232-.241l-8.3-5.771a.609.609,0,0,1,.695-1l8.837,6.146a2.423,2.423,0,0,0,2.372-1.454l-9.15-7.192a.608.608,0,0,1,.752-.954l9.311,7.318a2,2,0,0,0,2-3.181Z" transform="translate(-114.9 -145.135)"/><path d="M287.729,479.551l1.813-1.742a2.193,2.193,0,0,1,.415-.313,2.353,2.353,0,0,0-.142-.318h0a2.306,2.306,0,0,0-3.126-.931l-1.608.87a2.307,2.307,0,0,0-.931,3.126h0a2.306,2.306,0,0,0,2.9,1.036A2.2,2.2,0,0,1,287.729,479.551Z" transform="translate(-263.038 -441.037)"/><path d="M247.38,459.918l1.362-.734a1.952,1.952,0,0,0-.084-.177h0a2.1,2.1,0,0,0-2.846-.848l-.954.517a2.1,2.1,0,0,0-.848,2.846h0a2.1,2.1,0,0,0,1.816,1.1A2.971,2.971,0,0,1,247.38,459.918Z" transform="translate(-225.867 -424.3)"/><path d="M0,35.06V58.237l5.362,2.656L14.79,43.214Z" transform="translate(0 -32.487)"/><path d="M581.818,0,567.55,10.582,579.262,26.84l2.556-1.728Z" transform="translate(-525.897)"/></g><g transform="translate(873.424 29349.125)"><g transform="translate(0)"><rect width="12.971" height="3.81" transform="translate(16.476 3.673)"/><rect width="12.971" height="1.746" transform="translate(16.476 11.572)"/><rect width="12.971" height="1.595" transform="translate(16.476 16.712)"/><rect width="12.971" height="1.733" transform="translate(16.476 21.867)"/><path d="M38.246,24.361H33.84V0H11.058V24.361H6.652A6.652,6.652,0,0,0,0,31.013v30.93H44.9V31.013A6.652,6.652,0,0,0,38.246,24.361ZM7.039,57.868a3.45,3.45,0,1,1,3.45-3.45,3.45,3.45,0,0,1-3.45,3.45Zm25.3-25.941H12.555V1.5H32.343Z" transform="translate(0)"/></g></g><g transform="translate(1149.243 29646.625)"><g transform="translate(0 0)"><path d="M26.028,41.424H3.753A3.757,3.757,0,0,1,0,37.671V3.753A3.757,3.757,0,0,1,3.753,0H22.407l7.376,6.786V37.671A3.757,3.757,0,0,1,26.028,41.424ZM3.753,3.161a.593.593,0,0,0-.592.592V37.671a.593.593,0,0,0,.592.592H26.028a.592.592,0,0,0,.593-.592V8.173L21.174,3.161Z" transform="translate(0 0)"/><path d="M391.581,37.482h-4.238a3.757,3.757,0,0,1-3.753-3.752V30h3.161v3.727a.592.592,0,0,0,.592.593h4.238Z" transform="translate(-363.38 -28.419)"/><path d="M256.244,170.26H253.12v33.888a2.549,2.549,0,0,1-2.589,2.508H231.77a2.129,2.129,0,0,0,2.113,1.866h22.361a2.13,2.13,0,0,0,2.13-2.13v-34A2.13,2.13,0,0,0,256.244,170.26Z" transform="translate(-219.559 -161.289)"/><rect width="4.213" height="12.242" transform="translate(10.54 7.616)"/><rect width="3.876" height="12.242" transform="translate(6.524 15.676) rotate(-90)"/><rect width="3.876" height="12.242" transform="translate(11.431 33.228) rotate(-90)"/></g></g><g transform="translate(597.334 29636.445)"><rect width="11.947" height="3.509" transform="translate(15.171 3.395)"/><rect width="11.947" height="1.605" transform="translate(15.171 10.67)"/><rect width="11.947" height="1.469" transform="translate(15.171 15.406)"/><rect width="11.947" height="1.598" transform="translate(15.171 20.156)"/><path d="M32.025,22.453h-.849V0H10.171V22.453H9.329A9.322,9.322,0,0,0,0,31.775V57.06H41.368V31.775a9.322,9.322,0,0,0-9.344-9.322ZM6.483,53.229a3.1,3.1,0,1,1,3.1-3.1,3.1,3.1,0,0,1-3.1,3.1Zm21.262-2.96a1.384,1.384,0,0,1-.549.521,1.655,1.655,0,0,1-.8.193,1.526,1.526,0,0,1-.813-.2,1.612,1.612,0,0,1-.535-.492c-.143-.2-.392-.585-.77-1.155L21.333,44.5,18.2,49.271c-.243.385-.414.649-.521.8a2.383,2.383,0,0,1-.371.449,1.619,1.619,0,0,1-.514.342,1.712,1.712,0,0,1-.713.121,1.3,1.3,0,0,1-1.412-1.441,3.923,3.923,0,0,1,.834-2.068l3.752-5.5-3.153-4.886a9.693,9.693,0,0,1-.67-1.22,2.389,2.389,0,0,1-.221-.92,1.141,1.141,0,0,1,.428-.863,1.5,1.5,0,0,1,1.041-.385,1.427,1.427,0,0,1,1.106.421,10.257,10.257,0,0,1,1.091,1.541L21.4,39.7l2.682-4.037.563-.877a4.786,4.786,0,0,1,.449-.606,1.469,1.469,0,0,1,.485-.364,1.526,1.526,0,0,1,.621-.121,1.462,1.462,0,0,1,1.048.385,1.205,1.205,0,0,1,.407.87,4.208,4.208,0,0,1-.877,2.083l-3.3,4.936,3.566,5.471a9.7,9.7,0,0,1,.713,1.191,2.225,2.225,0,0,1,.214.9A1.426,1.426,0,0,1,27.745,50.269ZM29.771,29.4H11.576V1.426H29.771Z"/></g><g transform="translate(1008.492 29636.969)"><g transform="translate(0 0.035)"><path d="M252.9,358.64H229.455a.4.4,0,0,0-.395.395v17.228a.4.4,0,0,0,.395.395h8.583v3.2H230.8a.4.4,0,0,0-.395.395v4.38a.4.4,0,0,0,.395.395h.158v2.584H251.4v-2.584h.158a.394.394,0,0,0,.394-.395v-4.38a.394.394,0,0,0-.394-.395h-7.242v-3.2H252.9a.4.4,0,0,0,.395-.395v-17.23a.395.395,0,0,0-.4-.393Zm-20.586,24.6a.8.8,0,1,1,.8-.8A.8.8,0,0,1,232.31,383.238Z" transform="translate(-212.248 -332.32)"/><path d="M21.363,20.045h-2.28l-.1-.033a10.459,10.459,0,1,0-8.67,0A14.654,14.654,0,0,0,0,34.007V53.856a1.468,1.468,0,0,0,1.468,1.468H13.112V22.614h8.25a1.284,1.284,0,0,0,1.284-1.284h0a1.284,1.284,0,0,0-1.284-1.284Z" transform="translate(0 -0.035)"/></g></g></g></svg>