<svg xmlns="http://www.w3.org/2000/svg" width="106" height="106" viewBox="0 0 106 106"><g transform="translate(-1352 -325)"><rect width="106" height="106" transform="translate(1352 325)" fill="none"/><path d="M24.315,28.839c2.681,1.376,4.566,5.288,4.566,8.187v6.6a2.967,2.967,0,0,1-.049.417c0,.023-.007.046-.01.07a1.316,1.316,0,0,0-.011.165l.011,0v.037a35.454,35.454,0,0,1-9.577,1.307,35.614,35.614,0,0,1-7.084-.707A4.259,4.259,0,0,1,12,43.7V38.77H8.376a4.95,4.95,0,0,1-4.566-2.464c-.942-1.739-1.088-4.42-3.478-6.088-.725-.58-.146-1.159.651-1.088A7.6,7.6,0,0,1,4.9,32.1c1.159,1.519,1.667,1.884,3.84,1.884a29.216,29.216,0,0,0,4.058-.291,8.983,8.983,0,0,1,3.84-4.709C6.926,27.825,2.289,23.043,2.289,16.521A11.96,11.96,0,0,1,5.549,8.695C4.9,6.448,4.028,1.81,5.841,0a10.284,10.284,0,0,1,7.607,3.549A22.312,22.312,0,0,1,20.475,2.39,21.963,21.963,0,0,1,27.5,3.549,10.28,10.28,0,0,1,35.109,0c1.739,1.739.942,6.448.217,8.695a11.734,11.734,0,0,1,3.189,7.826C38.515,23.043,33.95,27.825,24.315,28.839Z" transform="translate(1385.45 354.921)"/></g></svg>