<svg xmlns="http://www.w3.org/2000/svg" width="106" height="106" viewBox="0 0 106 106"><g transform="translate(-1198 -325)"><rect width="106" height="106" transform="translate(1198 325)" fill="none"/><path d="M8.987,37.84V12.308H.5V37.84ZM4.745,8.823c2.959,0,4.8-1.961,4.8-4.411A4.41,4.41,0,0,0,4.8,0C1.9,0,0,1.906,0,4.412A4.393,4.393,0,0,0,4.69,8.822h.056ZM13.684,37.84H22.17V23.583a5.813,5.813,0,0,1,.279-2.07,4.643,4.643,0,0,1,4.355-3.1c3.07,0,4.3,2.341,4.3,5.774V37.84h8.486V23.2c0-7.842-4.186-11.491-9.77-11.491a8.455,8.455,0,0,0-7.7,4.3h.056v-3.7H13.685c.111,2.4,0,25.532,0,25.532Z" transform="translate(1231.286 358.794)"/></g></svg>