<svg xmlns="http://www.w3.org/2000/svg" width="96" height="96" viewBox="0 0 96 96">
  <defs>
    <linearGradient id="linear-gradient" x1="0.5" x2="0.5" y2="1" gradientUnits="objectBoundingBox">
      <stop offset="0" stop-color="#9b9b9b"/>
      <stop offset="1" stop-color="#565656"/>
    </linearGradient>
  </defs>
  <g id="Group_434" data-name="Group 434" transform="translate(-1198 -1133)">
    <circle id="Ellipse_61" data-name="Ellipse 61" cx="48" cy="48" r="48" transform="translate(1198 1133)" fill="url(#linear-gradient)"/>
    <g id="Layer_2" data-name="Layer 2" transform="translate(1229.082 1149.369)">
      <g id="Layer_1" data-name="Layer 1">
        <path id="Path_681" data-name="Path 681" d="M1278.236,1966.053H1278v-.133h.638v.133h-.235v.662h-.166Zm1.273.035h0l-.235.627h-.108l-.233-.627h0v.627h-.156v-.794h.23l.216.563.216-.562h.229v.794h-.153Z" transform="translate(-1245.825 -1916.426)" fill="#fff"/>
        <path id="Path_682" data-name="Path 682" d="M314.4,1143.006s-1.65.959,1.174,1.284a24.694,24.694,0,0,0,8.937-.379,15.543,15.543,0,0,0,2.375,1.16c-8.45,3.622-19.124-.21-12.487-2.064m-1.032-4.726s-1.85,1.37.975,1.662a34.843,34.843,0,0,0,11.533-.554,5.113,5.113,0,0,0,1.777,1.083c-10.217,2.988-21.6.236-14.285-2.19" transform="translate(-303.209 -1109.623)" fill="#fff"/>
        <path id="Path_683" data-name="Path 683" d="M675.141,362.023c2.082,2.4-.547,4.555-.547,4.555s5.287-2.729,2.859-6.147c-2.268-3.186-4.007-4.771,5.408-10.23,0,0-14.778,3.691-7.719,11.823" transform="translate(-656.282 -341.383)" fill="#fff"/>
        <path id="Path_684" data-name="Path 684" d="M66.2,940.717s1.221,1.007-1.344,1.784c-4.877,1.478-20.3,1.924-24.585.059-1.54-.67,1.348-1.6,2.257-1.8a5.859,5.859,0,0,1,1.489-.167c-1.712-1.206-11.071,2.369-4.753,3.393,17.229,2.795,31.407-1.259,26.938-3.273M48.143,927.6s-7.845,1.863-2.778,2.54a58.92,58.92,0,0,0,10.377-.111c3.248-.274,6.507-.856,6.507-.856a13.78,13.78,0,0,0-1.973,1.056c-7.967,2.093-23.358,1.118-18.927-1.025a14.846,14.846,0,0,1,6.793-1.606m14.073,7.867c8.1-4.208,4.355-8.253,1.741-7.708a6.078,6.078,0,0,0-.926.249,1.477,1.477,0,0,1,.692-.534c5.171-1.818,9.147,5.363-1.669,8.2a.7.7,0,0,0,.163-.212" transform="translate(-36.162 -903.84)" fill="#fff"/>
        <path id="Path_685" data-name="Path 685" d="M454.571,0s4.485,4.487-4.255,11.386c-7.008,5.534-1.6,8.69,0,12.295-4.089-3.691-7.091-6.939-5.077-9.963C448.192,9.279,456.381,7.127,454.571,0" transform="translate(-433.4)" fill="#fff"/>
        <path id="Path_686" data-name="Path 686" d="M271.173,1556.054c7.774.5,19.711-.277,19.993-3.954,0,0-.543,1.394-6.424,2.5a63.9,63.9,0,0,1-19.672.3s.994.822,6.1,1.15" transform="translate(-258.397 -1513.025)" fill="#fff"/>
        <path id="Path_687" data-name="Path 687" d="M11.5,1836.977a3.529,3.529,0,0,1-2.2.993,1.4,1.4,0,0,1-1.528-1.549c0-1.032.575-1.788,2.878-1.788H11.5v2.342m2.023,2.283v-7.067c0-1.806-1.03-3-3.512-3a9.257,9.257,0,0,0-3.751.814l.3,1.251a8.721,8.721,0,0,1,2.9-.576c1.43,0,2.045.576,2.045,1.766v.893h-.713c-3.474,0-5.042,1.349-5.042,3.374,0,1.747,1.032,2.74,2.978,2.74a4.491,4.491,0,0,0,3.056-1.271l.158,1.073Zm6.753,0H17.755l-3.037-9.883h2.2l1.885,6.073.419,1.827a37.979,37.979,0,0,0,1.965-7.9h2.144a40.157,40.157,0,0,1-3.056,9.885m9.681-2.283a3.539,3.539,0,0,1-2.206.993,1.405,1.405,0,0,1-1.528-1.549c0-1.032.576-1.788,2.879-1.788h.854v2.342m2.023,2.283v-7.067c0-1.806-1.032-3-3.512-3a9.248,9.248,0,0,0-3.751.814l.3,1.251a8.734,8.734,0,0,1,2.9-.576c1.429,0,2.045.576,2.045,1.766v.893h-.715c-3.476,0-5.042,1.349-5.042,3.374,0,1.747,1.032,2.74,2.977,2.74a4.5,4.5,0,0,0,3.058-1.271l.159,1.073Zm-28.455,1.68A5.317,5.317,0,0,1,1,1842.824l-1-1.175a4.193,4.193,0,0,0,1.751-1.641,6.341,6.341,0,0,0,.378-2.862V1825.86H4.28v11.131c0,2.2-.176,3.083-.752,3.948" transform="translate(0 -1779.892)" fill="#fff"/>
      </g>
    </g>
  </g>
</svg>
