<svg xmlns="http://www.w3.org/2000/svg" width="96" height="96" viewBox="0 0 96 96">
  <defs>
    <linearGradient id="linear-gradient" x1="0.5" x2="0.5" y2="1" gradientUnits="objectBoundingBox">
      <stop offset="0" stop-color="#9b9b9b"/>
      <stop offset="1" stop-color="#565656"/>
    </linearGradient>
  </defs>
  <g id="Group_429" data-name="Group 429" transform="translate(-1363 -917)">
    <circle id="Ellipse_36" data-name="Ellipse 36" cx="48" cy="48" r="48" transform="translate(1363 917)" fill="url(#linear-gradient)"/>
    <g id="Layer_2" data-name="Layer 2" transform="translate(1374 954)">
      <g id="Layer_1" data-name="Layer 1">
        <path id="Path_701" data-name="Path 701" d="M.487,16.912V8.578H10.893V8.09H.487V.487H11.551V0H0V17.4H11.648v-.487ZM21.031,4.874l-4.313,5.678L12.5,4.874h-.634l4.557,6.044-5,6.482h.585l4.7-6.117L21.445,17.4h.609l-5.02-6.482,4.581-6.044h-.585Zm2.486,16.815v-7.8h.049a5.006,5.006,0,0,0,1.73,2.741,5.092,5.092,0,0,0,3.29,1.036,4.762,4.762,0,0,0,3.96-1.949,6.638,6.638,0,0,0,1.024-2.1,8.8,8.8,0,0,0,.353-2.51A8.868,8.868,0,0,0,33.557,8.5,6.248,6.248,0,0,0,32.5,6.433a4.873,4.873,0,0,0-1.681-1.365,4.97,4.97,0,0,0-2.23-.487,5.416,5.416,0,0,0-1.767.28,4.728,4.728,0,0,0-1.45.792,5.359,5.359,0,0,0-1.1,1.207,5.554,5.554,0,0,0-.707,1.523h-.049V4.874h-.487V21.689ZM28.585,17.2a4.67,4.67,0,0,1-3.68-1.572,6.617,6.617,0,0,1-1.389-4.52A7.74,7.74,0,0,1,23.858,8.8a5.986,5.986,0,0,1,.987-1.925,4.737,4.737,0,0,1,1.6-1.316,4.628,4.628,0,0,1,2.144-.488,4.462,4.462,0,0,1,2.132.488,4.318,4.318,0,0,1,1.511,1.328,6.191,6.191,0,0,1,.9,1.925,8.491,8.491,0,0,1,.3,2.3,8.679,8.679,0,0,1-.28,2.181,6.237,6.237,0,0,1-.865,1.95,4.7,4.7,0,0,1-1.5,1.413,4.208,4.208,0,0,1-2.206.548ZM36.6,17.4V10.308a6.915,6.915,0,0,1,.293-2,4.892,4.892,0,0,1,.9-1.718,4.228,4.228,0,0,1,1.547-1.17,4.7,4.7,0,0,1,2.23-.353V4.581a6.044,6.044,0,0,0-1.962.244,4.766,4.766,0,0,0-1.45.731,3.733,3.733,0,0,0-.975,1.084,4.846,4.846,0,0,0-.536,1.328H36.6V4.874h-.487V17.4H36.6Zm5.581-6.166H52.662a8.674,8.674,0,0,0-.256-2.486,6.183,6.183,0,0,0-.975-2.12A4.961,4.961,0,0,0,49.7,5.14a5.325,5.325,0,0,0-2.522-.561,5.128,5.128,0,0,0-3.8,1.72,6.484,6.484,0,0,0-1.219,2.059,7.774,7.774,0,0,0-.462,2.778,10.187,10.187,0,0,0,.317,2.6,6.092,6.092,0,0,0,.975,2.1,4.4,4.4,0,0,0,1.694,1.378,5.6,5.6,0,0,0,2.5.463,5.481,5.481,0,0,0,3.607-1.206,4.99,4.99,0,0,0,1.73-3.4h-.489a4.685,4.685,0,0,1-1.621,3.107,5.109,5.109,0,0,1-3.278,1.036,5.03,5.03,0,0,1-2.266-.463,4.106,4.106,0,0,1-1.511-1.267,5.529,5.529,0,0,1-.865-1.889A10.172,10.172,0,0,1,42.183,11.233Zm9.991-.487H42.183a7.532,7.532,0,0,1,.487-2.364,5.862,5.862,0,0,1,1.085-1.791,4.533,4.533,0,0,1,1.559-1.133,4.712,4.712,0,0,1,1.913-.389,4.842,4.842,0,0,1,2.144.451A4.433,4.433,0,0,1,50.92,6.75a5.417,5.417,0,0,1,.938,1.816,7.416,7.416,0,0,1,.317,2.181Zm10.6-2.169h.487a3.624,3.624,0,0,0-1.218-3.046,5.261,5.261,0,0,0-3.314-.95,5.809,5.809,0,0,0-1.974.293,3.957,3.957,0,0,0-1.316.755,2.725,2.725,0,0,0-.731,1.024,2.931,2.931,0,0,0-.219,1.072,3.158,3.158,0,0,0,.365,1.633,2.4,2.4,0,0,0,1.145.95,8.8,8.8,0,0,0,1.219.439q.682.2,1.584.414.8.2,1.584.389a5.7,5.7,0,0,1,1.378.524,2.976,2.976,0,0,1,.975.841,2.2,2.2,0,0,1,.378,1.34,2.384,2.384,0,0,1-.378,1.364,3.044,3.044,0,0,1-.964.916,4.292,4.292,0,0,1-1.3.512,6.512,6.512,0,0,1-1.4.158,5.169,5.169,0,0,1-3.4-.989,3.822,3.822,0,0,1-1.182-3.107H54a4.318,4.318,0,0,0,1.279,3.461,5.688,5.688,0,0,0,3.789,1.1,7.4,7.4,0,0,0,1.621-.183,4.509,4.509,0,0,0,1.462-.6A3.309,3.309,0,0,0,63.2,15.816a3.03,3.03,0,0,0,.4-1.609,2.707,2.707,0,0,0-.353-1.462,2.966,2.966,0,0,0-.926-.926,4.9,4.9,0,0,0-1.292-.573q-.723-.21-1.45-.4-.9-.235-1.791-.463a10.87,10.87,0,0,1-1.426-.463,2.434,2.434,0,0,1-1.011-.768,2.323,2.323,0,0,1-.378-1.426,3.364,3.364,0,0,1,.1-.609,2.18,2.18,0,0,1,.463-.889,3.144,3.144,0,0,1,1.121-.8,4.942,4.942,0,0,1,2.071-.353,6.478,6.478,0,0,1,1.645.2,3.421,3.421,0,0,1,1.279.622,2.829,2.829,0,0,1,.829,1.084,3.952,3.952,0,0,1,.292,1.609Zm11.283,0h.487a3.624,3.624,0,0,0-1.219-3.046,5.261,5.261,0,0,0-3.314-.95,5.816,5.816,0,0,0-1.974.293,3.937,3.937,0,0,0-1.316.755,2.716,2.716,0,0,0-.731,1.024,2.948,2.948,0,0,0-.219,1.072,3.158,3.158,0,0,0,.365,1.633,2.4,2.4,0,0,0,1.145.95,8.807,8.807,0,0,0,1.218.439q.683.2,1.584.414.8.2,1.584.389a5.709,5.709,0,0,1,1.378.524,2.976,2.976,0,0,1,.975.841,2.2,2.2,0,0,1,.378,1.34,2.384,2.384,0,0,1-.378,1.364,3.05,3.05,0,0,1-.963.916,4.292,4.292,0,0,1-1.3.512,6.513,6.513,0,0,1-1.4.158,5.168,5.168,0,0,1-3.4-.989,3.823,3.823,0,0,1-1.182-3.107h-.487a4.318,4.318,0,0,0,1.279,3.461,5.684,5.684,0,0,0,3.789,1.1,7.4,7.4,0,0,0,1.621-.183,4.51,4.51,0,0,0,1.462-.6,3.309,3.309,0,0,0,1.048-1.072,3.03,3.03,0,0,0,.4-1.609,2.705,2.705,0,0,0-.353-1.462,2.96,2.96,0,0,0-.926-.926,4.907,4.907,0,0,0-1.292-.573q-.723-.21-1.45-.4-.9-.235-1.791-.463a10.856,10.856,0,0,1-1.426-.463,2.434,2.434,0,0,1-1.011-.768,2.326,2.326,0,0,1-.379-1.424,3.364,3.364,0,0,1,.1-.609,2.181,2.181,0,0,1,.463-.889,3.141,3.141,0,0,1,1.121-.8,4.943,4.943,0,0,1,2.071-.353,6.478,6.478,0,0,1,1.645.2,3.421,3.421,0,0,1,1.279.622,2.829,2.829,0,0,1,.829,1.084,3.952,3.952,0,0,1,.292,1.609Z" fill="#fff"/>
      </g>
    </g>
  </g>
</svg>
