<svg xmlns="http://www.w3.org/2000/svg" width="96" height="96" viewBox="0 0 96 96">
  <defs>
    <linearGradient id="linear-gradient" x1="0.5" x2="0.5" y2="1" gradientUnits="objectBoundingBox">
      <stop offset="0" stop-color="#9b9b9b"/>
      <stop offset="1" stop-color="#565656"/>
    </linearGradient>
  </defs>
  <g id="Group_433" data-name="Group 433" transform="translate(-1033 -1133)">
    <circle id="Ellipse_62" data-name="Ellipse 62" cx="48" cy="48" r="48" transform="translate(1033 1133)" fill="url(#linear-gradient)"/>
    <g id="Layer_2" data-name="Layer 2" transform="translate(1053.604 1148.717)">
      <g id="Layer_1" data-name="Layer 1" transform="translate(0.001 -0.02)">
        <path id="Path_688" data-name="Path 688" d="M18.841,54.317A2.2,2.2,0,0,0,20.35,50.61c-.886-.869-5.774-4.5-7.049-5.925-.592-.661-1.393-.987-1.734-1.732-.782-1.712-1.329-4.156-.339-5.911.18-.317.295-.175.158.485-.779,3.743,1.659,6.8,2.2,5.233.37-1.083.027-3.022.226-4.561.35-2.721,2.83-7.951,3.919-8.25-1.679-3.111,1.97-5.546,1.925-8.277-.03-1.776,1.559,2.184,3.156,3.023,1.783.937,3.743-1.767,6.526-3.139.787-.388,1.8-.834,1.729-1.167-.327-1.6-3.654,1.97-6.626,2.09a2.719,2.719,0,0,1-2.384-.773c-1.584-1.531.162-.253,2.516-.678a10.177,10.177,0,0,0,2.509-.813,33.229,33.229,0,0,1,3.637-1.455c.875-.238.8-.895.462-1.092-.2-.113-.486-.1-.715.3-.539.933-3.076,1.472-3.866,1.713a10.274,10.274,0,0,1-3.634.541c-2.268-.092-1.74-1.132-3.363-2.063-.476-.273-.347-.989.285-1.621.331-.332,1.239-.518,1.69-1.272a6.258,6.258,0,0,1,1.1-1.027c.157-.109.171-2.879-1.251-2.936-1.21-.049-1.553.887-1.5,1.82s.544,1.7.873,1.7c.634-.007.041.693-.306.806-.527.172-1.25-2.076-1.167-3.155.087-1.124.672-3.114,2.095-3.076,1.28.035,2.21,1.641,2.162,4.411-.009.47,2.077-.224,2.773.511.5.527-1.705-4.908,3.2-5.282,1.292.247,2.533.678,3.049,3.648-.191.309.321,2.382-.476,2.627-.974.3-1.575-.043-1.012-.97.385-.931.009-3.3-1.961-3.157s-1.708,3.637-1.169,3.708,1.9,1.034,2.85,1.219c3.116.606.828,2.393,1.231,4.555.457,2.442,2.065,1.8,3.511,8.265.3.394,1.5.767,2.667,5.736,1.05,4.47-.437,7.721,2.087,7.454a1.82,1.82,0,0,0,1.76-1.486c.945-3.31-.473-7.256-1.9-9.918a12.568,12.568,0,0,0-2.033-2.974,11.744,11.744,0,0,1,4.221,6.366c.636,3.021,1.089,4.3.128,7.492.555.277,1.936.866,1.936,1.523-1.438-1.183-5.842-1.393-5.956,1.435a2.1,2.1,0,0,0-1.8.651c-1.769,2.1-.127,6.321-.306,8.584-.158,1.991-.71,3.964-1.023,5.964-1.054-.04-.951-.812-.612-1.894a12.653,12.653,0,0,0,.811-3.3c.029-1.038-.085-1.687-.346-1.848s-.672.165-1.239,1.078c-1.21,1.947-3.829,2.8-6.275,3.111s-4.719.064-5.923-1.285c-.412-.462-1.094.126-1.175.248-.109.164.4.482.781,1.184.559,1.024,1.089,2.579-.233,3.288.017-3.606-1.125-3.818-2.292-6.024Zm-.874-.1c.876,1.38,3.965,7.191-1.449,7.944-1.811.252-4.727-1.054-7.552-1.745-2.538-.621-5.116-.988-6.559-1.393-.869-.243-1.231-.555-1.307-.919-.2-.965,1.054-2.316,1.118-3.458a5.284,5.284,0,0,0-.809-2.667c-.393-.93-.5-1.634-.181-2.033.245-.311.743-.442,1.554-.363a5.337,5.337,0,0,0,2.934-.515,3.139,3.139,0,0,0,1.146-3.779,2.932,2.932,0,0,1-1.9,3.038c-1.28.715-3.26.136-4.169.926-1.094.949.39,3.4.269,5.2C.965,55.838-.478,57.4.166,58.782S3.832,60.33,6.98,60.987c4.474.936,7.081,2.565,9.148,2.641,3.015.113,3.477-2.983,8.211-3.025,1.381-.072,2.731-.115,4.081-.133,1.528-.019,3.055-.007,4.623.031,3.151.075,2.067,1.72,4.111,2.77,1.725.886,4.826.536,5.567-.172a30.189,30.189,0,0,1,5.764-4.3c2.574-1.3,8.618-3.53,4.23-6.252-1.023-.635-3.441-1.306-3.644-5.948-.916.813-.81,5.138,1.745,6,2.854.958,4.637,2.563-.668,4.378A15.921,15.921,0,0,0,43.26,60.86C40.446,63.2,36.271,62.272,37,57.341a15.827,15.827,0,0,0-.04-6.927,7.891,7.891,0,0,1-.254-3.471c.414-1.908,1.448-2.482,2.461-.651.635,1.15.858,2.494,3.134,2.6,3.574.171,4.282-3.454,5.424-3.619.762-.11,1.524-2.267.941-5.756-.622-3.734-2.819-9.632-5.637-12.623a18.34,18.34,0,0,1-4.748-7.775,21.729,21.729,0,0,1-1.054-7.589,12.229,12.229,0,0,0-4.321-9.6A12.08,12.08,0,0,0,25.962-.019a8.047,8.047,0,0,0-3.694.762c-4.125,2.241-4.7,5.44-4.64,9.091.058,3.43.175,7.344.565,11.068-.46,1.708-2.863,4.949-4.4,6.922-2.068,2.043-3.112,5.991-4.45,9.44C8.626,39.1,7.425,39.933,7.324,42.3c-.028.661-.005,2.372.626,1.882C10.369,42.309,13.4,47.025,17.967,54.221ZM30.52,4.782c-.13.39-.666.715-.326.987s.536-.381,1.222-.626c.177-.063,1,.026,1.153-.365.066-.171-.425-.366-.715-.645s-.58-.527-.855-.51C30.286,3.668,30.635,4.437,30.52,4.782ZM34.722,19c.256-.268.387.463,1.074.9.544.344,1.074.089,1.211.785.1.5-.213,1.04-.631.97C35.649,21.533,33.969,19.8,34.722,19ZM23.38,14.616c-1.132-.085-1.209.733-.835.72S22.693,14.689,23.38,14.616Zm-1.941-2.089c.134-.029.324.2.264.518-.082.443-.046.721.261.722.051,0,.105-.01.125-.125a1.577,1.577,0,0,0-.5-1.581c-.432-.11-.38.513-.151.464Zm8.234-.373c.287.085.565.582.623,1.119.006.05.376-.075.376-.194a1.209,1.209,0,0,0-.907-1.252c-.445.04-.318.261-.094.328Zm-4.223,2.568c1.029-.477,1.388.262,1.034.38S26.12,14.547,25.451,14.721ZM13.027,32.247c-.486-.059.142-.424.408-.884.293-.506.236-1.137.544-1.044s.136.446-.075,1.026c-.177.494-.695.923-.874.9Z" transform="translate(-0.001 0.02)" fill="#fff" fill-rule="evenodd"/>
      </g>
    </g>
  </g>
</svg>
