<svg xmlns="http://www.w3.org/2000/svg" width="96" height="96" viewBox="0 0 96 96">
  <defs>
    <linearGradient id="linear-gradient" x1="0.5" x2="0.5" y2="1" gradientUnits="objectBoundingBox">
      <stop offset="0" stop-color="#9b9b9b"/>
      <stop offset="1" stop-color="#565656"/>
    </linearGradient>
  </defs>
  <g id="Group_426" data-name="Group 426" transform="translate(-870 -917)">
    <circle id="Ellipse_39" data-name="Ellipse 39" cx="48" cy="48" r="48" transform="translate(870 917)" fill="url(#linear-gradient)"/>
    <g id="Layer_2" data-name="Layer 2" transform="translate(893.007 937.997)">
      <g id="Layer_1" data-name="Layer 1" transform="translate(-0.007 0.002)">
        <path id="Path_708" data-name="Path 708" d="M22.506.584a4.574,4.574,0,0,1,4.465,0Q37.168,6.347,47.365,12.1a4.2,4.2,0,0,1,2.12,3.615v23.11a4.244,4.244,0,0,1-2.279,3.694Q37.045,48.253,26.886,53.988a4.444,4.444,0,0,1-4.514-.126q-3.047-1.766-6.1-3.526A3.591,3.591,0,0,1,15.1,49.49c.259-.349.723-.393,1.1-.545A14.234,14.234,0,0,0,18.6,47.822a.561.561,0,0,1,.626.038c1.737,1,3.458,2.021,5.2,3.007.372.215.748-.07,1.066-.248q9.973-5.636,19.953-11.26a.66.66,0,0,0,.363-.65q.007-11.435,0-22.871a.714.714,0,0,0-.426-.713Q35.261,9.421,25.138,3.711a.7.7,0,0,0-.8,0Q14.215,9.417,4.093,15.128a.708.708,0,0,0-.428.71q0,11.435,0,22.872a.646.646,0,0,0,.367.642q2.7,1.533,5.408,3.054a4.175,4.175,0,0,0,3.381.453,2.565,2.565,0,0,0,1.661-2.41c.009-7.579,0-15.159.007-22.736a.571.571,0,0,1,.621-.583c.866-.006,1.732-.012,2.6,0a.6.6,0,0,1,.565.693c0,7.627.009,15.254-.006,22.881a5.8,5.8,0,0,1-2.713,5.239,8.354,8.354,0,0,1-7.467-.205c-1.982-.988-3.871-2.155-5.816-3.215a4.232,4.232,0,0,1-2.279-3.7V15.72a4.206,4.206,0,0,1,2.193-3.662Q12.347,6.323,22.506.584Z" transform="translate(0.007 -0.002)" fill="#fff"/>
        <path id="Path_709" data-name="Path 709" d="M931.762,753.777c2.955-.19,6.117-.113,8.776,1.343a6.638,6.638,0,0,1,3.236,5.743.621.621,0,0,1-.674.457c-.857,0-1.715.012-2.572-.006a.663.663,0,0,1-.621-.643,3.915,3.915,0,0,0-1.873-2.706,11.1,11.1,0,0,0-5.138-.735,6.97,6.97,0,0,0-3.678.916,2.331,2.331,0,0,0-.775,2.6c.276.654,1.03.866,1.649,1.06,3.56.931,7.334.839,10.826,2.064a5.1,5.1,0,0,1,3.356,2.985,6.377,6.377,0,0,1-1.08,6.083,8.526,8.526,0,0,1-4.576,2.466,22.005,22.005,0,0,1-6.908.293,10.888,10.888,0,0,1-6.076-2.286,6.376,6.376,0,0,1-2.054-5.03.576.576,0,0,1,.631-.508c.863-.007,1.727-.009,2.59,0a.605.605,0,0,1,.618.6,3.924,3.924,0,0,0,1.46,2.755c1.754,1.132,3.956,1.054,5.965,1.086,1.665-.074,3.533-.1,4.891-1.2a2.7,2.7,0,0,0,.735-2.58c-.21-.762-1.008-1.117-1.692-1.35-3.515-1.112-7.33-.708-10.811-1.966a5.261,5.261,0,0,1-3.323-2.9,5.931,5.931,0,0,1,1.184-6.17,9.559,9.559,0,0,1,5.935-2.384Z" transform="translate(-903.339 -737.188)" fill="#fff"/>
      </g>
    </g>
  </g>
</svg>
