<svg xmlns="http://www.w3.org/2000/svg" width="96" height="96" viewBox="0 0 96 96">
  <defs>
    <linearGradient id="linear-gradient" x1="0.5" x2="0.5" y2="1" gradientUnits="objectBoundingBox">
      <stop offset="0" stop-color="#9b9b9b"/>
      <stop offset="1" stop-color="#565656"/>
    </linearGradient>
  </defs>
  <g id="Group_427" data-name="Group 427" transform="translate(-1033 -917)">
    <circle id="Ellipse_38" data-name="Ellipse 38" cx="48" cy="48" r="48" transform="translate(1033 917)" fill="url(#linear-gradient)"/>
    <g id="Layer_2" data-name="Layer 2" transform="translate(1046 934.002)">
      <g id="Layer_1" data-name="Layer 1" transform="translate(0 -0.002)">
        <path id="Path_710" data-name="Path 710" d="M57.055,20.01h0q-1.108-.38-2.233-.7.187-.759.346-1.524c1.691-8.208.585-14.821-3.191-17-3.62-2.088-9.54.089-15.52,5.293q-.884.771-1.728,1.586-.566-.542-1.15-1.062C27.312,1.036,21.031-1.309,17.26.875c-3.617,2.093-4.688,8.31-3.165,16.089q.227,1.155.513,2.3c-.889.252-1.747.521-2.568.808C4.692,22.632,0,26.646,0,30.81c0,4.3,5.037,8.614,12.689,11.23q.931.317,1.876.587-.307,1.231-.545,2.477C12.569,52.748,13.7,58.817,17.31,60.9c3.725,2.148,9.978-.06,16.067-5.382q.723-.631,1.447-1.335.914.881,1.876,1.712c5.9,5.075,11.722,7.124,15.327,5.038,3.722-2.155,4.932-8.675,3.361-16.608q-.18-.909-.416-1.856.66-.194,1.289-.4c7.957-2.636,13.131-6.9,13.131-11.255C69.393,26.631,64.55,22.589,57.055,20.01ZM38.4,8.313C43.526,3.854,48.314,2.094,50.5,3.352h0c2.323,1.34,3.227,6.745,1.767,13.832q-.144.692-.312,1.379A71.055,71.055,0,0,0,42.674,17.1a69.63,69.63,0,0,0-5.866-7.321Q37.587,9.024,38.4,8.313ZM20.49,34.367q.941,1.818,1.967,3.591,1.047,1.807,2.179,3.564a63.141,63.141,0,0,1-6.4-1.028C18.853,38.515,19.608,36.458,20.49,34.367Zm0-6.972c-.862-2.048-1.6-4.061-2.205-6,1.981-.443,4.092-.805,6.291-1.08q-1.1,1.723-2.128,3.5T20.486,27.395Zm1.576,3.487q1.37-2.852,2.952-5.595h0q1.58-2.74,3.365-5.356c2.064-.157,4.18-.238,6.318-.238s4.267.082,6.331.24q1.765,2.61,3.343,5.338t2.991,5.567q-1.39,2.862-2.982,5.617h0q-1.577,2.74-3.329,5.372c-2.059.147-4.187.223-6.355.223s-4.26-.067-6.283-.2q-1.8-2.625-3.391-5.38Q23.436,33.734,22.062,30.882Zm24.887,7.056Q48,36.122,48.961,34.261h0a63.005,63.005,0,0,1,2.33,6.1,63.017,63.017,0,0,1-6.473,1.1q1.1-1.744,2.13-3.531ZM48.933,27.4q-.962-1.824-2-3.611h0q-1.017-1.758-2.11-3.47c2.214.28,4.336.651,6.327,1.106A63.245,63.245,0,0,1,48.933,27.4ZM34.73,11.9a63.573,63.573,0,0,1,4.084,4.93q-4.1-.194-8.2,0C31.96,15.047,33.341,13.4,34.73,11.9ZM18.744,3.44C21.066,2.1,26.2,4.013,31.609,8.818q.519.461,1.041.961a71.16,71.16,0,0,0-5.912,7.315,72.336,72.336,0,0,0-9.26,1.439Q17.213,17.471,17,16.4h0C15.7,9.73,16.565,4.7,18.744,3.44ZM15.361,39.771q-.863-.247-1.712-.536a25.12,25.12,0,0,1-8.094-4.3C3.834,33.461,2.965,32,2.965,30.81c0-2.527,3.767-5.75,10.051-7.94q1.183-.41,2.388-.752a70.9,70.9,0,0,0,3.381,8.764A71.981,71.981,0,0,0,15.361,39.771ZM31.426,53.283a25.112,25.112,0,0,1-7.768,4.863h0c-2.136.755-3.837.776-4.867.183-2.189-1.262-3.1-6.136-1.857-12.674q.22-1.159.507-2.3A69.448,69.448,0,0,0,26.792,44.7a72.07,72.07,0,0,0,5.957,7.359Q32.1,52.691,31.426,53.283Zm3.386-3.351c-1.405-1.516-2.807-3.193-4.175-5q1.993.078,4.06.079,2.122,0,4.189-.094A62.8,62.8,0,0,1,34.812,49.933Zm18,4.125c-.414,2.228-1.244,3.713-2.272,4.309-2.187,1.266-6.864-.38-11.907-4.72q-.868-.746-1.745-1.591a69.9,69.9,0,0,0,5.818-7.386,69.2,69.2,0,0,0,9.4-1.449q.212.857.376,1.679h0a25.133,25.133,0,0,1,.332,9.158Zm2.516-14.806h0q-.569.189-1.166.364a69.569,69.569,0,0,0-3.514-8.791,69.618,69.618,0,0,0,3.377-8.663c.709.206,1.4.422,2.063.651,6.422,2.21,10.339,5.479,10.339,8,0,2.682-4.23,6.165-11.1,8.441Z" transform="translate(0 0.002)" fill="#fff"/>
        <path id="Path_711" data-name="Path 711" d="M912.456,782.69a6.2,6.2,0,1,1-6.2,6.2,6.2,6.2,0,0,1,6.2-6.2" transform="translate(-877.759 -758.075)" fill="#fff"/>
      </g>
    </g>
  </g>
</svg>
