<svg xmlns="http://www.w3.org/2000/svg" width="96" height="96" viewBox="0 0 96 96">
  <defs>
    <linearGradient id="linear-gradient" x1="0.5" x2="0.5" y2="1" gradientUnits="objectBoundingBox">
      <stop offset="0" stop-color="#9b9b9b"/>
      <stop offset="1" stop-color="#565656"/>
    </linearGradient>
  </defs>
  <g id="Group_420" data-name="Group 420" transform="translate(-870 -701)">
    <circle id="Ellipse_30" data-name="Ellipse 30" cx="48" cy="48" r="48" transform="translate(870 701)" fill="url(#linear-gradient)"/>
    <g id="Layer_2" data-name="Layer 2" transform="translate(1976 1208)">
      <g id="ps_cc_app_RGB.svg" transform="translate(-1082 -476)">
        <path id="Path_712" data-name="Path 712" d="M25.1,34.191,16.114,16.759,24.59.481C24.75.193,24.654,0,24.4,0H19.228c-.321,0-.417.16-.578.417-1.958,4.206-4.013,8.476-5.875,12.712h-.064c-1.926-4.3-3.981-8.506-6-12.777C6.611.064,6.451,0,6.13,0H.608A.284.284,0,0,0,.383.481L8.891,17.3l-8.8,16.92c-.161.193-.129.45.193.45H5.616a.617.617,0,0,0,.578-.353c2.054-4.24,4.173-8.925,6.1-13.228h.065q3.226,6.838,6.292,13.2a.63.63,0,0,0,.674.417h5.586C25.168,34.7,25.264,34.448,25.1,34.191Zm22.152-4.559V.289c0-.161-.064-.257-.321-.257H41.766a.321.321,0,0,0-.321.321V8.7a14.2,14.2,0,0,0-1.67-.064c-7.9,0-12.713,5.843-12.713,13.324,0,8.732,4.976,13.034,11.943,13.034a19.127,19.127,0,0,0,8.219-1.862c.193-.1.193-.129.193-.353A22.862,22.862,0,0,1,47.256,29.632ZM41.413,13.741V29.632a6.052,6.052,0,0,1-2.215.353c-3.6,0-6.357-2.376-6.357-8.283,0-5.169,2.7-8.283,6.742-8.283a4.41,4.41,0,0,1,1.862.321Z" transform="translate(0 0)" fill="#fff"/>
      </g>
    </g>
  </g>
</svg>
