<svg xmlns="http://www.w3.org/2000/svg" width="96" height="96" viewBox="0 0 96 96">
  <defs>
    <linearGradient id="linear-gradient" x1="0.5" x2="0.5" y2="1" gradientUnits="objectBoundingBox">
      <stop offset="0" stop-color="#9b9b9b"/>
      <stop offset="1" stop-color="#565656"/>
    </linearGradient>
  </defs>
  <g id="Group_421" data-name="Group 421" transform="translate(-1033 -701)">
    <circle id="Ellipse_31" data-name="Ellipse 31" cx="48" cy="48" r="48" transform="translate(1033 701)" fill="url(#linear-gradient)"/>
    <g id="Layer_2" data-name="Layer 2" transform="translate(1062 732)">
      <g id="Layer_1" data-name="Layer 1">
        <path id="Path_678" data-name="Path 678" d="M8.638,0C5.6,0,2.657.059.683.148.43.148,0,.3,0,.519V33.66c0,.282.119.371.371.371H5.091c.282,0,.371-.119.371-.371V21.816c.831,0,1.232.059,2.4.059,6.975,0,12.66-3.369,12.66-11.205C20.525,4.69,17.186,0,8.638,0ZM8,16.963c-1.232,0-1.781,0-2.493-.059L5.491,4.987c.564-.03,1.736-.089,2.968-.089C12.57,4.9,15,6.871,15,10.79,15,15.7,11.606,16.963,8,16.963Z" fill="#fff"/>
        <path id="Path_679" data-name="Path 679" d="M173.935,76.273c0,4.942-3.77,7.6-8.86,7.6a13.389,13.389,0,0,1-6.322-1.321c-.223-.089-.252-.252-.252-.49V77.505c0-.312.148-.4.371-.252a11.5,11.5,0,0,0,6.2,1.825c2.434,0,3.458-1.024,3.458-2.4,0-1.113-.712-2.093-3.829-3.71-4.378-2.093-6.2-4.215-6.2-7.777,0-3.977,3.117-7.287,8.519-7.287a14.2,14.2,0,0,1,5.521.861.672.672,0,0,1,.312.623v4.23c0,.252-.148.4-.46.312a10.49,10.49,0,0,0-5.372-1.38c-2.434,0-3.265,1.232-3.265,2.256,0,1.113.549,1.885,3.829,3.577C172.421,70.723,173.935,72.979,173.935,76.273Z" transform="translate(-134.977 -49.307)" fill="#fff"/>
      </g>
    </g>
  </g>
</svg>
