<svg xmlns="http://www.w3.org/2000/svg" width="96" height="96" viewBox="0 0 96 96">
  <defs>
    <linearGradient id="linear-gradient" x1="0.5" x2="0.5" y2="1" gradientUnits="objectBoundingBox">
      <stop offset="0" stop-color="#9b9b9b"/>
      <stop offset="1" stop-color="#565656"/>
    </linearGradient>
  </defs>
  <g id="Group_425" data-name="Group 425" transform="translate(-705 -917)">
    <circle id="Ellipse_40" data-name="Ellipse 40" cx="48" cy="48" r="48" transform="translate(705 917)" fill="url(#linear-gradient)"/>
    <g id="Layer_2" data-name="Layer 2" transform="translate(734.83 955.69)">
      <g id="Layer_1" data-name="Layer 1">
        <path id="Path_707" data-name="Path 707" d="M0,28.009l5.612-3.4c1.083,1.92,2.068,3.544,4.429,3.544,2.264,0,3.692-.886,3.692-4.331V.394h6.892V23.923c0,7.138-4.184,10.386-10.288,10.386-5.513,0-8.712-2.855-10.337-6.3m24.368-.738,5.611-3.247c1.477,2.412,3.4,4.184,6.793,4.184,2.856,0,4.676-1.428,4.676-3.4,0-2.363-1.871-3.2-5.021-4.576L34.705,19.5c-4.972-2.116-8.27-4.774-8.27-10.386C26.436,3.938,30.374,0,36.527,0c4.381,0,7.531,1.525,9.8,5.515L40.957,8.959C39.775,6.843,38.5,6.006,36.527,6.006a3,3,0,0,0-3.3,2.953c0,2.067,1.28,2.9,4.233,4.185l1.723.738c5.857,2.511,9.155,5.07,9.155,10.829,0,6.2-4.873,9.6-11.42,9.6-6.4,0-10.534-3.051-12.552-7.04" fill="#fff"/>
      </g>
    </g>
  </g>
</svg>
