<svg xmlns="http://www.w3.org/2000/svg" width="96" height="96" viewBox="0 0 96 96">
  <defs>
    <linearGradient id="linear-gradient" x1="0.5" x2="0.5" y2="1" gradientUnits="objectBoundingBox">
      <stop offset="0" stop-color="#9b9b9b"/>
      <stop offset="1" stop-color="#565656"/>
    </linearGradient>
  </defs>
  <g id="Group_422" data-name="Group 422" transform="translate(-1198 -701)">
    <circle id="Ellipse_32" data-name="Ellipse 32" cx="48" cy="48" r="48" transform="translate(1198 701)" fill="url(#linear-gradient)"/>
    <g id="Layer_2" data-name="Layer 2" transform="translate(1225 729)">
      <g id="Layer_1" data-name="Layer 1" transform="translate(0)">
        <path id="Path_706" data-name="Path 706" d="M29.743,39.43,18.518,1.341c-.071-.282-.177-.353-.424-.353H10.681c-.176,0-.282.106-.282.353a11.457,11.457,0,0,1-.353,2.93L.02,39.36c-.07.424,0,.529.353.529H5.562c.353,0,.459-.07.53-.353L8.88,28.946h11.3l2.895,10.625c.07.247.247.318.529.318h5.86C29.743,39.889,29.814,39.713,29.743,39.43Zm-19.415-16.2c1.483-5.472,3.355-12.461,4.095-16.591h.07c.883,4.13,3.213,12.674,4.2,16.591ZM38.18,0a3.427,3.427,0,0,0-3.6,3.6,3.318,3.318,0,0,0,3.53,3.6,3.374,3.374,0,0,0,3.671-3.6A3.41,3.41,0,0,0,38.18,0Zm2.753,11.19H35.391c-.318,0-.424.141-.424.424H35V39.431c0,.282.106.459.459.459h5.472c.353,0,.424-.141.424-.424V11.614C41.357,11.3,41.215,11.19,40.933,11.19Zm0,0H35.391c-.318,0-.424.141-.424.424H35V39.431c0,.282.106.459.459.459h5.472c.353,0,.424-.141.424-.424V11.614C41.357,11.3,41.215,11.19,40.933,11.19ZM38.109,7.2a3.374,3.374,0,0,0,3.671-3.6,3.6,3.6,0,0,0-7.2,0A3.318,3.318,0,0,0,38.109,7.2ZM18.518,1.341c-.071-.282-.177-.353-.424-.353H10.681c-.176,0-.282.106-.282.353a11.457,11.457,0,0,1-.353,2.93L.02,39.36c-.07.424,0,.529.353.529H5.562c.353,0,.459-.07.53-.353L8.88,28.946h11.3l2.895,10.625c.07.247.247.318.529.318h5.86c.282,0,.353-.177.282-.459Zm-8.19,21.886c1.483-5.472,3.355-12.461,4.095-16.591h.07c.883,4.13,3.213,12.674,4.2,16.591Zm30.6-12.037H35.391c-.318,0-.424.141-.424.424H35V39.431c0,.282.106.459.459.459h5.472c.353,0,.424-.141.424-.424V11.614C41.357,11.3,41.215,11.19,40.933,11.19ZM38.109,7.2a3.374,3.374,0,0,0,3.671-3.6,3.6,3.6,0,0,0-7.2,0A3.318,3.318,0,0,0,38.109,7.2ZM18.518,1.341c-.071-.282-.177-.353-.424-.353H10.681c-.176,0-.282.106-.282.353a11.457,11.457,0,0,1-.353,2.93L.02,39.36c-.07.424,0,.529.353.529H5.562c.353,0,.459-.07.53-.353L8.88,28.946h11.3l2.895,10.625c.07.247.247.318.529.318h5.86c.282,0,.353-.177.282-.459Zm-8.19,21.886c1.483-5.472,3.355-12.461,4.095-16.591h.07c.883,4.13,3.213,12.674,4.2,16.591Z" transform="translate(0.005)" fill="#fff"/>
      </g>
    </g>
  </g>
</svg>
