<svg xmlns="http://www.w3.org/2000/svg" width="96" height="96" viewBox="0 0 96 96">
  <defs>
    <linearGradient id="linear-gradient" x1="0.5" x2="0.5" y2="1" gradientUnits="objectBoundingBox">
      <stop offset="0" stop-color="#9b9b9b"/>
      <stop offset="1" stop-color="#565656"/>
    </linearGradient>
  </defs>
  <g id="Group_432" data-name="Group 432" transform="translate(-870 -1133)">
    <circle id="Ellipse_63" data-name="Ellipse 63" cx="48" cy="48" r="48" transform="translate(870 1133)" fill="url(#linear-gradient)"/>
    <g id="Layer_2" data-name="Layer 2" transform="translate(894 1152)">
      <g id="Layer_1" data-name="Layer 1" transform="translate(0)">
        <path id="Path_703" data-name="Path 703" d="M30.594,36.286c3.374,1.732,5.745,6.654,5.745,10.3v8.3a3.733,3.733,0,0,1-.062.525c0,.029-.009.058-.012.088a1.656,1.656,0,0,0-.014.207l.014,0v.047A44.61,44.61,0,0,1,24.214,57.4a44.811,44.811,0,0,1-8.914-.89,5.359,5.359,0,0,1-.2-1.528v-6.2h-4.56a6.229,6.229,0,0,1-5.745-3.1C3.609,43.493,3.425,40.119.418,38.021c-.912-.729-.183-1.459.819-1.369A9.564,9.564,0,0,1,6.16,40.389c1.459,1.912,2.1,2.371,4.832,2.371a36.76,36.76,0,0,0,5.105-.366,11.3,11.3,0,0,1,4.832-5.925C8.714,35.011,2.879,28.993,2.879,20.787a15.048,15.048,0,0,1,4.1-9.847C6.163,8.113,5.067,2.278,7.348,0A12.94,12.94,0,0,1,16.92,4.466a28.074,28.074,0,0,1,8.842-1.459A27.634,27.634,0,0,1,34.6,4.466,12.935,12.935,0,0,1,44.175,0c2.188,2.188,1.186,8.113.273,10.94a14.764,14.764,0,0,1,4.013,9.847C48.461,28.993,42.716,35.011,30.594,36.286Z" transform="translate(-0.002)" fill="#fff"/>
      </g>
    </g>
  </g>
</svg>
